<?xml version="1.0" encoding="UTF-8"?><svg xmlns="http://www.w3.org/2000/svg" viewBox="0 0 597.62 680.26"><defs><style>.cls-1{fill:#86e4c7;mix-blend-mode:multiply;}.cls-1,.cls-2,.cls-3,.cls-4,.cls-5,.cls-6,.cls-7,.cls-8,.cls-9{stroke-width:0px;}.cls-10{isolation:isolate;}.cls-2{fill:#fab301;}.cls-3{fill:#7761d6;}.cls-4{fill:#9689f4;}.cls-5{fill:#584abc;}.cls-6{fill:#ff7cc7;}.cls-7{fill:#660650;}.cls-8{fill:#ffe40e;}.cls-9{fill:#fff;}</style></defs><g class="cls-10"><g id="Layer_2"><g id="Layer_5_copy_4"><path class="cls-1" d="m467.59,680.26c-10.81,0-20.4-5.58-25.65-14.91-16.9-30.02-33.57-59.5-50.85-88.91-26.03,6.83-52.71,10.28-79.54,10.28-9.77,0-19.62-.47-29.29-1.4-17.77-1.7-35.43-4.85-52.68-9.38-17.32,29.46-34.1,59.16-51.14,89.42-5.26,9.33-14.84,14.91-25.65,14.91-13.49,0-25.35-8.97-28.83-21.8-1.93-7.13-3.28-14.1-4.57-20.85-7.54,3.87-15.34,7.55-23.55,10.73-3.17,1.24-6.53,1.87-9.96,1.87-9.65,0-18.81-4.95-24.51-13.24-5.44-7.92-6.72-17.79-3.41-26.41,11.27-29.35,26.3-66.6,45.5-102.96-24.26-22.89-43.42-49.74-57.09-80.01C-1.91,320.65,22.94,181.24,104.15,103.29,158.09,51.51,233.74,21.82,311.71,21.82c31.33,0,61.97,4.75,91.06,14.12,111.36,35.87,183.96,129.15,194.18,249.53,5.52,90.4-23.32,170.5-79.5,223.12,18.98,36.1,33.84,72.93,44.98,101.96,3.31,8.62,2.04,18.49-3.41,26.41-5.7,8.29-14.86,13.24-24.5,13.24h0c-3.43,0-6.79-.63-9.98-1.88-8.21-3.18-16-6.85-23.54-10.72-1.29,6.75-2.65,13.72-4.57,20.85-3.47,12.83-15.32,21.81-28.83,21.81Z"/><path class="cls-9" d="m445.77,658.44c-10.81,0-20.4-5.58-25.65-14.91-16.9-30.02-33.57-59.5-50.85-88.91-26.03,6.83-52.71,10.28-79.54,10.28-9.77,0-19.62-.47-29.29-1.4-17.77-1.71-35.43-4.85-52.68-9.38-17.32,29.46-34.11,59.16-51.14,89.42-5.26,9.33-14.84,14.91-25.65,14.91-13.49,0-25.35-8.97-28.83-21.8-1.93-7.13-3.28-14.1-4.57-20.85-7.54,3.87-15.34,7.55-23.55,10.73-3.17,1.24-6.53,1.87-9.96,1.87-9.65,0-18.81-4.95-24.51-13.24-5.44-7.92-6.72-17.79-3.41-26.41,11.27-29.35,26.3-66.6,45.5-102.95-24.26-22.89-43.42-49.74-57.09-80.01C-23.73,298.83,1.12,159.42,82.34,81.47,136.27,29.7,211.93,0,289.9,0c31.33,0,61.96,4.75,91.06,14.12,111.36,35.87,183.96,129.15,194.18,249.53,5.52,90.4-23.32,170.5-79.5,223.12,18.98,36.1,33.84,72.93,44.98,101.96,3.31,8.62,2.04,18.49-3.41,26.41-5.7,8.29-14.86,13.24-24.5,13.24h0c-3.43,0-6.79-.63-9.98-1.88-8.21-3.18-16-6.85-23.54-10.72-1.29,6.75-2.65,13.72-4.57,20.84-3.47,12.83-15.32,21.81-28.83,21.81Z"/><path class="cls-3" d="m134.15,605.94c-.85-.13-1.53-.78-1.7-1.62-2.32-11.27-4.95-24.04-10.24-36.21-1.26-2.93-4.72-3.15-5.75-3.15-1.38,0-2.74.31-3.82.89-4.8,2.55-9.55,5.19-14.28,7.83-5.52,3.08-11.03,6.14-16.62,9.06-.3.16-.62.23-.95.23-.5,0-.99-.18-1.39-.53-.64-.58-.85-1.49-.53-2.29,14.05-35.05,27.24-63.25,41.51-88.74.29-.51.78-.87,1.35-1,.15-.04.3-.05.45-.05.43,0,.84.13,1.19.38,17.64,12.54,37.17,23,58.04,31.11.56.22,1,.68,1.2,1.25.2.58.13,1.21-.18,1.73-16.74,28.2-32.73,56.32-46.17,80.11-.37.65-1.06,1.04-1.8,1.04-.11,0-.21,0-.32-.02Z"/><path class="cls-3" d="m442.26,605.96c-.74,0-1.43-.39-1.8-1.04-12.44-22.03-28.9-50.99-45.9-79.63-.3-.52-.37-1.15-.17-1.72.19-.58.63-1.03,1.19-1.25,20.62-8.05,40.18-18.48,58.12-30.99.35-.24.76-.37,1.18-.37.16,0,.31.01.46.05.57.13,1.05.5,1.33,1.01,14.15,25.35,27.24,53.34,41.16,88.11.33.8.11,1.72-.53,2.29-.39.36-.89.53-1.38.53-.33,0-.65-.08-.95-.23-5.58-2.91-11.06-5.96-16.56-9.03-4.75-2.64-9.51-5.3-14.33-7.85-1.09-.58-2.44-.89-3.82-.89-1.03,0-4.49.23-5.76,3.15-4.91,11.31-7.44,22.61-10.24,36.21-.17.84-.84,1.49-1.7,1.63-.11.01-.21.02-.32.02Z"/><path class="cls-8" d="m288.9,528.31c-78.51,0-150.81-31.14-198.37-85.42C12.07,353.33,20.23,196.72,108,107.75c44.86-45.48,108.35-70.52,178.78-70.52,47.49,0,93.67,11.61,133.55,33.59,67.76,37.32,110.82,108.18,118.14,194.4,7.38,121.23-57.22,217.47-168.58,251.23-25.95,7.87-53.2,11.85-80.98,11.85h0Zm-.4-471.89c-87.13,0-165.48,45.15-204.48,117.84-48.79,90.93-28.87,213.25,45.34,278.47,40.76,35.82,96.7,55.55,157.52,55.55,32.75,0,65.86-5.92,95.76-17.12,89.92-33.68,141.94-119.39,135.75-223.68-9.32-107.52-83.12-188.96-188.03-207.43-13.75-2.42-27.83-3.64-41.87-3.64Z"/><path class="cls-3" d="m288.06,503.64c-103.68,0-190.93-61.43-217.12-152.87-17.9-62.49-9.54-126.92,23.54-181.43,32.74-53.95,85.21-90.67,147.74-103.4,15.65-3.19,31.58-4.8,47.35-4.8,109.34,0,202.39,77.17,221.26,183.5,1.19,7.49,2.07,15.07,2.61,22.58,7.37,124.01-70.05,218.15-192.63,234.28-10.8,1.42-21.82,2.14-32.74,2.14Z"/><path class="cls-5" d="m510.81,244.64c-4.67-26.33-13.91-50.87-26.8-72.9,16.37,46.78,21.31,96.29,7.77,149.14-22.55,88.04-97.51,153.2-187.73,161.79-79.17,7.54-162.55-31.54-202-101.06-34.64-61.05-29.96-136.28-10.98-206.34-30.18,53.22-37.4,115.25-20.14,175.49,26.19,91.43,113.44,152.87,217.12,152.87,10.92,0,21.94-.72,32.74-2.14,122.58-16.13,199.99-110.27,192.63-234.28-.54-7.51-1.41-15.1-2.61-22.58Z"/><path class="cls-5" d="m123.37,490.72c-.35-.25-.77-.38-1.19-.38-.15,0-.3.01-.45.05-.57.13-1.06.49-1.35,1-3.3,5.9-6.54,11.96-9.75,18.2,10.48,8.55,21.83,15.8,31.66,21.56,9.3,5.45,18.89,9.86,28.61,13.27,3.79-6.5,7.64-13.05,11.54-19.62.31-.52.37-1.15.18-1.73-.2-.57-.64-1.03-1.2-1.25-20.87-8.1-40.4-18.57-58.04-31.11Z"/><path class="cls-5" d="m465.77,508.96c-2.99-5.8-6.01-11.45-9.08-16.95-.28-.51-.77-.87-1.33-1.01-.15-.04-.31-.05-.46-.05-.42,0-.83.13-1.18.37-17.95,12.51-37.5,22.93-58.12,30.99-.56.22-1,.67-1.19,1.25-.2.57-.13,1.2.17,1.72,3.35,5.64,6.66,11.29,9.94,16.9,15.76-5.3,30.77-13.16,42.95-20.6,6.38-3.9,12.49-8.12,18.31-12.61Z"/><path class="cls-4" d="m156.04,154.72c-46.65,59.69-43.77,152.24,6.27,214.72,76.09,94.98,229.09,64.25,272.73-23.03,28.32-56.63,34.07-122.68,8.43-178.02-40.13-86.6-212.44-109.62-287.44-13.67Z"/><path class="cls-2" d="m538.46,265.22c-6.44-75.91-40.61-139.89-94.93-179.57,5.02,4.5,9.96,9.18,14.81,14.13,42.43,43.39,65.14,102.8,70.39,162.51,10.11,115.18-52.81,210.34-162.72,244.46-117.9,36.6-256.68-12.02-302.48-130.67-20.62-53.41-25.43-104.78-12-160.49,5.11-21.21,12.93-42.63,22.37-63.6-54.13,90.29-50.05,214.8,16.63,290.91,47.56,54.28,119.86,85.42,198.37,85.42h0c27.78,0,55.03-3.98,80.98-11.85,111.36-33.76,175.96-130.01,168.58-251.23Z"/><path class="cls-7" d="m554.59,265.4c-9.3-109.5-74.47-197.68-179.96-231.65-95.25-30.67-205.82-6.7-278.03,62.6C19.79,170.08.01,301.33,43.32,397.29c15.23,33.74,37.44,61.72,64.27,83.95-20.72,36.65-37.16,75.62-52.23,114.89-2.38,6.19,4.98,13.59,11.19,11.18,15.77-6.12,30.23-14.4,44.95-22.5,4.91,15.14,6.36,31.02,10.53,46.45,2.04,7.53,12.74,9.06,16.62,2.17,19.53-34.69,39.12-69.35,59.49-103.54,20.69,6.55,42.26,10.98,64.27,13.1,39.23,3.77,79.06-.69,116.47-12.61,20.26,34.05,39.77,68.53,59.21,103.05,3.87,6.88,14.58,5.35,16.61-2.17,4.18-15.43,5.62-31.31,10.53-46.45,14.72,8.1,29.18,16.38,44.95,22.5,6.21,2.42,13.56-4.99,11.18-11.18-14.95-38.96-31.25-77.64-51.75-114.04,65.21-52.38,89.93-135.59,84.99-216.68Zm-420.12,338.5c-2.56-12.4-5.18-24.67-10.37-36.62-2.03-4.68-8.47-5.36-12.44-3.26-10.39,5.51-20.5,11.46-30.88,16.88,12.13-30.25,25.47-60.05,41.4-88.49,17.98,12.78,37.65,23.26,58.49,31.35-15.75,26.51-31.03,53.29-46.19,80.15Zm318.16-36.62c-5.19,11.95-7.82,24.22-10.37,36.62-15.07-26.69-30.27-53.3-45.92-79.67,20.65-8.06,40.33-18.52,58.55-31.21,15.77,28.26,29.01,57.84,41.05,87.88-10.38-5.41-20.48-11.36-30.88-16.88-3.96-2.1-10.4-1.42-12.44,3.26Zm-83.34-52.8c-96.35,29.21-210.03,3.74-277.21-72.95C11.75,349.84,26.38,193.43,109.47,109.2,188.96,28.62,322.87,19.48,419.33,72.62c71.35,39.3,110.34,113.38,117.08,192.78,7.09,116.56-53.83,214.74-167.12,249.08Z"/><path class="cls-7" d="m330.72,58.03c-97.83-17.22-201.08,26.83-248.52,115.26-48.33,90.08-31.48,213.07,45.8,280.99,68.34,60.06,172.24,69.95,255.37,38.82,95.32-35.7,142.94-127.05,137.08-225.73-9.39-108.31-82.15-190.4-189.73-209.34Zm-10.2,441.42c-106.88,14.06-216.98-42.35-247.61-149.25C36.37,222.61,114.05,94.13,242.62,67.95c123.96-25.23,244.02,52.21,266.16,177.05,1.19,7.42,2.04,14.88,2.58,22.37,7.22,121.58-69.83,216.16-190.84,232.08Z"/><path class="cls-7" d="m166.51,205.92c5.62-10.73,17.47-14.02,28.87-12.76,9.32,1.03,9.22-13.53,0-14.55-16.25-1.8-33.61,5.04-41.43,19.96-4.35,8.31,8.2,15.65,12.56,7.34Z"/><path class="cls-7" d="m381.8,193.17c11.4-1.26,23.25,2.02,28.87,12.76,4.35,8.31,16.9.97,12.56-7.34-7.81-14.92-25.18-21.76-41.43-19.96-9.22,1.02-9.32,15.58,0,14.55Z"/><path class="cls-7" d="m309.9,334.56c-3.44,24.29-39.19,24.28-42.62,0-1.31-9.25-15.33-5.3-14.03,3.86,5.41,38.2,65.26,38.19,70.69,0,1.29-9.16-12.71-13.12-14.03-3.86Z"/><path class="cls-7" d="m245.26,260.53c-2.27-.82-4.6-1.44-6.95-1.98-.55-.14-1.16-.28-1.88-.41-.4-.09-.79-.19-1.19-.27-12.25-2.27-68.08-2.35-83.06-.21-3.88.55-7.73,1.26-11.53,2.17-6.54,1.57-7.37,4.72-1.44,5.25,3.24.28,6.49.37,9.74.5-.02,4.31.58,8.45,1.61,12.39-.59.06-1.16.18-1.75.2-2.88.07-5.62-.67-8.44-.59-.53,0-.82.43-.64.93,1.65,4.67,7.66,6.95,13.38,6.81.33.72.72,1.41,1.08,2.11-1.64.92-3.35,1.73-5.13,2.44-2.37.94-4.87.9-7.23,1.78-.42.15-.45.7-.21,1.02,3.36,4.33,11.06,4.21,16.74,1.46.45.59.96,1.13,1.43,1.7-1.51,1.51-3.26,2.84-4.97,4.01-2.16,1.46-4.69,2.03-6.8,3.5-.38.26-.23.79.06,1.03,3.2,2.74,8.93,1.65,12.43.1,1.65-.74,3.33-1.82,4.78-3.13,9.87,8.19,23.36,12.17,38.19,9.35,19.18-3.64,35.87-18.54,37.25-38.52.14-1.96.18-3.85.18-5.71,1.18-.13,2.35-.23,3.52-.41,5.1-.8,2.5-4.9.83-5.5Z"/><path class="cls-7" d="m436.52,259.84c-3.79-.91-7.64-1.62-11.52-2.17-14.99-2.14-70.81-2.07-83.07.21-.4.08-.78.18-1.18.27-.72.13-1.34.27-1.88.41-2.35.55-4.68,1.17-6.95,1.98-1.66.6-4.26,4.7.84,5.5,1.16.18,2.34.28,3.52.41-.01,1.86.04,3.75.17,5.71,1.39,19.98,18.08,34.87,37.26,38.52,14.82,2.82,28.32-1.16,38.18-9.35,1.46,1.31,3.13,2.39,4.79,3.13,3.49,1.55,9.23,2.64,12.43-.1.28-.24.43-.77.06-1.03-2.12-1.47-4.64-2.04-6.8-3.5-1.72-1.16-3.47-2.49-4.96-4.01.48-.57.98-1.1,1.43-1.69,5.68,2.75,13.39,2.86,16.75-1.46.23-.31.2-.87-.21-1.02-2.36-.87-4.87-.83-7.23-1.78-1.79-.71-3.49-1.52-5.14-2.44.37-.7.76-1.38,1.09-2.11,5.72.14,11.73-2.14,13.37-6.81.18-.5-.11-.92-.65-.93-2.83-.08-5.57.66-8.44.59-.6-.01-1.16-.14-1.75-.2,1.04-3.94,1.63-8.08,1.61-12.39,3.25-.13,6.51-.21,9.75-.5,5.92-.53,5.1-3.68-1.45-5.25Z"/><path class="cls-6" d="m154.86,322.25c31.53,1.85,23.03,38.79-4.95,33.46-26.06-4.96-24.2-35.18,4.95-33.46Zm267.46,0c-31.53,1.85-23.03,38.79,4.95,33.46,26.07-4.96,24.2-35.18-4.95-33.46Z"/><path class="cls-9" d="m199.43,275.91c-4.14-10.67-16.88-13.34-25.22-8.99-7.61,3.98-12.38,12.05-6.4,22.02,4.41,7.34,16.97,8.74,24.45,3.89,6.29-4.05,9.64-10.57,7.17-16.92Z"/><path class="cls-9" d="m223.74,282.31c-2.34-6.03-9.53-7.54-14.23-5.08-4.3,2.25-7,6.8-3.62,12.43,2.49,4.15,9.59,4.94,13.81,2.21,3.54-2.29,5.44-5.97,4.05-9.56Z"/><path class="cls-9" d="m387.3,275.91c-4.14-10.67-16.88-13.34-25.22-8.99-7.61,3.98-12.38,12.05-6.4,22.02,4.41,7.34,16.97,8.74,24.45,3.89,6.29-4.05,9.64-10.57,7.17-16.92Z"/><path class="cls-9" d="m411.6,282.31c-2.34-6.03-9.53-7.54-14.23-5.08-4.3,2.25-7,6.8-3.62,12.43,2.49,4.15,9.59,4.94,13.81,2.21,3.54-2.29,5.44-5.97,4.05-9.56Z"/></g></g></g></svg>