<?xml version="1.0" encoding="UTF-8"?><svg xmlns="http://www.w3.org/2000/svg" viewBox="0 0 630.66 664.8"><defs><style>.cls-1{fill:#86e4c7;mix-blend-mode:multiply;}.cls-1,.cls-2,.cls-3,.cls-4,.cls-5,.cls-6,.cls-7,.cls-8,.cls-9,.cls-10,.cls-11,.cls-12{stroke-width:0px;}.cls-13{isolation:isolate;}.cls-2{fill:#fab301;}.cls-3{fill:#d1ffff;}.cls-4{fill:#ad8353;}.cls-5{fill:#acd0e0;}.cls-6{fill:#ff915b;}.cls-7{fill:#660650;}.cls-8{fill:#ffe40e;}.cls-9{fill:#fff;}.cls-10{fill:#ec008b;}.cls-11{fill:#ecfffe;}.cls-12{fill:#ff564d;}</style></defs><g class="cls-13"><g id="Layer_2"><g id="Layer_5_copy_4"><path class="cls-1" d="m339.44,664.8c-55.32,0-113.59-1.74-178.15-5.32-3.62-.2-7.33-.37-11.09-.53-39.72-1.8-94.12-4.25-117.93-53.97-11.35-23.71-10.75-51.05-10.21-75.17.11-5.16.23-10.19.2-15.01-.18-41.12.06-75.01.77-106.63.9-39.88,1.82-80.92,5.99-121.42l.43-4.33c1.95-19.65,4.39-44.11,20.96-63.53,17.66-20.71,44.67-34.2,82.56-41.24,9.85-1.83,19.87-2.88,29.56-3.88,25.75-2.68,40.48-5.43,48.7-12.15-8.52-3.43-17.07-9.3-23.45-19.37-16.51-26.04-11.24-69.4,4.03-93.57,16.96-26.85,53.66-26.85,67.49-26.85,5.83,0,11.53.21,16.78.41,3.98.15,7.67.29,10.88.29h85.95c2.88.09,5.21.11,7.66.11l8.14-.02c21.34,0,65.75,0,78.77,39.33,9.88,29.89,11.83,72.51-15.16,94.3-3.13,2.52-6.73,4.62-10.86,6.3,7.29,5.06,19.67,7.27,40.9,9.62,8.76.97,17.82,1.97,27.02,3.68,22.91,4.25,54.3,10.08,78.01,29.22,36.72,29.6,37.9,78.43,38.84,117.66.14,5.82.28,11.48.53,16.9,2.92,62.35,5.51,136.02,2.71,209.76-2.53,66.35-35.22,101.48-99.94,107.37-59.51,5.42-121.68,8.05-190.06,8.05h-.01Z"/><path class="cls-9" d="m317.62,642.98c-55.32,0-113.59-1.74-178.15-5.32-3.62-.2-7.33-.37-11.09-.53-39.72-1.8-94.12-4.25-117.93-53.97C-.9,559.45-.3,532.11.23,507.99c.11-5.16.23-10.19.2-15.01-.18-41.12.06-75.01.77-106.63.89-39.88,1.82-80.92,5.99-121.42l.43-4.33c1.95-19.65,4.39-44.11,20.96-63.53,17.66-20.71,44.67-34.2,82.56-41.24,9.85-1.83,19.87-2.88,29.56-3.88,25.75-2.68,40.48-5.43,48.7-12.15-8.52-3.43-17.07-9.3-23.45-19.37-16.51-26.04-11.24-69.4,4.03-93.57C186.95,0,223.66,0,237.48,0c5.83,0,11.53.21,16.78.41,3.98.15,7.67.29,10.88.29h85.95c2.88.09,5.21.11,7.66.11l8.14-.02c21.34,0,65.75,0,78.77,39.33,9.88,29.89,11.83,72.51-15.16,94.3-3.13,2.52-6.73,4.62-10.86,6.3,7.29,5.06,19.67,7.27,40.89,9.62,8.76.97,17.82,1.97,27.02,3.68,22.91,4.25,54.3,10.08,78.01,29.22,36.72,29.6,37.9,78.43,38.84,117.66.14,5.82.28,11.48.53,16.9,2.92,62.35,5.51,136.02,2.71,209.76-2.53,66.35-35.22,101.48-99.94,107.37-59.51,5.42-121.68,8.05-190.06,8.05h-.01Z"/><path class="cls-6" d="m301.93,39.75c-.58,11.88-.53,23.98-.49,35.7.04,10.17.07,20.7-.3,31.07-.04,1.12-.95,1.99-2.06,1.99l-12.74-.08c-.56,0-1.09-.23-1.48-.63-.38-.4-.59-.94-.57-1.5.36-10.27.33-20.72.29-30.84-.04-11.75-.08-23.89.49-35.86.06-1.09.96-1.96,2.05-1.96l12.74-.04c.56,0,1.1.23,1.49.63.39.41.6.97.57,1.53Zm-45.7-2.02s-8.15.03-8.15.03c0,0-4.57-.05-4.58-.05-1.1,0-2,.86-2.06,1.96-.58,11.93-.53,24.05-.5,35.76.04,9.97.07,20.28-.28,30.4-.02.57.2,1.12.6,1.53.39.39.92.6,1.46.6.02,0,2.23-.05,3.21-.05,0,0,9.51.13,9.52.13,1.11,0,2.02-.88,2.06-1.99.35-10.21.31-20.56.28-30.58-.04-11.68-.08-23.74.49-35.58.03-.57-.18-1.12-.58-1.53-.38-.41-.92-.63-1.48-.63Zm23.31.57c-.39-.41-.93-.63-1.49-.63l-12.74.04c-1.09,0-2,.87-2.05,1.96-.58,11.96-.53,24.11-.5,35.85.04,10.01.07,20.36-.28,30.53-.02.55.18,1.09.57,1.49.38.41.91.63,1.46.64,0,0,12.74.18,12.75.18,1.11,0,2.02-.87,2.06-1.99.36-10.35.33-20.84.29-30.99-.04-11.66-.08-23.72.49-35.55.03-.57-.18-1.11-.57-1.53Zm-43.62-.12c-.38-.41-.92-.65-1.48-.65h-1.13c-4.55,0-8.44.2-11.89.62-1,.12-1.76.95-1.81,1.95-.55,11.8-.51,23.77-.47,35.35.03,10.01.06,20.37-.28,30.53-.04,1.11.82,2.06,1.94,2.13,2.47.15,4.97.21,7.44.21,1.85,0,3.68-.04,5.46-.08,1.09-.03,1.97-.9,2-1.99.35-10.27.32-20.68.28-30.76-.04-11.74-.09-23.89.5-35.8.03-.56-.18-1.11-.56-1.51Zm-23.44,2.02c-.22,0-.45.04-.66.11-9.7,3.3-15.37,9.86-16.83,19.48-2.69,17.73-2.65,29.59.13,36.28,2.29,5.48,7.77,9.15,16.31,10.9.13.03.28.04.41.04.46,0,.91-.15,1.28-.44.48-.38.76-.94.78-1.56.31-9.85.28-19.84.25-29.5-.04-10.89-.06-22.14.38-33.17.03-.68-.28-1.33-.82-1.73-.36-.28-.8-.41-1.24-.41Zm175.04.34c-3.79-.94-8.02-1.63-12.95-2.07-.06,0-.12,0-.18,0-.5,0-.98.18-1.36.5-.43.37-.67.9-.7,1.46-.54,11.7-.5,23.58-.46,35.06.03,9.84.06,20.01-.27,29.99-.02.58.39,1.12.79,1.53.39.38,1.09.6,1.66.6.02,0,3.66-.11,3.66-.11,3.08-.09,6.03-.18,8.81-.35,1.06-.06,1.9-.93,1.93-2,.31-9.91.28-19.96.26-29.69-.03-10.77-.06-21.91.38-32.84.04-.98-.61-1.85-1.56-2.09Zm9.37,3.45c-.29-.16-.62-.23-.94-.23-.36,0-.72.09-1.05.28-.6.36-.99,1.01-1.01,1.71-.31,9.86-.27,19.87-.24,29.55.03,9.54.06,19.08-.21,28.63-.02.62.25,1.23.73,1.63.38.32.84.48,1.33.48.13,0,.28-.01.42-.04,13.36-2.75,18.93-11.24,18.6-28.37-.31-16.74-6.08-27.75-17.63-33.66Zm-51.88-5.89c-.39-.41-.93-.64-1.49-.64l-12.73.04c-1.1,0-2,.86-2.06,1.96-.58,12-.54,24.19-.5,35.97.04,10.13.07,20.6-.29,30.88-.02.56.19,1.11.58,1.51.39.41.92.62,1.48.62h.01s10.08-.05,12.74-.09c1.1-.01,2-.89,2.03-1.99.36-10.3.33-20.77.29-30.89-.04-11.76-.09-23.93.5-35.86.03-.56-.18-1.12-.57-1.52Zm21.83.46c-.37-.41-.89-.65-1.43-.67-2.94-.12-12.77-.41-12.79-.41-1.09,0-2,.86-2.06,1.96-.59,12.05-.55,24.28-.51,36.11.04,9.99.07,20.32-.28,30.46-.02.57.19,1.12.59,1.52.39.39.92.61,1.47.61.01,0,8.54-.19,12.79-.31,1.09-.03,1.97-.9,2-1.99.34-10.11.3-20.38.27-30.3-.04-11.64-.07-23.69.49-35.5.03-.55-.17-1.09-.54-1.49Zm-43.65-.39c-.39-.41-.93-.64-1.49-.64l-12.73.04c-1.1,0-2,.86-2.06,1.96-.58,12-.54,24.18-.5,35.95.04,10.15.07,20.65-.29,30.95-.02.55.18,1.1.58,1.5.39.41.92.63,1.48.63h.97l11.77-.06c1.11,0,2.02-.88,2.05-1.99.37-10.36.33-20.88.29-31.05-.04-11.73-.09-23.87.5-35.77.03-.56-.18-1.12-.57-1.52Z"/><path class="cls-8" d="m303.47,604.59c-40.92,0-82.15-.65-122.52-1.92-28.71-.9-52.16-2.16-73.79-3.96-32.14-2.68-65.5-12.18-69.26-62.29-4.56-60.76-1.81-123.64.85-184.43l1.03-23.86c.26-6.23.36-12.83.46-19.63.4-26.4.86-56.31,11.02-79.25,14.89-33.61,66.6-39.13,100.83-42.77l8.28-.9c42.9-4.93,70.38-17,74.76-61.9.11-1.06,1-1.86,2.05-1.86s2.18,0,3.25.04c17.12.46,35.57.68,56.42.68,16.59,0,33.18-.14,49.76-.31h.86c3.94,0,8.89.25,14.35.54,3.08.16,6.33.34,9.67.48,1.02.04,1.85.82,1.96,1.82,6.12,52.26,45.67,57.59,91.47,63.75,16.51,2.22,33.59,4.52,49.55,9.29,36.96,11.03,46.58,34.48,50.12,68.75,4.1,39.75,5.01,80.42,5.9,119.74.71,31.65.95,65.37.76,106.31-.01,4.01.04,8.2.1,12.47.49,35.48,1.1,79.63-42.29,89.76-36.34,8.47-76.08,8.48-114.51,8.49-11.05,0-21.97,0-32.61.21-26.14.51-52.54.77-78.48.77Zm-120.94-37.38c4.8,0,9.27.01,13.27.13,32.97.9,67.85,1.36,103.67,1.36,31.53,0,63.83-.33,98.73-1.03,1.48-.03,3.05-.04,4.7-.04,4.21,0,8.95.08,14.05.17,5.92.1,12.35.21,19.04.21,36.16,0,79.38-3.2,92.81-28.21,9.55-17.78,10.14-36.35,10.77-56l.08-2.46c1.04-31.53.67-65.15-1.16-109.01-.17-4.11-.31-8.35-.46-12.68-.94-28.88-2-61.63-14.4-86.52-16.04-32.22-45.06-43.07-83.68-49.46-.31-.05-.62-.05-.92-.06-.16,0-.87-.12-1.02-.16-20.06-2.68-42.12-3.89-69.84-3.89-13.83,0-27.68.28-41.44.56-12.92.26-25.77.53-38.44.55h-2.09c-8.19,0-16.44-.08-24.72-.17-8.33-.08-16.7-.18-25.08-.18-31.14,0-64.37,1.12-96.44,9.18-57.42,14.44-65.48,67.88-69.15,126.09-.55,8.66-1.24,17.66-1.95,26.91-3.75,48.71-7.99,103.92,6.01,148.03,11.63,36.68,68.42,36.68,102.34,36.68h5.31Z"/><path class="cls-3" d="m314.25,557.09c-53.13,0-110.55-2.02-170.67-6.02-38.22-2.55-57.83-19.18-59.95-50.84-2.05-30.67-1.41-61.98-.81-92.26.7-35.33,2.32-63.56,5.09-89.4,4.97-46.31,27.21-70.15,74.35-79.72,18.58-3.78,39.96-5.53,67.29-5.53,12.73,0,25.63.36,38.1.7,12.55.35,24.4.68,36.19.68,11.36,0,22.47-.2,33.65-.39,11.56-.2,23.19-.4,34.81-.4,26.17,0,46.02,1.04,64.37,3.37,42.93,7.23,71.54,20.94,81.73,66.9,5.51,24.84,6.05,51.46,6.57,77.21.12,5.76.23,11.46.41,17.1.94,30.79.94,60.97,0,89.69l-.09,2.64c-.27,8.81-.55,17.93-2.33,26.67-5.92,29.06-37.14,31.79-53.93,33.26-48.09,4.21-100.16,6.34-154.77,6.34Z"/><path class="cls-5" d="m524.97,381.4c-.52-25.75-1.06-52.36-6.57-77.21-1.28-5.77-2.85-11.02-4.7-15.82,6.98,42.24,1.94,89.83.09,131.92-1.43,32.43,4.57,100.57-34.45,111.56-40.63,11.45-86.08,8.94-127.98,10.41-66.14,2.32-137.41,9.65-202.93-1.27-47.51-7.91-59.68-55.79-66.09-102.46-.21,20.53-.08,41.24,1.29,61.69,2.12,31.66,21.73,48.3,59.95,50.84,60.11,3.99,117.54,6.02,170.67,6.02s106.68-2.13,154.77-6.34c16.78-1.47,48.01-4.2,53.93-33.26,1.78-8.74,2.06-17.86,2.33-26.67l.09-2.64c.94-28.71.94-58.89,0-89.69-.17-5.63-.28-11.34-.41-17.1Z"/><path class="cls-2" d="m571.36,505.35c-.06-4.28-.11-8.46-.1-12.47.19-40.94-.05-74.67-.76-106.31-.89-39.33-1.8-79.99-5.9-119.74-2.02-19.6-6.06-35.64-16.04-47.86,11.51,52.35,12.36,185.65,11.12,250.53-.47,24.57,1.7,48.44-3.48,72.74-7.23,33.97-43.46,38.88-72.08,41.3-58.88,4.98-118.69.43-177.76,2.79-65.83,2.63-132.1,5.02-197.56-4.18-31.03-4.36-50.99-14.88-59.22-46.53-7.36-28.3-5.1-60.65-5.1-89.59,0-23.13-3.46-94.69-5.15-107.33l-.58,13.27c-2.66,60.8-5.41,123.67-.85,184.43,3.76,50.11,37.12,59.61,69.26,62.29,21.63,1.8,45.08,3.06,73.79,3.96,40.37,1.28,81.6,1.92,122.52,1.92,25.94,0,52.34-.26,78.48-.77,10.65-.21,21.56-.21,32.61-.21,38.43,0,78.17-.01,114.51-8.49,43.39-10.13,42.78-54.28,42.29-89.76Z"/><path class="cls-2" d="m400.35,205.85c-84.82,0-143.57-1.51-215.08,3.42-28.23,1.95-63.21,4.24-84.68,25.41-23.88,23.54-32.83,55.06-37.52,87.46-3.83,26.48,1.22,86.21,2.29,90.38.38,1.5.73,3.01,1.09,4.52.68-11.71,1.55-23.3,2.42-34.55.71-9.25,1.41-18.25,1.95-26.91,3.67-58.2,11.73-111.65,69.15-126.09,32.07-8.07,65.31-9.18,96.44-9.18,8.37,0,16.75.09,25.08.18,8.28.09,16.53.18,24.72.18h2.09c12.67-.03,25.52-.29,38.44-.55,13.76-.28,27.61-.56,41.44-.56,27.71,0,49.77,1.21,69.84,3.89.16.04.86.16,1.02.16.3,0,.6,0,.92.06,37.58,6.22,66.02,16.72,82.31,46.95-8.56-29.31-29.02-64.78-121.92-64.77Z"/><path class="cls-11" d="m461.63,287.04c-25.81-22.76-66.33-24.93-98.46-29.09-49.18-6.38-97.42-2.48-146.41,2.78-25.85,2.77-64.87,7.12-80.92,30.9-17.19,25.47-25.06,69.25-23.9,104.22,1.41,42.39,25.96,58.32,57.59,63.42,70.71,11.41,205.16,6.48,268.47-1.93,24.42-3.25,51.4-12.47,49.67-56.62-.54-13.61,9.39-82.43-26.04-113.67Z"/><path class="cls-12" d="m284.86,107.79c.39.4.92.63,1.48.63l12.74.08c1.11,0,2.02-.87,2.06-1.99.26-7.16.3-14.35.3-21.48-5.61.36-16.91,14.6-17.14,21.26-.02.55.18,1.09.57,1.5Z"/><path class="cls-12" d="m245.94,107.91s9.51.13,9.52.13c1.11,0,2.02-.88,2.06-1.99.21-5.96.26-11.95.28-17.9-5.63.3-16.93,12-17.13,17.68-.02.57.2,1.12.6,1.53.39.39.92.6,1.46.6.02,0,2.23-.05,3.21-.05Z"/><path class="cls-12" d="m211.84,107c.46,0,.91-.15,1.28-.44.48-.38.76-.94.78-1.56.18-5.87.23-11.76.25-17.63-7.09-.83-20.3,5.6-19.03,8.68,2.29,5.48,7.77,9.15,16.31,10.9.13.03.28.04.41.04Z"/><path class="cls-12" d="m218.85,105.98c-.04,1.11.82,2.06,1.94,2.13,2.47.15,4.97.21,7.44.21,1.85,0,3.68-.04,5.46-.08,1.09-.03,1.97-.9,2-1.99.2-5.84.27-11.71.29-17.56-5.65-.06-16.93,11.29-17.14,17.29Z"/><path class="cls-12" d="m262.48,106.04c-.02.55.18,1.09.57,1.49.38.41.91.63,1.46.64,0,0,12.74.18,12.75.18,1.11,0,2.02-.87,2.06-1.99.23-6.57.28-13.17.29-19.73-5.62.44-16.92,13.37-17.13,19.4Z"/><path class="cls-12" d="m394.16,105.57c.38.32.84.48,1.33.48.13,0,.28-.01.42-.04,12.62-2.6,18.22-10.42,18.53-25.71-4.17.36-20.79,16.2-21.01,23.64-.02.62.25,1.23.73,1.63Z"/><path class="cls-12" d="m371.58,105.48c-.02.58.39,1.12.79,1.53.39.38,1.09.6,1.66.6.02,0,3.66-.11,3.66-.11,3.08-.09,6.03-.18,8.81-.35,1.06-.06,1.9-.93,1.93-2,.24-7.76.26-15.57.26-23.27-5.61.26-16.86,15.99-17.11,23.61Z"/><path class="cls-12" d="m306.11,106.43c-.02.55.18,1.1.58,1.5.39.41.92.63,1.48.63h.97l11.77-.06c1.11,0,2.02-.88,2.05-1.99.27-7.49.3-15.02.3-22.49-4.96.18-16.89,15.19-17.14,22.4Z"/><path class="cls-12" d="m349.76,106.01c-.02.57.19,1.12.59,1.52.39.39.92.61,1.47.61.01,0,8.54-.19,12.79-.31,1.09-.03,1.97-.9,2-1.99.26-7.71.28-15.47.27-23.14-5.61.16-16.86,15.72-17.12,23.3Z"/><path class="cls-12" d="m327.93,106.31c-.02.56.19,1.11.58,1.51.39.41.92.62,1.48.62h.01s10.08-.05,12.74-.09c1.1-.01,2-.89,2.03-1.99.27-7.67.3-15.39.29-23.03-5.62.14-16.88,15.5-17.14,22.98Z"/><path class="cls-7" d="m552.61,199.28c-19.08-15.4-45.43-20.65-68.83-24.99-41.43-7.71-87.02-.57-94.05-48.86,11.37-.45,21.81-2.21,27.81-7.04,19.16-15.46,15.36-51.16,8.54-71.78-9.87-29.8-51.26-24.45-74.99-25.28h-85.95c-21.71,0-63.54-5.9-77.71,16.55-11.33,17.94-16.07,52.56-4.06,71.51,7.86,12.38,21.41,14.52,35.41,14.69-7.04,51.87-60.5,43.96-103.86,52.03-25.85,4.8-53.1,13.79-70.65,34.35-13.38,15.67-14.55,37.08-16.57,56.59-4.1,39.73-4.99,79.86-5.89,119.77-.8,35.35-.92,70.72-.76,106.07.12,25.84-3.45,57.49,7.99,81.38,20.33,42.46,71.08,40.58,111.58,42.83,120.66,6.69,244.76,8.29,365.21-2.68,54.89-5,79.08-32.05,81.2-87.63,2.64-69.1.53-138.98-2.69-208-1.85-39.5,2.37-92-31.73-119.49ZM374.37,40.52c4.43.4,8.68,1.02,12.63,2.02-.83,20.84.03,41.69-.63,62.55-3.83.23-7.97.31-12.34.46-.13,0-.26,0-.39,0,.72-21.69-.26-43.37.73-65.04Zm38.08,37.16c.34,18.1-6.26,24.11-16.96,26.31.56-19.4-.14-38.79.45-58.17,9.71,4.97,16.17,14.21,16.51,31.86Zm-47.14-37.73c-1.04,21.93-.03,43.87-.76,65.82-4.25.11-8.49.22-12.73.3.76-22.19-.3-44.37.79-66.54,4.26.13,8.52.24,12.71.41Zm-99.99-.18c4.24-.03,8.49-.02,12.73-.04-1.07,22.18,0,44.37-.78,66.57-4.24-.05-8.48-.12-12.72-.18.76-22.12-.29-44.24.77-66.34Zm21.82-.07c4.25-.01,8.49-.03,12.73-.04-1.08,22.25,0,44.52-.79,66.79-4.24-.02-8.48-.04-12.73-.08.78-22.24-.29-44.46.78-66.67Zm21.83-.07c4.24,0,8.49-.03,12.73-.04-1.09,22.27,0,44.56-.79,66.85-4.24.02-8.48.06-12.73.06.79-22.3-.29-44.6.79-66.88Zm21.82-.06c4.25,0,8.49-.04,12.73-.04-1.09,22.25-.01,44.51-.8,66.78-4.24.06-8.48.06-12.73.09.79-22.29-.3-44.56.79-66.83Zm-74.55.23c-1.06,22.05-.02,44.12-.77,66.19-2.82-.04-5.64-.07-8.46-.12-1.26-.02-2.73,0-4.27.04.75-22.05-.28-44.1.77-66.13,1.62.04,3.19.06,4.6.05,2.71-.02,5.42,0,8.12-.03Zm-21.81-.2c-1.08,22.19-.01,44.38-.78,66.58-4.1.11-8.46.13-12.73-.12.75-21.96-.27-43.91.75-65.85,4.23-.52,8.58-.64,12.76-.61Zm-37.39,55.67c-3.63-8.72-1.38-26.09,0-35.17,1.53-10.04,7.66-15.19,15.45-17.84-.85,20.89.01,41.78-.64,62.69-6.89-1.41-12.55-4.24-14.82-9.68Zm331.58,497.84c-46.58,10.86-99.25,7.73-146.7,8.65-66.95,1.31-133.97.97-200.89-1.15-24.59-.77-49.18-1.92-73.69-3.96-38.45-3.21-64.09-16.57-67.38-60.4-5.14-68.56-.97-139.49,1.89-208.05,1.27-30.45-1.26-69.76,11.31-98.12,15.67-35.4,75.38-38.79,107.46-42.46,44.86-5.15,72.13-18.22,76.58-63.75,1.08,0,2.15,0,3.2.04,35.4.95,70.86.75,106.26.37,6.19-.06,15.16.62,24.77,1.02,8.6,73.53,83.44,57.15,142.47,74.77,35.53,10.6,45.11,32.68,48.66,66.99,4.1,39.73,4.99,79.86,5.89,119.77.79,35.35.92,70.72.76,106.07-.17,37.32,6.22,89.3-40.6,100.23Z"/><path class="cls-7" d="m193,339.01c-14.89,5.82-22.36,16.55-25.8,27.29-1.74,5.42-2.48,10.72-2.52,15.84-1.61.04-3.22-.04-4.83-.28-2.84-.45-5.4-1.68-8.2-2.12-.52-.08-.88.28-.8.8.88,5.61,7.95,9.28,14.37,9.45.06.4.08.81.16,1.21-2.39,1.02-4.84,1.7-7.43,2.22-2.5.49-4.95,0-7.43.42-.44.08-.57.62-.39.96,2.66,5.2,11.11,6.32,17.36,4.12.22.6.48,1.18.72,1.77-1.91,1.5-4.23,2.61-6.41,3.57-2.39,1.04-4.98,1.15-7.32,2.21-.42.18-.38.73-.13,1.02,2.65,3.27,8.48,3.25,12.21,2.36,1.75-.42,3.57-1.17,5.22-2.18,9.44,14.85,27.17,23.61,47.37,19.76,19.17-3.64,35.86-18.54,37.25-38.52.72-10.44-.43-19.1-5.43-29.21-11.36-22.96-37.85-28.54-57.96-20.68Z"/><path class="cls-7" d="m182.14,322.69c5.62-10.74,17.47-14.03,28.87-12.76,9.32,1.03,9.22-13.52,0-14.55-16.25-1.8-33.62,5.04-41.43,19.96-4.35,8.3,8.2,15.65,12.56,7.34Z"/><path class="cls-7" d="m397.43,309.93c11.4-1.26,23.25,2.02,28.87,12.76,4.35,8.31,16.9.96,12.56-7.34-7.81-14.92-25.18-21.76-41.43-19.96-9.22,1.02-9.32,15.58,0,14.55Z"/><path class="cls-7" d="m452.07,393.67c-2.9-.18-6.13-1.11-8.82-2.27.07-.49.19-.95.24-1.45,6.34-.26,13.23-3.88,14.11-9.41.08-.52-.28-.88-.8-.8-2.53.4-4.74,1.69-7.32,2-1.92.23-3.79.33-5.65.33-.17-7.58-1.7-14.55-5.58-22.38-11.36-22.96-37.85-28.54-57.96-20.68-14.89,5.82-22.36,16.55-25.81,27.29-11.51,35.84,16.49,67.87,51.95,61.11,12.44-2.36,23.76-9.52,30.6-19.67,1.34.76,2.69,1.37,3.79,1.77,3.84,1.4,10.48,1.43,13.29-2.04.24-.29.28-.84-.13-1.02-1.92-.87-4.06-.99-6.07-1.66-2.56-.87-4.99-2.29-7.26-3.74,0,0,0,0-.01,0,.3-.71.55-1.44.81-2.17,1.61.48,3.2.8,4.48.96,4.12.52,10.35-1.07,12.39-5.04.18-.34.05-.88-.39-.96-1.95-.33-3.88-.04-5.85-.16Z"/><path class="cls-7" d="m346.87,450.87c-18.15,3.15-68.38,3.83-86.56,0-1.16-.24-1.4,1.5-.56,2.07,7.06,4.75,15.75,8,24.99,9.82,1.29,10.31,6.97,19.94,18.4,20.87,11.92.96,17.93-10.6,19.29-20.87,9.25-1.82,17.93-5.07,25-9.82.84-.57.6-2.27-.56-2.07Z"/><path class="cls-7" d="m525.49,272.22c-17.17-34.48-49.15-44.62-85.19-50.58-.49-.08-.95-.08-1.41-.09-.33-.08-.65-.18-1-.23-48.81-6.43-100.49-2.8-149.58-2.71-49.25.09-100.67-3.22-148.84,8.89-61.26,15.41-67.32,74.3-70.7,127.96-3.44,54.38-12.64,122.79,4.15,175.7,13.94,43.94,87.12,37.25,122.83,38.24,67.46,1.85,135.03,1.68,202.5.33,33.73-.67,112.81,7.49,132.38-28.96,10.18-18.95,10.41-38.27,11.09-59.38,1.19-36.36.36-72.83-1.16-109.15-1.33-31.6-.59-70.96-15.06-100.03Zm-2.18,215.89c-.31,9.59-.46,19.54-2.37,28.97-5.27,25.87-30.95,29.77-52.09,31.62-106.67,9.33-218.37,7.41-325.13.31-32.18-2.14-55.7-14.15-58.03-48.92-2.05-30.77-1.41-61.83-.8-92.64.59-29.59,1.91-59.23,5.07-88.66,4.99-46.48,27.54-68.75,72.71-77.92,45.13-9.16,95.81-4.08,141.54-4.1,43.39-.03,88.97-2.93,132.18,2.57,42.24,7.12,70.05,20.51,79.99,65.3,6.69,30.18,5.99,63.19,6.92,93.92.91,29.83.97,59.72,0,89.55Z"/><path class="cls-9" d="m220.84,366.52c-4.55-13.82-18.58-17.29-27.75-11.65-8.39,5.16-13.63,15.61-7.04,28.54,4.84,9.52,18.68,11.31,26.89,5.04,6.92-5.27,10.61-13.7,7.9-21.93Z"/><path class="cls-9" d="m237.58,397.24c-2.57-7.81-10.48-9.77-15.67-6.58-4.73,2.91-7.69,8.81-3.98,16.1,2.74,5.38,10.55,6.39,15.19,2.86,3.9-2.98,5.99-7.73,4.45-12.38Z"/><path class="cls-9" d="m408.11,366.52c-4.55-13.82-18.57-17.29-27.75-11.65-8.38,5.16-13.62,15.61-7.05,28.54,4.86,9.52,18.68,11.31,26.9,5.04,6.92-5.27,10.61-13.7,7.89-21.93Z"/><path class="cls-9" d="m424.86,397.24c-2.57-7.81-10.49-9.77-15.66-6.58-4.74,2.91-7.7,8.81-3.98,16.1,2.74,5.38,10.55,6.39,15.19,2.86,3.9-2.98,5.99-7.73,4.45-12.38Z"/><path class="cls-4" d="m170.48,439.01c31.53,1.85,23.04,38.79-4.95,33.46-26.06-4.96-24.2-35.18,4.95-33.46Zm267.47,0c-31.53,1.85-23.03,38.79,4.96,33.46,26.06-4.96,24.2-35.18-4.96-33.46Z"/><path class="cls-10" d="m305.01,464.45c-.3,2.95-.67,5.87-1.29,8.69-.03.13-.24.13-.27,0-.6-2.82-.99-5.73-1.29-8.68-3.67,0-7.36-.16-10.99-.58,1.04,5.4,3.98,12.88,12.46,13.57l.88.04c6.45,0,10.18-7.01,11.5-13.79-3.64.48-7.32.7-11,.75Z"/></g></g></g></svg>