<?xml version="1.0" encoding="UTF-8"?><svg xmlns="http://www.w3.org/2000/svg" viewBox="0 0 636.82 685.01"><defs><style>.cls-1{fill:#86e4c7;mix-blend-mode:multiply;}.cls-1,.cls-2,.cls-3,.cls-4,.cls-5,.cls-6,.cls-7,.cls-8,.cls-9,.cls-10,.cls-11{stroke-width:0px;}.cls-12{isolation:isolate;}.cls-2{fill:#50a76e;}.cls-3{fill:#c0ffa8;}.cls-4{fill:#ff7cc7;}.cls-5{fill:#660650;}.cls-6{fill:#fff;}.cls-7{fill:#ec008b;}.cls-8{fill:#ffbfe2;}.cls-9{fill:#f85094;}.cls-10{fill:#00ff8b;}.cls-11{fill:#00eef0;}</style></defs><g class="cls-12"><g id="Layer_2"><g id="Layer_5_copy_4"><path class="cls-1" d="m333.14,685.01c-3.27,0-6.58-.06-9.89-.17-121.06-4.03-225.67-74.01-273.03-182.62C2.9,393.7,15.48,285.04,82.24,213.26c-3.39-6.26-5.39-13.4-5.85-21.19-2.57-43.2,51.4-77.78,68-87.35,34.16-19.7,71.64-29.68,111.37-29.68,8.58,0,17.34.47,26.19,1.4.93-7.25,2.04-15.43,5.25-23.8,7.31-19.02,25.21-30.83,46.72-30.83,3.9,0,7.86.39,11.77,1.17,21.6,4.29,37.58,20.85,41.71,43.22.9,4.88,1.26,9.63,1.54,14.23,3.91-.15,7.83-.23,11.74-.23,53.27,0,102.46,13.73,138.51,38.65,37.5,25.93,51.28,57.38,37.8,86.29-1.02,2.17-2.13,4.26-3.35,6.27,71.56,75.42,83.79,193.46,29.23,300.61-54.33,106.7-157.68,172.98-269.7,172.98h-.02Z"/><path class="cls-6" d="m311.32,663.2c-3.27,0-6.58-.06-9.89-.17-121.06-4.03-225.67-74.01-273.03-182.62C-18.92,371.88-6.34,263.22,60.42,191.44c-3.39-6.26-5.39-13.4-5.85-21.19-2.57-43.2,51.4-77.78,68-87.35,34.16-19.7,71.64-29.68,111.37-29.68,8.58,0,17.34.47,26.19,1.4.93-7.25,2.04-15.43,5.25-23.8,7.31-19.02,25.21-30.83,46.72-30.83,3.9,0,7.86.39,11.77,1.17,21.6,4.29,37.58,20.85,41.7,43.22.9,4.88,1.26,9.63,1.54,14.23,3.91-.15,7.83-.23,11.74-.23,53.27,0,102.46,13.72,138.51,38.65,37.5,25.93,51.28,57.38,37.8,86.29-1.02,2.17-2.13,4.26-3.34,6.27,71.55,75.42,83.79,193.46,29.23,300.61-54.33,106.7-157.68,172.98-269.7,172.98h-.02Z"/><path class="cls-10" d="m384.4,254.09c-14.34,0-33.32-17.31-39.83-26.14-12.95-17.56-21.78-38.3-29.71-58.03-.8-1.97-2.2-3.41-4.07-4.17-1.43-.75-2.78-1.09-4.08-1.09-1.18,0-3.35.32-4.6,2.46-1.31,1.53-1.7,2.94-1.41,4.56.04.25.04.51,0,.76-5.95,30.49-28,62.12-53.63,76.92-4.3,2.48-8.18,3.74-11.53,3.74-4.18,0-7.57-1.86-10.06-5.54-12.12-17.89,1.26-75.87,5.22-85.81,1.65-4.12-.83-6.21-2.46-7.08-1.21-1.01-2.54-1.87-4.28-1.87-1.17,0-2.37.39-3.57,1.18-10.48,6.86-74.29,26.66-106.73,26.66-10.21,0-16.75-1.83-19.99-5.6-1.85-2.16-2.56-4.86-2.08-8.01,3.52-23.4,33.84-43.35,56.34-56.32,24.32-14.02,52.56-21.12,83.95-21.12,15.31,0,31.28,1.72,47.46,5.11.5.1.99.15,1.5.15.39,0,.77-.03,1.14-.08,1.72-.1,3.88-.73,5.45-3.3,5.81-9.53,7.55-20.18,9.08-32.11,1.35-10.56,2.88-22.52,15.97-22.52,1.66,0,3.51.2,5.5.6,11.43,2.27,12.42,15.84,13.08,24.82l.15,2.04c.83,10.11,1.58,19.37,5.35,28.12.33,1.63,1.09,4.36,4.14,4.93l.39,2.18.41-2.03c.21.03.48.05.76.05.5,0,1.02-.06,1.53-.19,10.6-1.35,21.09-2.01,31.41-2.01,26.64,0,53,4.24,80.58,12.95,5.56,1.76,54.61,17.86,65.31,42.21,2.88,6.57,2.81,13.21-.23,19.72-4.11,8.82-15.07,13.3-32.57,13.3-14.92,0-30.76-3.23-37.53-4.61-18.42-3.76-44.23-12.31-62.66-31.73-1.35-1.42-2.87-2.15-4.52-2.15-1.53,0-3.11.63-4.46,1.78-1.79,1.2-2.88,2.7-3.2,4.25-.3,1.48.08,3.02,1.11,4.56,13.79,20.51,34.03,62.11,22.39,87.92-3.12,6.91-8.31,10.56-15.01,10.56Z"/><path class="cls-4" d="m303.49,626.44c-96.66,0-184.08-54.28-233.84-145.2-46.09-84.22-53.69-209.09,38.53-284.24.41-.39,1.41-1.04,2.01-1.04.03,0,.05,0,.07,0,2.93.27,5.97.4,9.11.4,29.01,0,65.89-11.09,88.66-20.58.26-.11.53-.16.8-.16.48,0,.97.17,1.35.5.59.51.84,1.31.65,2.07-3.34,13.25-13,58.05,2.99,78.59,5.21,6.68,12.8,10.07,22.57,10.07,18.76-.28,34.97-16.72,47.07-31.01,10.32-12.18,18.69-25.48,24.23-38.46.32-.75,1.05-1.24,1.87-1.25,0,0,.02,0,.03,0,.8,0,1.53.47,1.88,1.2,21.46,46.69,44.51,70.35,68.51,70.35,7.07,0,14.37-2.07,21.7-6.16,27.57-15.39,12.32-61.36,4.47-80.42-.33-.8-.13-1.72.51-2.3.38-.36.89-.54,1.39-.54.32,0,.65.08.94.23,25.29,13.01,53.88,20.78,76.49,20.78,7,0,13.48-.73,19.25-2.17.16-.04.33-.06.5-.06.47,0,.94.16,1.31.47,91.49,75.13,81.86,191.34,42.33,275.05-43.99,93.18-132.79,150.66-237.52,153.76-2.61.08-5.23.12-7.83.12Z"/><path class="cls-9" d="m536.93,228.42c27.63,85.56,22.99,156.17-.46,211.98-47.67,113.45-146.05,169.95-263.19,157.91-89.47-9.2-167.77-62.98-200.52-146.99-20.62-52.92-35.67-120.37-17.37-187.04-32.81,70.2-19.82,154.68,14.25,216.96,49.77,90.93,137.18,145.21,233.84,145.2,2.59,0,5.21-.04,7.83-.12,104.73-3.1,193.53-60.58,237.52-153.76,34.45-72.93,46.16-170.53-11.9-244.14Z"/><path class="cls-2" d="m399.41,243.53c11.64-25.81-8.6-67.41-22.39-87.92-1.04-1.54-1.41-3.08-1.11-4.56.31-1.56,1.41-3.05,3.2-4.25,1.35-1.14,2.93-1.78,4.46-1.78,1.65,0,3.17.72,4.52,2.15,18.42,19.41,44.24,27.97,62.66,31.73,6.77,1.38,22.61,4.61,37.53,4.61,17.5,0,28.46-4.47,32.57-13.3,1.36-2.9,2.02-5.83,2.2-8.76-34.13,30.13-101.1,1.34-125.04-18.05-26.5-21.47-33.86-.94-27.58,20.6,4.69,16.07,19.03,37.21,22.43,53.64,5.89,28.48-9.47,31.78-25.16,20.91-13.59-9.42-27.02-30.41-32.07-43.7-2.56-6.73-8.56-23.9-17.33-35.7-12.41-16.72-30-9.09-31.01,8.31-2.3,39.72-20.92,49.88-27.94,58.46-24.39,29.86-33.16-.54-23.77-39.5,2.61-10.83,13.1-27.07,6.01-37.01-12.07-16.92-38.98-3.39-60.25,4.89-6.8,2.65-13.24,5.02-19.34,7.13-32.98,11.39-55.89,14.91-69.81,11.09.37.9.83,1.75,1.48,2.52,3.25,3.77,9.79,5.6,19.99,5.6,32.44,0,96.24-19.8,106.73-26.66,1.19-.78,2.39-1.18,3.57-1.18,1.75,0,3.08.87,4.28,1.87,1.63.87,4.1,2.96,2.46,7.08-3.96,9.94-17.34,67.93-5.22,85.81,2.49,3.68,5.88,5.54,10.06,5.54,3.35,0,7.24-1.26,11.53-3.74,25.63-14.8,47.68-46.43,53.63-76.92.05-.25.05-.51,0-.76-.3-1.62.09-3.04,1.41-4.56,1.24-2.14,3.42-2.46,4.6-2.46,1.3,0,2.64.35,4.08,1.09,1.87.76,3.27,2.2,4.07,4.17,7.93,19.73,16.76,40.47,29.71,58.03,6.51,8.83,25.49,26.14,39.83,26.14,6.7,0,11.89-3.65,15.01-10.56Z"/><path class="cls-3" d="m232.99,112.14c-31.51-10-78.39,11.37-102.14,31.96-3.78,3.28.38,8.28,4.42,7.6,17.66-3,34.95-9.75,52.14-14.8,16.02-4.7,32.53-6.31,46.78-15.52,3.72-2.4,3.05-7.89-1.21-9.24Z"/><path class="cls-3" d="m270.33,118.36c-6.31,10.2-8.32,22.08-11.14,33.58-3.22,13.07-8.5,26.69-8.56,40.23-.02,4.41,4.94,5.71,7.96,3.3,18.84-15.07,31.25-52.88,22.24-75.73-1.78-4.51-7.69-5.9-10.49-1.37Z"/><path class="cls-3" d="m485.16,147.14c-23.17-25.15-66.59-36.71-100.18-34.06-4.42.35-6.31,5.98-2.29,8.47,27.39,16.96,66.05,36.16,98.66,34.81,4.77-.2,7.06-5.7,3.81-9.22Z"/><path class="cls-3" d="m308.61,112.58c-3.18-.01-5.76,3.84-3.83,6.67,9.39,13.77,20.33,25.93,28.95,40.46,9.58,16.15,16.04,33.9,27.24,49.09,2.84,3.86,10.33,3.14,9.95-2.7-1.34-20.34-10.81-38.58-20.63-56.07-8.08-14.38-22.88-37.39-41.68-37.45Z"/><path class="cls-3" d="m251.92,201.86c-3.2-.88-5.97.63-7.8,3.18-3,4.17-3.71,11.16,1.89,13.38,6.33,2.51,10.55-4.78,10.99-9.89.26-3.03-2.3-5.9-5.08-6.67Z"/><path class="cls-3" d="m256.24,116.5c4.94-3.96.79-12.43-5.06-12.21-4.25.16-8.91,1.73-10.85,5.84-1.51,3.21-.62,6.01,2.13,8.11,4.37,3.33,9.97,1.31,13.78-1.74Z"/><path class="cls-8" d="m519.53,280.83c-5.77-14.37-19.64-37.69-38.62-34.61-31.66,5.14-43.59,31.21-74.72,42.31-31.42,11.21-56.07-17.63-88.12-13.25-11.29,1.54-22.87,4.2-33.47,9.14-42.65,19.87-74.6,7.04-83.44-6.89-39.32-62-83.57-20.33-99.19,13.16-16.04,34.35-13.93,74.73-10.33,100.26,18.43,130.77,156.8,206.07,278.19,172.73,115.44-31.7,198.13-162.12,149.7-282.85Z"/><path class="cls-9" d="m435.36,525.77c.49,3.29,2.96,6.36,4.57,9.23,4.22,7.54,15.36.89,11.5-6.72-1.66-3.27-4.45-7.24-7.88-8.8-4.7-2.13-8.93,1.29-8.18,6.29h0Z"/><path class="cls-9" d="m520.55,395.38c2.69,3.09,6.58,3.49,10.43,3.83,9.03.8,9.13-14.7,0-14.08-3.33.23-6.26.38-9.34,1.77-3.37,1.53-3.17,6.1-1.09,8.48h0Z"/><path class="cls-9" d="m487.41,299.42c4.46,5.21,11.84,1.5,15.01-3.03,1.79-2.56,1-6.41-1.09-8.51-2.44-2.44-5.56-2.36-8.51-1.1-4.29,1.84-9.23,8.17-5.4,12.63h0Z"/><path class="cls-9" d="m142.92,280.83c1.02-4.35-1.09-7.24-4.41-9.78-3.3-2.53-8.52-.51-10.42,2.73-2.54,4.33-.13,9.77,4.55,11.18,3.69,1.12,9.23.4,10.28-4.13h0Z"/><path class="cls-9" d="m96.85,381.99c-3.66-2.12-7.24-1.86-10.96-.05-6.05,2.95-2.95,12.3,3.32,12.27,3.48-.01,6.21-1.21,8.76-3.54,2.64-2.42,1.86-6.95-1.12-8.68h0Z"/><path class="cls-9" d="m163.63,508.25c-5.86-2.66-13.88,2.82-13.22,9.38.48,4.72,4.77,7.4,9.15,5.25,3.49-1.71,10.11-11.88,4.08-14.63h0Z"/><path class="cls-9" d="m302.09,284.29c.55-4.71.18-9.04-1.73-13.46-3.06-7.02-14.99-1.96-12.37,5.21,1.55,4.26,2.23,8.48,5.57,11.78,3.37,3.33,8.05.6,8.54-3.54h0Z"/><path class="cls-9" d="m248.48,506.43c-5.46-3.06-10.2,2.95-13.02,6.77-4.64,6.31,5.99,14.51,10.87,8.38,2.86-3.59,8.42-11.64,2.15-15.15h0Z"/><path class="cls-9" d="m326.75,563.96c-2.02,2.78-1.26,5.81-2,8.94-2,8.56,11.14,10.48,11.92,1.61.4-4.59-.06-9.3-4.1-12.08-2.05-1.41-4.54-.24-5.83,1.53h0Z"/><path class="cls-9" d="m310.03,365.19c5.56-1.75,11.44-10.18,6.31-15.31-5.96-5.97-13.67,4.29-13.08,10.16.33,3.3,3.17,6.28,6.76,5.15h0Z"/><path class="cls-9" d="m476.77,253.25c2.05-3.68.76-7.29.55-11.23-.48-9.02-13.74-7.38-12.27,1.66.71,4.38,1.82,8.46,5.49,11.2,1.96,1.47,5.11.36,6.22-1.63h0Z"/><path class="cls-5" d="m47.29,472.17c45.13,103.52,143.05,166.54,254.82,170.26,113.49,3.78,210.16-62.59,260.55-161.57,48.95-96.12,44.37-216.62-39.3-290.04,5.44-4.04,9.92-9.37,13.1-16.2,11.7-25.08-12.63-48.03-30.84-60.61-43.67-30.2-104.49-39-156.53-33.41-2.94-10.22-1.92-22.26-3.8-32.46-2.54-13.73-11.63-24-25.45-26.75-14.63-2.9-29.64,2.27-35.23,16.82-4.87,12.7-3.4,26.99-8.39,39.52-50.13-9.02-98.57-2.79-143.38,23.04-20.33,11.72-59.36,40.61-57.71,68.26.66,11.14,5.87,18.53,13.96,23.13C7.97,264.58,5.48,376.25,47.29,472.17Zm46.33-304.85c3.59-23.86,37.06-44.31,55.33-54.84,39.56-22.8,86.22-24.94,129.96-15.78,1.19.25,2.29.24,3.34.1,2.61-.14,5.17-1.39,6.92-4.28,6.17-10.13,7.88-21.35,9.36-32.92,1.63-12.8,3.32-23.29,19.02-20.17,10.71,2.13,10.88,16.47,11.58,25,.81,9.9,1.57,19.61,5.5,28.77.5,3.01,2.4,5.53,5.66,6.14.26.07.51.11.77.15.02,0,.05,0,.07,0,1.03.14,2.08.08,3.12-.17,37.98-4.78,74.35-.64,110.87,10.91,18.7,5.91,77.91,28.9,63.83,59.09-8.97,19.23-53.17,10.53-67.82,7.54-22.57-4.61-45.53-14.23-61.57-31.13-3.79-3.99-8.59-3.26-11.82-.52-3.62,2.38-5.6,6.87-2.46,11.53,13.8,20.52,33.41,61.13,22.22,85.92-10.94,24.24-43.25-5.04-51.3-15.96-12.75-17.29-21.49-37.76-29.46-57.58-1.09-2.7-3-4.42-5.21-5.31-3.93-2.08-8.95-1.69-11.23,2.25-1.37,1.52-2.09,3.54-1.66,5.96-5.72,29.31-26.96,60.7-52.63,75.53-38.9,22.48-19.01-71.08-13.43-85.06,1.8-4.51-.18-7.93-3.4-9.66-2.53-2.27-6.19-3.08-9.96-.61-13.25,8.68-130.01,44.17-125.63,15.08Zm115.18,10.37c-8.96,35.48-13.57,91.87,28.27,91.22,19.33-.3,36.48-18.2,47.93-31.73,9.67-11.42,18.48-24.75,24.55-38.98,18.06,39.28,49.35,89.54,93.08,65.13,25.48-14.22,17.86-52.68,5.38-83,29.05,14.95,68.59,25.91,97.18,18.78,84.21,69.15,85.69,179.57,41.78,272.57-44.14,93.48-133.16,149.54-235.72,152.58-103.39,3.06-191.16-55.16-239.79-144.02-50.77-92.76-47.88-211.65,38.02-281.65.23-.19.38-.39.59-.59,29.99,2.82,72.36-9.32,98.75-20.32Z"/><path class="cls-5" d="m409.22,439.82c12.44-2.37,23.76-9.52,30.61-19.67,1.34.76,2.68,1.36,3.78,1.77,3.84,1.4,10.49,1.44,13.3-2.04.24-.29.28-.84-.13-1.03-1.92-.87-4.06-.98-6.07-1.66-2.56-.86-4.99-2.29-7.26-3.74h0c.3-.72.55-1.45.8-2.17,1.61.48,3.2.8,4.48.96,4.12.52,10.36-1.07,12.39-5.04.18-.34.05-.88-.39-.96-1.95-.33-3.88-.05-5.85-.17-2.9-.18-6.13-1.11-8.82-2.27.07-.49.2-.95.24-1.45,6.35-.26,13.23-3.88,14.11-9.4.08-.52-.29-.89-.8-.8-2.53.4-4.74,1.69-7.32,2-1.93.23-3.79.34-5.65.33-.18-7.58-1.71-14.56-5.58-22.38-11.36-22.95-37.85-28.55-57.95-20.68-14.89,5.82-22.36,16.56-25.81,27.29-11.51,35.84,16.49,67.87,51.95,61.11Z"/><path class="cls-5" d="m184.95,335.09c5.62-10.73,17.47-14.03,28.87-12.76,9.32,1.03,9.22-13.53,0-14.55-16.25-1.8-33.62,5.04-41.43,19.96-4.35,8.3,8.2,15.65,12.56,7.34Z"/><path class="cls-5" d="m400.25,322.33c11.4-1.26,23.25,2.03,28.87,12.76,4.35,8.31,16.9.96,12.56-7.34-7.81-14.93-25.18-21.76-41.43-19.96-9.22,1.02-9.32,15.58,0,14.55Z"/><path class="cls-5" d="m306.2,500.52c24.91,2.02,35.99-25.48,36.43-45.77.08-3.96-3.37-7.27-7.27-7.27h-56.65c-1.79,0-3.12.64-4.23,1.49-1.79,1.13-3.1,2.99-3.04,5.78.48,21.59,10.95,43.84,34.77,45.77Z"/><path class="cls-5" d="m176.32,362.89c9.37,8.14,21.34,13.62,32.46,18.99,5.98,2.88,11.74,6.13,17.46,9.44-3.42.08-6.85.24-10.2.42-11.02.6-21.11,1.72-30.33,8.11-.5.34-.41,1.04.16,1.25,8.78,3.12,16.73,2.75,25.94,2.16,6.04-.38,12.19-.26,18.32-.31-4.74,2.89-9.47,5.81-14.32,8.45-10.7,5.83-23.03,10.85-31.92,19.3-.31.3-.07.81.34.82,19.24.48,42.49-11.1,59.79-22.94,7.75-5.32,9.26-14.34,1.3-19.91-19.44-13.59-46.5-25.78-68.66-26.6-.4-.01-.66.55-.34.82Z"/><path class="cls-6" d="m410.92,378.92c-4.55-13.82-18.57-17.29-27.75-11.64-8.38,5.16-13.62,15.61-7.05,28.53,4.86,9.52,18.68,11.31,26.9,5.04,6.92-5.26,10.61-13.7,7.89-21.93Z"/><path class="cls-6" d="m427.67,409.64c-2.57-7.81-10.49-9.77-15.66-6.58-4.74,2.92-7.7,8.81-3.98,16.1,2.74,5.38,10.55,6.39,15.19,2.85,3.9-2.98,5.99-7.74,4.45-12.38Z"/><path class="cls-7" d="m307.08,474.96c-.7-.06-1.38-.09-2.07-.09-7.64,0-13.48,3.77-17.77,9.29,4.56,5.56,10.9,9.5,19.46,10.19.7.06,1.38.09,2.06.09,7.65,0,13.48-3.77,17.77-9.29-4.56-5.56-10.89-9.5-19.45-10.19Z"/><path class="cls-11" d="m173.29,451.41c31.53,1.86,23.04,38.79-4.95,33.46-26.06-4.96-24.2-35.18,4.95-33.46Zm267.47,0c-31.53,1.86-23.03,38.79,4.96,33.46,26.06-4.96,24.2-35.18-4.96-33.46Z"/></g></g></g></svg>