<?xml version="1.0" encoding="UTF-8"?><svg xmlns="http://www.w3.org/2000/svg" viewBox="0 0 632.98 644.54"><defs><style>.cls-1{fill:#86e4c7;mix-blend-mode:multiply;}.cls-1,.cls-2,.cls-3,.cls-4,.cls-5,.cls-6,.cls-7,.cls-8,.cls-9,.cls-10,.cls-11,.cls-12{stroke-width:0px;}.cls-13{isolation:isolate;}.cls-2{fill:#dae638;}.cls-3{fill:#a9f7ff;}.cls-4{fill:#65b3bc;}.cls-5{fill:#660650;}.cls-6{fill:#fff;}.cls-7{fill:#fef49c;}.cls-8{fill:#ffe4df;}.cls-9{fill:#f07493;}.cls-10{fill:#ffa3bc;}.cls-11{fill:#f6b279;}.cls-12{fill:#67d8eb;}</style></defs><g class="cls-13"><g id="Layer_2"><g id="Layer_5_copy_4"><path class="cls-1" d="m337.09,644.54c-17.55,0-35.9-.19-56.1-.58-4.6-.09-9.31-.12-14.09-.12,0,0-22.8.1-27.56.1-30.32,0-65.27-.86-96.33-11.15-57.17-18.95-69.64-85.92-78.75-134.82-1.1-5.93-2.16-11.6-3.25-16.87-10.13-49.14-18.29-90.22-25.67-129.26-1.13-5.99-2.73-12.69-4.43-19.79-6.42-26.87-14.41-60.31-4.21-88.9,2.41-6.75,5.36-12.98,8.8-18.6-9.33-69.9,48.8-130.11,111.15-143.35,29.73-6.31,59.02-6.84,88.91-6.84h13.08c7.2.01,14.42-.01,21.66-.15l2.02-.04c40.51-.76,67.71-3.16,74.68-28.21.54-3.07,1.58-6,3.1-8.74.16-.3.36-.65.54-.96,5.05-8.93,14.55-14.44,24.99-14.44,1.57,0,3.15.12,4.72.37,11.7,1.44,21.04,9.31,24.51,20.73,7.92,26.1,48.05,34.76,86.85,43.14,20.5,4.43,39.87,8.61,55.7,15.65,51.47,22.89,77,61.1,72.71,108.28,19.69,30.02,13.48,80.36,3.45,130.9l-1.22,6.21c-3.41,17.95-6.56,36.79-9.6,55-8.3,49.7-16.87,101.1-32.84,149.02-19.28,57.84-53.7,84.48-115.08,89.09-38.77,2.91-80.55,4.33-127.72,4.33Z"/><path class="cls-6" d="m315.27,622.73c-17.55,0-35.9-.19-56.1-.58-4.6-.09-9.31-.12-14.09-.12,0,0-22.8.1-27.56.1-30.32,0-65.27-.86-96.34-11.15-57.17-18.95-69.64-85.92-78.75-134.82-1.1-5.93-2.16-11.6-3.25-16.87-10.13-49.14-18.29-90.22-25.67-129.26-1.13-5.99-2.73-12.69-4.43-19.79-6.42-26.87-14.41-60.31-4.21-88.9,2.41-6.75,5.35-12.98,8.8-18.6C4.34,132.83,62.47,72.62,124.82,59.38c29.73-6.31,59.02-6.84,88.91-6.84h13.08c7.2.01,14.42-.01,21.66-.15l2.02-.04c40.51-.76,67.71-3.16,74.68-28.21.54-3.07,1.58-6,3.1-8.74.16-.3.36-.65.54-.96,5.05-8.93,14.55-14.44,24.99-14.44,1.57,0,3.15.12,4.72.37,11.7,1.44,21.04,9.31,24.51,20.73,7.92,26.1,48.05,34.76,86.85,43.14,20.5,4.43,39.87,8.61,55.7,15.65,51.47,22.89,77,61.1,72.71,108.28,19.69,30.02,13.48,80.36,3.45,130.9l-1.22,6.21c-3.41,17.95-6.56,36.79-9.59,55-8.3,49.7-16.87,101.1-32.84,149.02-19.28,57.84-53.7,84.48-115.08,89.09-38.77,2.91-80.55,4.33-127.72,4.33Z"/><path class="cls-7" d="m302.19,585.82c-48.35,0-88.09-1.17-125.06-3.69-14.58-.99-27.71-2.05-40.66-4.94-15.31-3.42-28.03-15.61-37.81-36.24-.4-.86-.18-1.87.55-2.48.38-.31.85-.47,1.31-.47.43,0,.86.14,1.22.4,33.92,24.94,89.14,27.83,127.74,27.83,18.64,0,37.05-.77,53.28-1.46,12.06-.51,23.44-.99,33.19-1.08l5.01-.02c5.86,0,12.27.07,19.07.16,7.72.09,15.97.19,24.55.19,52.03,0,116.12-3.81,150.22-33.48.39-.34.87-.51,1.35-.51.42,0,.84.13,1.2.38.78.55,1.07,1.57.71,2.45-9.98,24.71-23.9,39.61-41.35,44.29-11,2.95-22.71,3.74-34.03,4.5l-6.69.47c-43.9,3.3-88.02,3.63-129.44,3.69h-4.37Z"/><path class="cls-10" d="m229.62,560.86c-45.37,0-109.07-4.04-138.27-39.02-.17-.21-.3-.44-.38-.7-1.57-4.94-2.9-9.73-3.99-14.12-8.33-33.32-14.95-67.72-21.34-100.97-2.04-10.61-4.08-21.21-6.17-31.78-6.16-31.14-12.14-62.53-17.78-93.31-3.11-17-5.75-31.4-1.87-48.32,2.16-7.83,6.09-14.65,11.72-20.34,4.34-4.82,8.86-7.29,13.35-7.29,12.37,0,20.8,18.09,25.7,33.27,1.42,4.4,5.16,4.88,6.71,4.88.35,0,1.12-.07,1.21-.07.23,0,.64,0,.7,0,1.72,0,4.7-.62,5.33-4.81.58-3.9,6.26-38.22,25.88-40.76,1.09-.14,2.14-.21,3.15-.21,18.72,0,24.55,23.21,26.47,30.83,1.12,4.44,4.68,4.91,6.16,4.91,3.03,0,6.67-1.9,7.45-5.43.46-1.2.66-1.96.72-2.75.84-10.98,5.11-30.05,24.18-34.35,1.54-.35,3.08-.53,4.59-.53,13.32,0,22.86,13.56,26.41,26.99,1.17,4.42,4.77,4.89,6.26,4.89.43,0,.87-.04,1.3-.1.95.04,1.3.06,1.64.06,1.71,0,4.67-.62,5.27-4.81,3.16-22.05,12.98-34.45,27.64-34.92.02,0,.71-.01.74-.01,20,0,26.05,26.01,27.44,33.98l-1.86,1.28,2.03-.33c.68,4.22,3.69,4.85,5.42,4.85.3,0,.61-.02.91-.06.8.04,1.11.06,1.41.06,1.73,0,4.74-.63,5.41-4.84,2-12.62,8.1-34.15,26.47-36.59,1.03-.13,2.03-.2,3-.2,16.51,0,24.44,18.55,26.21,34.44.34,3.1,2.17,4.78,3.64,5.64,1.8,1.13,3.37,1.58,4.91,1.58s5.07-.48,6.22-4.91c2.94-11.31,10.73-30.3,29.9-30.34,17.84,0,24.76,20.64,25.28,38.31.04,1.17.3,2.21.81,3.19,1.09,2.94,4.12,4.88,7.32,4.88,1.48,0,5.06-.48,6.21-4.92,5.43-21.16,14.75-31.89,27.69-31.89,16.45.2,25.04,21.48,27.47,39.64.04.32.13.6.21.89.38,4.22,4.02,6.38,7.38,6.38,1.52,0,2.93-.42,4.07-1.21,1.3-.81,1.98-1.73,2.29-2.92l2.11.25-1.8-1.03c2.76-8.73,13.01-37.26,28.67-37.26,5.42,0,10.75,3.41,15.86,10.12,13.68,17.99,8.65,46.06,5.32,64.64-5.92,33.06-12.38,66.24-17.98,94.74l-3.32,16.98c-7.67,39.27-15.6,79.87-24.91,119.46l-.57,2.31c-25.78,44.49-100.3,50.13-162.36,50.13-10.74,0-21.01-.17-30.43-.33-7.97-.13-15.33-.25-21.86-.25h-3.99c-8.51.09-18.34.47-29.05.87-14.67.56-31.3,1.19-48.28,1.19Z"/><path class="cls-12" d="m488.88,180.7c.09.67-.15,1.35-.65,1.81-.39.35-.88.54-1.4.54-.15,0-.31-.02-.46-.05l-.78-2.33-.39,2.02c-2.07-.4-4.12-.6-6.11-.6-13.39,0-22.67,9.14-28.09,16.81-.39.55-1.02.87-1.68.87-.07,0-.15,0-.23-.01-.75-.09-1.39-.57-1.68-1.26-4.19-10.16-12.74-22.82-29.68-25.43-1.94-.3-3.82-.44-5.65-.44-15.65,0-26.06,10.16-32.04,18.69-.39.55-1.02.88-1.69.88-.06,0-.12,0-.18-.01-.74-.06-1.38-.52-1.69-1.19-6.83-14.8-17.78-23.1-32.52-24.69-1.18-.12-2.34-.19-3.47-.19-17.05,0-27.54,14.01-32.27,22.35-.36.64-1.03,1.03-1.75,1.04-.01,0-.02,0-.04,0-.71,0-1.38-.37-1.75-.98-4.02-6.51-9.07-11.6-14.99-15.11-.84-.5-1.21-1.52-.9-2.44,5.96-17.37,20.48-30.14,34.53-42.49,6.24-5.48,12.13-10.66,17.24-16.17,11.63-12.53,18.05-26.96,19.1-42.89.06-.93.75-1.71,1.67-1.89.13-.02.26-.04.39-.04.78,0,1.51.45,1.86,1.17,7.08,14.76,19.49,27.04,37.92,37.52,7.57,4.31,15.92,8.22,24,12.01,28.74,13.47,58.45,27.4,63.38,62.49Zm-170.22-56.04c16.92-15.54,34.43-31.6,36.11-56.56.07-.99-.58-1.88-1.53-2.13-.17-.04-.35-.07-.52-.07-.78,0-1.51.44-1.86,1.18-11.36,23.86-37.27,36.39-57,42.71-13.98,4.47-29.42,7.19-45.76,10.07-44.91,7.9-91.35,16.08-108.53,62.37-.2.55-.17,1.15.1,1.67.27.52.74.9,1.3,1.04,9.33,2.46,16.62,7.53,22.28,15.52.39.55,1.02.87,1.68.87.06,0,.11,0,.17,0,.72-.06,1.37-.5,1.68-1.16,4.87-10.11,14.4-22.43,32.15-23.72.99-.07,1.97-.11,2.94-.11,15.59,0,25.68,8.97,31.4,16.5.39.52,1,.82,1.64.82.07,0,.13,0,.2-.01.71-.07,1.34-.51,1.65-1.15,4.44-9.13,14.65-24.44,33.2-24.44.54,0,1.08.01,1.63.04,3.43.17,6.75.77,10.15,1.83.21.06.41.1.62.1.86,0,1.66-.54,1.95-1.4,6.2-18.11,20.5-31.25,34.34-43.95Zm138.07-27.97c-31.2-8.11-63.47-16.51-85.12-32.67-.37-.27-.8-.41-1.23-.41-.47,0-.95.16-1.33.49-.74.62-.94,1.66-.51,2.51,11.78,23.05,36.39,35.51,60.19,47.56,32.06,16.23,62.33,31.56,65.54,70.51.06.7.47,1.32,1.09,1.65,8.37,4.47,15.06,12.35,19.9,23.44.31.72,1.01,1.2,1.8,1.24.03,0,.06,0,.09,0,.75,0,1.45-.41,1.81-1.07,7.46-13.62,16.43-20.96,27.43-22.43,2.27-.3,4.41-.44,6.45-.44,2.22,0,4.42.17,6.55.51.11.02.22.03.33.03.44,0,.88-.15,1.24-.41.45-.34.74-.84.81-1.39,7.59-59.82-49.66-74.71-105.02-89.11Zm-223.83,21.18c34.96-5.29,93.48-14.14,112.41-50.09.47-.88.23-1.98-.56-2.59-.37-.29-.82-.43-1.26-.43-.5,0-1,.18-1.39.54-16.84,15.36-42.8,22.86-81.72,23.6-2.67.05-5.35.07-8.05.07-8.96,0-18.08-.25-27.26-.49-9.36-.25-18.78-.51-28.18-.51-17.91,0-41.32.81-63.52,7.13-44.37,12.62-89.48,49.22-83.67,99.76.07.64.44,1.2.99,1.53.32.2.69.29,1.06.29.26,0,.52-.05.76-.15,3.32-1.31,6.78-1.98,10.28-1.98,11.14,0,22.4,6.87,30.91,18.84.39.55,1.02.87,1.68.87.07,0,.14,0,.21-.01.74-.07,1.38-.54,1.68-1.23,3.86-8.88,14.89-29.56,33.77-29.56,0,0,1.37.04,1.4.04.87,0,1.65-.55,1.94-1.37,12.69-35.59,43.99-56.01,98.52-64.27Z"/><path class="cls-3" d="m109.48,118.75c34.48-23.07,82.49-18.76,121.84-22.48,9.69-.92,22.49-3.5,35.96-7.67-2.3.1-4.5.25-6.9.29-2.67.05-5.35.07-8.05.07-8.96,0-18.08-.25-27.26-.49-9.36-.25-18.78-.51-28.18-.51-17.91,0-41.32.81-63.52,7.13-44.37,12.62-89.48,49.22-83.67,99.76.07.64.44,1.2.99,1.53.32.2.69.29,1.06.29.26,0,.52-.05.76-.15,2.23-.88,4.54-1.36,6.86-1.65,8.42-30.21,23.44-58.29,50.11-76.14Z"/><path class="cls-11" d="m516.17,530.05c-.48,0-.97.17-1.35.51-34.1,29.67-98.19,33.48-150.22,33.48-8.58,0-16.83-.1-24.55-.19-6.81-.08-13.21-.16-19.07-.16l-5.01.02c-9.75.09-21.14.57-33.19,1.08-16.24.68-34.64,1.46-53.28,1.46-38.59,0-93.82-2.88-127.74-27.83-.37-.27-.79-.4-1.22-.4-.46,0-.93.16-1.31.47-.73.6-.96,1.62-.55,2.48,1.23,2.58,2.49,5.03,3.81,7.34,16.27,11.44,35.55,18.54,57.18,20.66,53.17,5.23,108.08,1.52,161.53,3.35,55.8,1.91,117.1,5.53,170.09-14.85,6.05-2.33,12.37-5.07,18.72-8.14,2.93-4.89,5.63-10.36,8.09-16.44.36-.88.06-1.9-.71-2.45-.36-.26-.78-.38-1.2-.38Z"/><path class="cls-9" d="m573.26,223.33c-1.31,49.18-21.23,102.72-30.43,150.35-8.87,45.94-14.29,89.33-38.74,130.53-25.73,43.36-101.2,37.55-144.35,40.19-73.63,4.5-175.42,12.21-240.06-29.79-37.76-24.53-47.24-82.43-57.39-125.74,1.11,5.73,2.23,11.45,3.34,17.18,6.4,33.26,13.01,67.65,21.34,100.97,1.09,4.39,2.42,9.19,3.99,14.12.08.26.21.49.38.7,29.21,34.98,92.9,39.02,138.27,39.02,16.98,0,33.61-.63,48.28-1.19,10.71-.4,20.54-.78,29.05-.86h3.99c6.53-.01,13.9.11,21.86.24,9.42.16,19.69.33,30.43.33,62.06,0,136.58-5.64,162.36-50.13l.57-2.31c9.31-39.58,17.24-80.19,24.91-119.46l3.32-16.98c5.59-28.51,12.05-61.69,17.98-94.74,2.65-14.76,6.33-35.51.88-52.44Z"/><path class="cls-8" d="m513,304.06c-29.85-51.68-114.88-49.46-170-50.03-124.16-1.28-240.06-2.11-256.05,66.95-8.71,37.59,8.38,86.48,29.24,107.46,41.3,41.56,121.59,39.5,176.63,42.07,56.74,2.65,134.62-2.22,182-37.36,34.08-25.28,58.54-93.85,38.18-129.09Z"/><path class="cls-4" d="m132.44,183.5c.87,0,1.65-.55,1.94-1.37,12.69-35.59,43.99-56.01,98.52-64.27,30.36-4.6,78.44-11.9,102.98-37.27-30.45,16.49-68.28,20.2-104.45,26.2-32.3,5.37-77.03,13.11-103.58,34.53-23,18.55-34.5,39.89-37.84,67.44,1.27,1.45,2.51,2.98,3.68,4.63.39.55,1.02.87,1.68.87.07,0,.14,0,.21-.01.74-.07,1.38-.54,1.68-1.23,3.86-8.88,14.89-29.56,33.77-29.56,0,0,1.37.04,1.4.04Z"/><path class="cls-4" d="m559.71,187.6c.44,0,.88-.15,1.24-.41.45-.34.74-.84.81-1.39,7.59-59.82-49.66-74.71-105.02-89.11-23.06-5.99-46.66-12.16-66.17-21.48,18.4,23.37,54.89,34.3,81.56,41.45,37.34,10.01,76.24,24.03,80.75,68.53.06.63.05,1.26.09,1.89,2.18,0,4.33.17,6.41.5.11.02.22.03.33.03Z"/><path class="cls-4" d="m485.21,182.7l.39-2.02.78,2.33c.15.04.31.05.46.05.51,0,1.01-.19,1.4-.54.5-.46.74-1.14.65-1.81-4.93-35.09-34.64-49.01-63.38-62.49-8.08-3.79-16.43-7.7-24-12.01-13.7-7.79-24.07-16.58-31.4-26.64,5.54,17.64,17.56,33.12,34.39,43.55,26.74,16.57,49.33,24.29,61.44,56.39.64,1.7,1.17,3.4,1.63,5.12,3.45-1.52,7.26-2.52,11.54-2.52,1.99,0,4.04.2,6.11.6Z"/><path class="cls-4" d="m269.97,168.03c.54,0,1.08.01,1.63.04,3.43.17,6.75.77,10.15,1.83.21.06.41.1.62.1.86,0,1.66-.54,1.95-1.4,6.2-18.11,20.5-31.25,34.34-43.95,9.67-8.88,19.44-17.99,26.42-28.78-31.96,37.29-93.26,33.85-115.41,78.79-1.42,2.89-2.53,6.6-3.31,10.85,2.76,2.36,5.09,4.89,6.91,7.3.39.52,1,.82,1.64.82.07,0,.13,0,.2-.01.71-.07,1.34-.51,1.65-1.15,4.44-9.13,14.65-24.44,33.2-24.44Z"/><path class="cls-3" d="m322.9,96.56c-9.66,6.02-19.99,10.32-29.04,13.21-13.98,4.47-29.42,7.19-45.76,10.07-44.91,7.9-91.35,16.08-108.53,62.37-.2.55-.17,1.15.1,1.67.27.52.74.9,1.3,1.04,5.46,1.44,10.15,3.89,14.29,7.18,9.5-17.42,23.43-33.32,36.15-41.68,29.06-19.1,65.54-17.54,96.63-31.34,13.26-5.88,25.15-13.56,34.86-22.53Z"/><path class="cls-3" d="m360.13,68.33c-.25.32-.44.69-.47,1.12-1.05,15.93-7.48,30.37-19.1,42.89-5.11,5.51-11,10.69-17.24,16.17-14.04,12.35-28.57,25.12-34.53,42.49-.32.92.06,1.94.9,2.44,5.92,3.51,10.97,8.6,14.99,15.11.38.61,1.04.98,1.75.98.01,0,.02,0,.04,0,.73-.01,1.4-.41,1.75-1.04,3.2-5.65,9.11-13.8,17.84-18.54,5.47-14.52,14.02-28.82,25.08-44.59,12.33-17.57,13.86-37.72,8.98-57.03Z"/><path class="cls-3" d="m476.31,128.53c-26.44-17.42-59.78-21.33-86.91-37.93-1.07-.66-2.04-1.38-3.02-2.09,12.2,10.38,27.43,18.11,42.35,25.66,32.06,16.23,62.33,31.56,65.54,70.51.06.7.47,1.32,1.09,1.65,8.37,4.47,15.06,12.35,19.9,23.44.31.72,1.01,1.2,1.8,1.24.03,0,.06,0,.09,0,.75,0,1.45-.41,1.81-1.07.79-1.45,1.61-2.78,2.43-4.08,1.15-30.62-17.41-59.09-45.08-77.32Z"/><path class="cls-5" d="m59.38,455.12c9.29,45.09,16.47,119.12,68.28,136.28,40.22,13.32,90.26,9.33,131.9,10.13,60.55,1.17,121.46.85,181.88-3.69,51.3-3.85,79.72-23.04,97.06-75.05,21.33-64,29.19-135.29,41.75-201.35,4.66-24.49,22.36-100.91-3.53-127.34,7.87-46.32-17.56-76.71-59.53-95.37-44.85-19.94-137.32-17.04-153.9-71.64-1.24-4.07-4.34-6-7.63-6.3-3.48-.66-7.17.48-9.02,3.99-.05.07-.1.16-.15.24-.03.06-.07.12-.1.19-.54.92-.9,1.96-1.02,3.11-11.14,43.85-59.24,43.96-96.52,44.68-40.38.78-79.95-1.91-119.76,6.55-56.01,11.89-105.15,66.15-94.26,125.11.17.95.49,1.74.85,2.47-4.35,5.47-8.27,12.36-11.4,21.13-10.48,29.37,4,68.93,9.48,97.93,8.14,43.05,16.76,86.02,25.61,128.93Zm416.82,120.06c-12.97,3.48-27.03,3.9-40.34,4.9-42.97,3.22-86.21,3.62-129.29,3.68-43.1.06-86.28-.75-129.29-3.68-13.48-.92-27.13-1.94-40.34-4.9-17.07-3.81-28.55-18.57-36.4-35.11,53.62,39.43,159.55,26.2,215.45,25.69,51.57-.47,152.96,7.44,200.18-33.66-7.82,19.36-20.29,37.79-39.98,43.07Zm94.16-299.78c-5.67,31.63-11.79,63.18-17.97,94.71-8.93,45.51-17.6,91.2-28.22,136.36-.17.75-.38,1.53-.57,2.29-34.21,58.82-161.01,47.49-216.66,47.99-56.7.52-172,14.07-214.01-36.24-1.56-4.89-2.87-9.64-3.96-14-10.94-43.73-18.74-88.46-27.49-132.66-6.14-31.05-12.07-62.14-17.77-93.28-3.03-16.57-5.7-30.87-1.89-47.49,2.05-7.44,5.77-13.89,11.18-19.35,19.35-21.45,32.25,14.71,35.62,25.16,1.59,4.93,5.94,6.73,9.96,6.23,3.72.24,7.25-1.68,7.98-6.55,1.83-12.26,8.63-37.02,24.1-39.02,17.37-2.24,24.01,15.76,27.35,29.08,2.47,9.81,15.83,7.54,17.62-.57.38-.91.67-1.9.76-3.04,1.12-14.57,7.15-29.02,22.58-32.5,15.32-3.45,25.32,12.72,28.55,24.98,1.37,5.18,5.77,6.95,9.87,6.3,3.96.54,7.88-1.31,8.62-6.48,2.08-14.49,8.37-32.6,25.67-33.16,16.62-.54,23.76,18.9,26.08,32.25,0,.02,0,.05.01.08.05.28.11.58.15.85.82,5.11,4.7,6.98,8.62,6.51,3.92.48,7.79-1.4,8.6-6.51,2.18-13.73,8.39-32.71,24.71-34.87,17.79-2.36,25.33,18.44,26.89,32.42.38,3.41,2.25,5.79,4.65,7.19.11.07.22.14.34.22.03.01.06.04.09.05,4.69,2.95,11.93,2.07,13.74-4.86,3.59-13.83,11.79-28.76,27.91-28.8,17.73-.04,22.82,22.85,23.22,36.31.05,1.58.44,2.93,1.05,4.08,2.62,7.23,14.94,8.87,17.34-.48,3.31-12.88,10.05-30.54,25.96-30.34,16.73.21,23.49,25.37,25.17,37.85.06.49.2.92.32,1.36.48,6.71,9.24,9.81,14.55,6.12.05-.03.1-.06.15-.09.01-.01.02-.02.03-.03,1.41-.87,2.46-2.2,2.93-3.97.09-.23.21-.42.28-.66,4.82-15.21,20.54-53.35,40.93-26.53,13.02,17.12,8.35,43.92,4.93,63.03Zm-121.02-77.68c-5.52-13.38-15.44-24.24-31.27-26.68-17.15-2.64-30.69,6.26-39.69,19.1-6.29-13.62-17.11-24.04-34.18-25.88-17.08-1.84-29.81,9.2-37.75,23.2-4.02-6.5-9.26-11.98-15.7-15.8,8.35-24.33,34.47-39.75,51.33-57.93,12.21-13.16,18.59-28.03,19.65-44.16,7.65,15.94,20.91,28.26,38.76,38.42,34.08,19.39,80.21,29.19,86.35,72.99-.42-.1-.81-.23-1.24-.32-15.87-3.05-27.92,5.25-36.27,17.05Zm-166.96-29.79c-3.32-1.04-6.86-1.74-10.67-1.92-17.4-.84-29.72,11.03-36.78,25.56-8.41-11.06-20.77-18.32-36.13-17.21-16.41,1.19-27.45,11.57-33.86,24.88-5.55-7.83-13.08-13.59-23.43-16.31,22.87-61.62,100.09-54.26,152.99-71.2,24.94-7.98,47.87-22.02,58.23-43.78-2.97,44.08-56.27,58.84-70.34,99.98Zm277.34,17.6c-4.04-.65-8.52-.75-13.59-.07-13.48,1.8-22.55,11.76-28.97,23.48-4.48-10.27-11.15-19.27-20.82-24.43-5.81-70.44-99.32-66.72-125.95-118.84,61.02,45.54,200.83,29.19,189.33,119.87ZM133.93,97.08c40.13-11.42,85.29-5.33,126.48-6.12,30.41-.58,62.41-5.3,83.06-24.14-18.3,34.76-74.51,43.5-110.89,49.01-43.19,6.54-84.73,22.34-100.16,65.61-17.43-.86-29.95,14.4-37.06,30.76-11.94-16.79-28.59-23.52-43.62-17.58-5.68-49.37,39.12-85.3,82.18-97.55Z"/><path class="cls-5" d="m184.52,325.92c5.62-10.74,17.47-14.03,28.87-12.76,9.31,1.03,9.21-13.53,0-14.55-16.25-1.8-33.61,5.04-41.43,19.96-4.35,8.3,8.21,15.65,12.56,7.34Z"/><path class="cls-5" d="m399.82,313.15c11.4-1.26,23.25,2.03,28.87,12.76,4.35,8.31,16.9.96,12.56-7.34-7.81-14.93-25.18-21.77-41.43-19.96-9.22,1.02-9.32,15.58,0,14.55Z"/><path class="cls-5" d="m327.91,454.55c-3.44,24.29-39.19,24.27-42.63,0-1.31-9.26-15.32-5.31-14.02,3.86,5.4,38.19,65.26,38.19,70.68,0,1.29-9.17-12.71-13.12-14.03-3.86Z"/><path class="cls-5" d="m463.73,384.01c-2.54-.29-5.01.37-7.58-.01-3.3-.49-6.34-1.12-9.4-2.51-.07-.03-.19-.06-.27-.1.11-2.36.11-4.78-.13-7.33-.53-5.74-3.92-5.47-5.73-1.08-4.63,11.2-8.65,23.07-18.27,30.78-12.93,10.37-38.96,10.61-52.19,0-9.15-7.34-13.22-18.42-17.58-29.11-2.87-7.09-6.07-5.25-6.56.3-1.19,13.5,2.41,24.2,8.86,32.13,21.63,26.61,57.14,25.22,79.86,2.11.83-.85,1.6-1.75,2.37-2.67,1.05,1.03,2.13,1.91,3.04,2.56,3.33,2.37,9.72,4.16,13.36,1.56.31-.22.5-.74.14-1.03-1.63-1.35-3.65-2.02-5.41-3.2-2.24-1.51-4.2-3.53-6.01-5.53-.18-.21-.44-.53-.72-.91.27-.5.58-.98.83-1.5,1.53.99,3.12,1.79,4.4,2.33,3.83,1.59,10.27,1.71,13.29-1.57.26-.29.28-.84-.13-1.03-1.79-.84-3.73-1.08-5.6-1.71-2.86-.98-5.85-2.81-8.18-4.71-.26-.21-.63-.52-1.05-.86.13-.52.3-1.01.42-1.54,6.45,2.78,16.15,1.51,18.81-4.39.21-.48-.04-.93-.56-.98Z"/><path class="cls-5" d="m260.63,374.66c-4.36,10.69-8.43,21.78-17.58,29.11-13.23,10.61-39.27,10.37-52.19,0-9.62-7.72-13.64-19.59-18.27-30.78-1.81-4.39-5.21-4.67-5.73,1.08-.24,2.55-.24,4.97-.13,7.33-.09.03-.2.06-.27.1-3.06,1.39-6.1,2.02-9.4,2.51-2.57.38-5.04-.27-7.58.01-.53.06-.77.5-.56.98,2.66,5.9,12.36,7.17,18.81,4.39.12.53.28,1.03.42,1.54-.41.34-.79.65-1.05.86-2.33,1.9-5.33,3.73-8.18,4.71-1.87.64-3.81.87-5.6,1.71-.4.19-.38.74-.13,1.03,3.02,3.28,9.45,3.16,13.29,1.57,1.29-.53,2.88-1.34,4.4-2.33.25.52.56.99.83,1.5-.29.38-.54.7-.72.91-1.81,2-3.76,4.02-6.01,5.53-1.76,1.18-3.79,1.86-5.41,3.2-.35.29-.16.8.14,1.03,3.64,2.61,10.03.81,13.36-1.56.91-.65,1.99-1.53,3.04-2.56.76.92,1.53,1.83,2.37,2.67,22.73,23.11,58.24,24.5,79.87-2.11,6.45-7.94,10.04-18.63,8.86-32.13-.48-5.55-3.69-7.39-6.56-.3Z"/><path class="cls-2" d="m172.87,442.24c31.53,1.86,23.03,38.79-4.96,33.46-26.07-4.96-24.2-35.18,4.96-33.46Zm267.46,0c-31.53,1.86-23.03,38.79,4.95,33.46,26.07-4.96,24.2-35.18-4.95-33.46Z"/></g></g></g></svg>