<?xml version="1.0" encoding="UTF-8"?><svg xmlns="http://www.w3.org/2000/svg" viewBox="0 0 644.92 681.95"><defs><style>.cls-1{fill:#86e4c7;mix-blend-mode:multiply;}.cls-1,.cls-2,.cls-3,.cls-4,.cls-5,.cls-6,.cls-7,.cls-8,.cls-9,.cls-10,.cls-11,.cls-12{stroke-width:0px;}.cls-13{isolation:isolate;}.cls-2{fill:#fab301;}.cls-3{fill:#acff1d;}.cls-4{fill:#ff821d;}.cls-5{fill:#660650;}.cls-6{fill:#fff;}.cls-7{fill:#fef49c;}.cls-8{fill:#ec008b;}.cls-9{fill:#ffcc5a;}.cls-10{fill:#f26200;}.cls-11{fill:#fdc435;}.cls-12{fill:#f6b279;}</style></defs><g class="cls-13"><g id="Layer_2"><g id="Layer_5_copy_4"><path class="cls-1" d="m333.34,681.95c-22.33,0-45.77-2.8-65.89-23.15-19.32-19.54-19.12-44.05-18.96-63.74,0-.54,0-1.08.01-1.61-4.85.06-9.8.16-14.84.25-9.52.18-19.33.36-29.27.36-53.52,0-113.55-5.51-152.97-46.38-45.5-47.18-28.22-132.86-15.61-195.41,2.42-12.01,4.71-23.35,6.18-32.76l2.34-15.17c11.1-72.59,23.68-154.87,83-210.81,49.04-46.25,120.27-71.72,200.58-71.72h1.27c65.23.23,154.79,13,211.01,72.56,57.81,61.25,70.37,138.39,82.51,213l1.96,11.97c1.45,8.81,3.59,19.35,5.86,30.5,12.9,63.44,30.57,150.31-15.27,197.83-38.92,40.35-96.89,45.92-153.73,45.92-6.95,0-13.81-.08-20.52-.15-6.3-.06-12.46-.13-18.44-.13h-4.38c0,.58,0,1.15.01,1.73.16,19.69.36,44.2-18.96,63.74-20.13,20.35-43.57,23.15-65.9,23.15Z"/><path class="cls-6" d="m311.52,660.13c-22.33,0-45.77-2.81-65.89-23.15-19.32-19.54-19.12-44.05-18.96-63.74,0-.54,0-1.08.01-1.61-4.85.06-9.8.16-14.84.25-9.52.18-19.33.36-29.27.36-53.52,0-113.55-5.51-152.97-46.38C-15.9,478.68,1.38,393.01,13.99,330.45c2.42-12.01,4.71-23.35,6.18-32.75l2.34-15.17c11.1-72.59,23.68-154.86,83-210.81C154.55,25.47,225.78,0,306.1,0h1.27c65.23.23,154.79,13,211.01,72.56,57.81,61.25,70.37,138.39,82.51,213l1.96,11.97c1.45,8.81,3.59,19.35,5.86,30.51,12.9,63.43,30.57,150.31-15.27,197.82-38.92,40.36-96.89,45.92-153.73,45.92-6.95,0-13.81-.08-20.52-.15-6.3-.06-12.46-.13-18.44-.13h-4.38c0,.58,0,1.15.01,1.73.16,19.69.35,44.2-18.96,63.74-20.13,20.35-43.57,23.15-65.89,23.15Z"/><path class="cls-4" d="m180.24,535.71c-40.71,0-86.64-3.52-118.68-29.64-26.55-21.64-22.75-68.25-20.23-99.08l.46-5.76c1.95-25.02,6.32-50.18,10.55-74.52,1.81-10.42,3.62-20.84,5.25-31.26l.68-4.35c10.13-64.9,20.62-132,65.53-185.29,45.96-54.54,125.13-67.66,183.44-69.07,2.76-.06,5.54-.1,8.32-.1,67,0,126.9,19.23,168.65,54.15,54.41,45.5,70.74,122.95,79.54,192.7,2.08,16.51,5.08,33.53,7.98,49.99,8.59,48.76,17.49,99.2,5.32,148.23-11.83,47.67-75.99,53.79-130.56,53.79-9.92,0-19.42-.21-28.04-.4-7.16-.16-13.71-.31-19.42-.31h-1.24c-28.74.09-57.49.13-86.21.13-24.22,0-48.42-.04-72.64-.09h-1.56c-8.54,0-17.53.21-26.8.43-9.88.23-20.07.46-30.36.46Z"/><path class="cls-7" d="m311.52,623.39c-18.62,0-37.51-1.85-46.24-24.03-3.88-9.88-3.47-21.33-3.06-32.39.19-5.31.39-10.79.09-15.91-.03-.57.17-1.12.56-1.53.39-.41.93-.65,1.5-.65l36.48.03c19.21,0,57.64-.06,57.64-.06.58,0,1.14.24,1.53.67.39.43.58,1.01.53,1.58-.58,6.19-.58,12.56-.57,18.72,0,9.59,0,19.5-2.14,29.23-5.37,24.35-33.03,24.35-46.33,24.35Z"/><path class="cls-11" d="m192.64,98.78c-34.55,26.36-51.28,103.72-60.91,140.45-16.65,63.48-31.36,98.18-38.18,194.55-3.93,55.55,50.16,59.21,94.09,60.45,48.18,1.36,95.36-.19,100.91-45.45,8.51-69.42,1.7-331.92,1.19-336.8-.55-5.24-2.17-10.97-7.1-16.38-15.02-16.47-49.33-27.85-90,3.18Z"/><path class="cls-11" d="m430.32,98.78c34.55,26.36,51.28,103.72,60.91,140.45,16.65,63.48,31.36,98.18,38.18,194.55,3.93,55.55-50.16,59.21-94.09,60.45-48.18,1.36-95.36-.19-100.91-45.45-8.51-69.42-1.7-331.92-1.19-336.8.55-5.24,2.17-10.97,7.09-16.38,15.02-16.47,49.33-27.85,90,3.18Z"/><path class="cls-2" d="m134.76,467.87c-46.45-24.76-9.88-169.3,10.83-244.37,11.41-41.36,25.53-91.38,42.68-120.88-31.58,29.3-47.34,101.48-56.55,136.61-16.65,63.48-31.36,98.18-38.18,194.55-3.93,55.55,50.16,59.21,94.09,60.45,46.37,1.31,91.69-.2,99.99-40.64-34.08,40.33-131.58,25.62-152.87,14.28Z"/><path class="cls-2" d="m529.41,433.78c-6.82-96.36-21.53-131.07-38.18-194.55-8.96-34.16-24.08-103.4-53.93-134.14,7.32,12.9,14.16,25.91,18.75,40.66,7.2,23.12,11.75,47.2,16.58,70.9,9.77,47.95,26.36,94.58,32.74,143.14,7.07,53.86-1.19,103.86-60.47,117.76-20.3,4.77-41.87.61-61.33-5.43-27.39-8.51-42.15-18.79-51.41-52.2.59,11.46,1.32,21.35,2.24,28.86,5.55,45.26,52.73,46.82,100.91,45.45,43.93-1.24,98.02-4.9,94.09-60.45Z"/><path class="cls-10" d="m571.73,333.47c-2.9-16.46-5.9-33.47-7.98-49.99-4.13-32.68-9.96-67.01-20.53-98.98,2.02,12.71,3.68,25.48,5.36,37.96,14.32,106.6,38.61,258.19-25.94,283.59-38.85,15.29-238.15,12.34-289.2,12.71-51.59.38-109.37,3.08-154.86-24.52-7.48-4.54-19.89-21.38-21.4-50.92-3.14-61.36,13.71-165.38,30-242.73,9.57-45.48,24.09-78.18,41.86-100.47-1.76,1.88-3.57,3.69-5.24,5.68-44.91,53.29-55.39,120.39-65.53,185.29l-.68,4.35c-1.63,10.42-3.44,20.84-5.25,31.26-4.23,24.34-8.61,49.5-10.55,74.52l-.46,5.76c-2.51,30.84-6.31,77.44,20.23,99.08,32.04,26.12,77.97,29.64,118.68,29.64,10.28,0,20.48-.23,30.36-.46,9.27-.22,18.26-.43,26.8-.43h1.56c24.21.06,48.42.09,72.64.09,28.73,0,57.47-.04,86.21-.13h1.24c5.7,0,12.26.15,19.42.31,8.62.19,18.12.4,28.04.4,54.57,0,118.73-6.11,130.56-53.79,12.17-49.03,3.27-99.47-5.32-148.23Z"/><path class="cls-9" d="m273.15,148.22c-3.05-41.65-44.86-48.42-66.46-15.5-17.61,26.85-31.05,64.59-39.96,90.3-25.94,74.85-51.34,188.2-24.97,216.36,8.02,8.57,91.14,18.64,106.73,2.64,15.63-16.06,13.84-55.41,15.91-75.63,7.27-71.12,14-146.69,8.76-218.17Z"/><path class="cls-9" d="m347.03,148.22c3.05-41.65,44.86-48.42,66.46-15.5,17.61,26.85,31.05,64.59,39.96,90.3,25.94,74.85,51.34,188.2,24.98,216.36-8.02,8.57-91.14,18.64-106.73,2.64-15.64-16.06-13.84-55.41-15.91-75.63-7.27-71.12-14-146.69-8.76-218.17Z"/><path class="cls-12" d="m360.56,551.1c.06-.58-.13-1.15-.53-1.58-.39-.43-.94-.67-1.53-.67,0,0-38.43.06-57.64.06l-35.86-.03c-.91.82-1.85,1.61-2.68,2.51.27,5.03.09,10.38-.1,15.58-.4,11.07-.82,22.51,3.06,32.39,6.09,15.49,17.15,21.06,29.61,23.01-12.98-13.22-21.04-35.33-13.15-52.01,5.62-11.89,40.58-10.54,51.18-11.8,9.38-1.12,18.54-2.27,27.47-4.32.06-1.04.07-2.1.16-3.14Z"/><path class="cls-5" d="m397.79,550.9c58.72-.23,136.23,6.88,180.8-39.35,45.87-47.55,13.09-154.89,3.91-210.67-12.78-77.65-22.74-154.44-79.12-214.17-48.73-51.64-128.35-65.87-196.09-66.1-67.6-.23-137.75,19.05-187.63,66.1-58.1,54.79-67.5,139.92-79.12,214.17-8.77,56.04-42.19,162.88,3.91,210.67,47.28,49.03,132.61,39.2,194.51,39.39,2.48,0,4.96,0,7.43,0,3.39,23.88-5.13,52.29,13.9,71.54,14.52,14.68,31.52,17.03,51.24,17.03s36.71-2.35,51.23-17.03c19.04-19.26,10.51-47.69,13.91-71.58,7.05-.01,14.09.01,21.14,0Zm-334.93-46.43c-27.34-22.29-21.43-72.06-19.01-103.09,2.76-35.45,10.29-70.53,15.78-105.62,10.53-67.34,20.23-134.62,65.75-188.63,43.57-51.7,117.73-66.79,181.92-68.34,61.52-1.48,127.64,13.47,175.6,53.57,54.6,45.65,70.37,124.43,78.81,191.38,8.19,64.89,29.55,132.19,13.35,197.46-15.59,62.81-128.92,51.32-177.26,51.51-52.95.16-105.89.17-158.83.04-55.38-.17-130.31,9.03-176.09-28.29Zm292.97,94.13c-4.69,21.3-27.1,22.73-44.31,22.73-19.18,0-36.17-2.02-44.32-22.73-5.58-14.18-1.91-31.9-2.83-47.67,31.38.05,62.76.03,94.13-.03-1.48,15.89.8,31.97-2.67,47.7Z"/><path class="cls-5" d="m278.96,340.89c-1.79,1.12-3.1,2.98-3.04,5.78.48,21.59,10.94,43.84,34.77,45.77,24.9,2.02,35.99-25.49,36.43-45.77.09-3.96-3.37-7.27-7.27-7.27h-56.65c-1.79,0-3.12.64-4.23,1.49Z"/><path class="cls-5" d="m449.31,269.73c-.92-2.84-2.11-5.68-3.64-8.43-4.28-7.64-85.72,17.32-85.75,25.38,0,1.83.06,3.71.2,5.65,1.39,19.97,18.08,34.86,37.25,38.51,20.1,3.83,37.78-4.82,47.25-19.55,1.9,1.36,4.13,2.36,6.25,2.87,3.72.89,9.56.92,12.2-2.36.24-.3.29-.84-.13-1.03-2.34-1.06-4.94-1.16-7.33-2.2-2.44-1.06-5.12-2.24-7.11-4.04-.06-.06-.2-.16-.29-.23.22-.52.43-1.02.63-1.55,6.31,2.77,15.61,1.88,18.44-3.64.18-.34.05-.88-.39-.95-2.48-.43-4.94.07-7.44-.43-2.93-.59-5.71-1.29-8.4-2.6.06-.29.06-.6.12-.9,6.67.23,14.45-3.47,15.38-9.37.08-.52-.28-.88-.8-.8-2.8.44-5.36,1.66-8.2,2.12-1.91.3-3.82.31-5.73.21.04-5.38-.69-10.97-2.52-16.68Z"/><path class="cls-5" d="m167.43,308.58c-2.39,1.05-4.99,1.14-7.33,2.2-.42.19-.37.73-.13,1.03,2.64,3.27,8.48,3.25,12.2,2.36,2.12-.51,4.35-1.51,6.25-2.87,9.47,14.72,27.15,23.37,47.25,19.55,19.17-3.65,35.86-18.54,37.25-38.51.13-1.95.21-3.82.2-5.65-.04-8.06-81.48-33.03-85.75-25.38-1.53,2.75-2.73,5.59-3.64,8.43-1.83,5.71-2.56,11.3-2.52,16.68-1.91.11-3.82.09-5.73-.21-2.84-.45-5.4-1.68-8.2-2.12-.52-.08-.88.28-.8.8.93,5.91,8.71,9.61,15.38,9.37.06.29.06.6.12.9-2.69,1.31-5.48,2.01-8.4,2.6-2.5.5-4.96,0-7.44.43-.44.07-.57.61-.39.95,2.83,5.51,12.14,6.41,18.44,3.64.2.53.41,1.03.63,1.55-.09.07-.23.16-.29.23-1.99,1.8-4.67,2.98-7.11,4.04Z"/><path class="cls-5" d="m397.98,214.71c-13.59,8.86-27.07,17.88-40.4,27.12-9.57,6.63-.49,22.39,9.18,15.7,13.34-9.24,26.81-18.27,40.4-27.12,9.78-6.38.67-22.12-9.18-15.7Z"/><path class="cls-5" d="m265.47,241.83c-13.34-9.23-26.82-18.26-40.4-27.12-9.86-6.43-18.96,9.32-9.18,15.7,13.59,8.86,27.07,17.88,40.4,27.12,9.67,6.69,18.74-9.08,9.18-15.7Z"/><path class="cls-5" d="m295.74,408.49c.11-5.87-8.98-5.85-9.09,0-.7,37.06-1.58,68.32-43.93,78.96-27.43,6.89-61.41,1.18-89.19-1.05-37.27-2.98-57.42-15.85-56.53-56.97.82-37.74,11.38-76.94,19.53-113.64,13.89-62.52,27.01-133.78,57.38-190.84,16.28-30.58,65.34-50.28,96.9-34.11,19.35,9.92,14.47,41.51,14.8,59.27.48,25.7.76,51.41,1.02,77.12.06,5.86,9.15,5.86,9.09,0-.33-33.03-.76-66.04-1.45-99.06-.26-12.32-.13-27.44-9.48-37.09-20.17-20.85-53.85-17.97-78.12-5.66-33.86,17.16-46.25,43.6-58.02,77.95-17.9,52.23-31.16,106.26-43.12,160.12-9.42,42.37-25.24,94.78-14.77,138.12,6.14,25.41,33.8,30.99,55.91,33.27,34.79,3.58,82.19,11.61,115.34-3.75,34.84-16.15,33.1-48.74,33.74-82.63Z"/><path class="cls-5" d="m327.32,227.24c-.06,5.86,9.03,5.86,9.09,0,.21-21.78.48-43.54.82-65.31.29-18.85-2.81-42.86,4.94-60.53,17.16-39.12,80.69-5.32,98.86,12.79,19.99,19.94,26.92,57.86,34.84,83.94,10.76,35.46,19.86,71.43,28.32,107.5,8.79,37.46,16.57,75.35,21.09,113.59,4.68,39.57-9.25,62.49-48.88,66.57-28.69,2.95-57.98,4.47-86.8,2.86-48.44-2.72-52.45-40.97-53.19-80.16-.11-5.85-9.2-5.87-9.09,0,.58,30.69-1.75,61.27,27,79.52,30.9,19.6,81.43,10.19,115.21,7.49,21.65-1.73,51.55-4.47,60.65-28.31,15.23-39.92-2.14-93.75-10.48-133.69-11.45-54.82-25.67-109.26-42.78-162.59-10.96-34.13-21.9-62.84-53.85-82.1-20.67-12.46-61.3-22-80.87-1.77-8.88,9.18-12,18.64-13.17,31.14-3.34,35.86-1.32,73.08-1.68,109.07Z"/><path class="cls-8" d="m311.57,366.89c-.7-.06-1.39-.09-2.07-.09-7.65,0-13.48,3.76-17.77,9.29,4.56,5.56,10.89,9.5,19.45,10.19.7.06,1.39.09,2.07.09,7.64,0,13.47-3.78,17.76-9.3-4.56-5.55-10.89-9.49-19.45-10.18Z"/><path class="cls-3" d="m177.79,343.34c31.53,1.86,23.03,38.8-4.96,33.47-26.06-4.96-24.2-35.18,4.96-33.47Zm267.46,0c-31.53,1.86-23.03,38.8,4.96,33.47,26.06-4.96,24.2-35.18-4.96-33.47Z"/><path class="cls-6" d="m411.76,294.22c-4.03-12.26-16.47-15.34-24.6-10.33-7.44,4.57-12.09,13.84-6.25,25.3,4.3,8.44,16.57,10.03,23.86,4.47,6.14-4.67,9.41-12.14,7-19.45Z"/><path class="cls-6" d="m434.81,302.45c-2.28-6.92-9.3-8.66-13.89-5.83-4.2,2.58-6.83,7.81-3.53,14.28,2.43,4.77,9.35,5.67,13.47,2.53,3.46-2.63,5.31-6.86,3.95-10.98Z"/><path class="cls-6" d="m221.27,294.22c-4.03-12.26-16.47-15.34-24.6-10.33-7.44,4.57-12.09,13.84-6.25,25.3,4.3,8.44,16.57,10.03,23.86,4.47,6.14-4.67,9.41-12.14,7-19.45Z"/><path class="cls-6" d="m244.33,302.45c-2.28-6.92-9.3-8.66-13.89-5.83-4.21,2.58-6.83,7.81-3.53,14.28,2.43,4.77,9.35,5.67,13.47,2.53,3.46-2.63,5.31-6.86,3.95-10.98Z"/></g></g></g></svg>