<?xml version="1.0" encoding="UTF-8"?><svg xmlns="http://www.w3.org/2000/svg" viewBox="0 0 610.77 618.51"><defs><style>.cls-1{fill:#86e4c7;mix-blend-mode:multiply;}.cls-1,.cls-2,.cls-3,.cls-4,.cls-5,.cls-6,.cls-7,.cls-8,.cls-9,.cls-10,.cls-11,.cls-12{stroke-width:0px;}.cls-13{isolation:isolate;}.cls-2{fill:#f2f2f2;}.cls-3{fill:#d8d8d8;}.cls-4{fill:#8bfcfc;}.cls-5{fill:#c1c1c1;}.cls-6{fill:#660650;}.cls-7{fill:#fff;}.cls-8{fill:#fef49c;}.cls-9{fill:#fee434;}.cls-10{fill:#f6b279;}.cls-11{fill:#00b2b6;}.cls-12{fill:#00eef0;}</style></defs><g class="cls-13"><g id="Layer_2"><g id="Layer_5_copy_4"><path class="cls-1" d="m525.51,618.51c-9.65,0-19.05-.23-27.96-.68-.95.09-1.92.13-2.89.13-115.6-.21-216.69-2.47-309.09-6.89-45.62-2.19-108.1-5.17-141.88-42.67-15.92-17.66-23.21-40.54-21.66-67.98,1.14-20.24,10.71-54.82,59.55-71.79,2.89-65.94,6.64-133.62,22.52-198.14,14.77-60,39.59-101.71,75.87-127.51,30-21.33,67.52-35.38,111.68-41.83,11.33-24.32,37.29-39.33,69.96-39.33,35.25,0,65.04,17.44,77.32,43.84,38.49,7.85,68.57,21.28,91.7,40.89,66.87,56.68,70.77,140.72,74.22,214.87l1.4,29.32c3.8,78.18,7.73,159.02.47,238.2-1.13,12.2-9.28,22.23-20.91,25.94-2.78,1.04-5.65,1.66-8.57,1.85-19.26,1.21-36.16,1.8-51.71,1.8Z"/><path class="cls-7" d="m503.69,596.69c-9.65,0-19.05-.23-27.96-.68-.95.09-1.92.13-2.89.13-115.6-.21-216.69-2.47-309.09-6.89-45.62-2.19-108.1-5.17-141.88-42.67C5.95,528.92-1.34,506.04.2,478.6c1.14-20.24,10.71-54.82,59.55-71.79,2.89-65.94,6.64-133.62,22.52-198.13,14.77-60,39.59-101.71,75.87-127.51,30-21.33,67.52-35.38,111.68-41.83C281.16,15.01,307.11,0,339.78,0c35.25,0,65.04,17.44,77.32,43.84,38.49,7.85,68.57,21.28,91.7,40.89,66.87,56.68,70.77,140.72,74.22,214.87l1.4,29.32c3.8,78.18,7.73,159.02.47,238.2-1.13,12.2-9.28,22.23-20.91,25.94-2.78,1.04-5.65,1.66-8.57,1.85-19.26,1.21-36.16,1.8-51.71,1.8Z"/><path class="cls-3" d="m440.02,555.74c-26.89-4.05-50.03-10.92-70.76-20.98-21.83-10.61-38.57-28.95-54.76-46.69-17.79-19.5-36.19-39.67-61.2-49.11-25.21-9.52-76.6-19.62-122.2-19.62-11.7,0-22.72.64-32.77,1.92-.09.01-.17.01-.26.01-.52,0-1.02-.2-1.4-.55-.45-.41-.69-.99-.66-1.61,3.13-67.19,8.98-126.62,17.89-181.68,9.68-59.86,33.86-103.91,71.86-130.93,30.8-21.9,75.45-33.43,132.7-34.25h0c.19,0,.58.07.76.12.27.07.54.15.84.19,59.1,7.02,82.98,62.58,95.79,103.76,35.25,113.22,31.21,235.74,27.29,354.21l-.76,23.22c-.01.6-.28,1.15-.74,1.52-.38.31-.85.48-1.32.48-.1,0-.21-.01-.31-.03Z"/><path class="cls-8" d="m382.76,60.26c-.38.58-1.02.91-1.71.91-.08,0-.15,0-.23-.01-13.2-1.46-27.21-2.42-42.83-2.92-4.14-.13-8.32-.21-12.53-.21-6.72,0-13.47.18-20.08.53h-.11c-.7,0-1.35-.35-1.73-.94-.4-.62-.44-1.41-.11-2.07,6.1-11.9,19.95-19.01,37.04-19.01,18.71,0,35.35,8.47,42.39,21.58.36.67.32,1.5-.11,2.13Zm-1.51,494.34c-23.95-9.84-43.84-24.06-68.67-49.09-3.6-3.64-7.27-7.57-11.03-11.59-13.54-14.5-28.89-30.94-46.61-38.95-22.03-9.94-48.74-16.01-79.37-18.03l-1.88-.13c-9.62-.64-24.15-1.6-39.92-1.6-50.14,0-81.25,9.9-92.45,29.43-.47.82-.32,1.86.36,2.51.39.38.91.57,1.43.57.38,0,.75-.1,1.09-.31,19.96-12.43,49.17-18.72,86.82-18.72,26.59,0,51.26,3.18,67.27,5.85,33.46,5.58,57.29,17.43,82.27,40.88,3.88,3.65,7.81,7.46,11.79,11.32,20.61,20.03,43.97,42.71,72.41,51.59,0,0,15.7.23,15.71.23.98,0,1.83-.68,2.02-1.65.2-.97-.32-1.95-1.24-2.32Z"/><path class="cls-12" d="m548.86,556.72c-.08,1.04-.91,1.85-1.93,1.9-16.39.94-30.81,1.39-44.08,1.39-16.12,0-30.72-.65-44.61-2-1.08-.11-1.9-1.04-1.86-2.12l.75-23.49c4.17-127.66,8.48-259.66-34.2-379.26-12.11-33.93-29.56-59.21-51.87-75.15-.75-.54-1.06-1.52-.73-2.39.31-.81,1.08-1.34,1.93-1.34.06,0,.13,0,.19,0,69.88,6.51,119.03,32.9,146.09,78.44,26.48,44.58,27.63,103.7,28.64,155.87.21,10.55.41,20.88.8,30.81l.71,17.36c2.71,65.74,5.51,133.72.17,199.99Zm-249.33-39.52c-15.04-14.87-30.58-30.25-49.21-40.47-26.33-14.45-74.7-24.53-117.62-24.53-29.96,0-70.83,4.6-95.35,26.55-.4.36-.64.85-.68,1.39-.12,1.66-.15,3.38-.07,5.17,2.81,61.28,73.54,69.54,142.35,69.54,5.98,0,11.8-.06,17.35-.1,5.06-.04,9.91-.09,14.47-.09s9.07.04,13.07.17c39.78,1.29,79.57,2.33,118.27,3.1h.04c.92,0,1.73-.61,1.98-1.49.26-.91-.12-1.86-.92-2.34-15.98-9.52-30.06-23.44-43.68-36.9Z"/><path class="cls-11" d="m314.48,531.69c-39.22,14.74-236.49,16.56-266.61-13.08,22.95,31.12,77.52,36.25,131.08,36.25,5.98,0,11.8-.06,17.35-.1,5.06-.04,9.91-.09,14.47-.09s9.07.04,13.07.17c39.78,1.29,79.57,2.33,118.27,3.1h.04c.92,0,1.73-.61,1.98-1.49.26-.91-.12-1.86-.92-2.34-10.23-6.09-19.67-13.99-28.73-22.42Z"/><path class="cls-11" d="m548.86,556.72c.45-5.67.77-11.36,1.12-17.05-17.27-.72-34.06-6.09-50.42-21.09-23.95-21.95-23.57-60.43-25.23-90.09-1.75-31.22-.7-62.63-1.41-93.88-1.24-55.06-15.13-123.2-47.77-174.71,40.17,117.82,36.06,247.24,31.97,372.5l-.75,23.49c-.04,1.08.78,2,1.86,2.12,13.89,1.35,28.49,2,44.61,2,13.27,0,27.69-.45,44.08-1.39,1.02-.06,1.85-.87,1.93-1.9Z"/><path class="cls-5" d="m365.11,90.9c16.72,26.06,33.03,50.06,40.08,83.81,9.6,45.94,10.77,96.35,8.19,143.11-2.54,45.85-15.53,94.01-49.72,126.29-17.84,16.85-40.31,24.25-63.6,28.49,4.93,5.07,9.71,10.28,14.44,15.47,16.19,17.74,32.93,36.08,54.76,46.69,20.73,10.06,43.87,16.93,70.76,20.98.1.01.21.03.31.03.48,0,.94-.17,1.32-.48.45-.37.72-.92.74-1.52l.76-23.22c3.91-118.47,7.96-240.98-27.29-354.21-8.89-28.57-23.14-64.03-50.75-85.44Z"/><path class="cls-2" d="m392.81,234.16c-6.2-44.99-22.54-95.41-70.69-113.33-61.62-22.93-128.02-.52-158.48,55.84-15.17,28.07-25.78,59.96-29.25,92.18-3.32,30.86-4.12,52.96-2.11,69.34,5.66,46.07,59.16,70.58,115.41,76.29,88.47,8.98,136.38-44.16,140.62-76.18,4.7-35.4,7.77-80.45,4.5-104.15Z"/><path class="cls-10" d="m380.47,558.55c.98,0,1.83-.68,2.02-1.65.2-.97-.32-1.95-1.24-2.32-18.89-7.76-35.28-18.34-53.53-34.7-18.42-13.01-35.45-28.88-53.21-41.19-24.39-16.93-77.16-41.14-111.13-28.55,13.63,1.18,25.72,2.85,34.92,4.39,33.46,5.58,57.29,17.43,82.27,40.88,3.88,3.65,7.81,7.46,11.79,11.32,20.61,20.03,43.97,42.71,72.41,51.59,0,0,15.7.23,15.71.23Z"/><path class="cls-10" d="m325.47,58.03c4.2,0,8.39.07,12.53.21,15.62.5,29.64,1.46,42.83,2.92.08,0,.15.01.23.01.68,0,1.32-.33,1.71-.91.43-.63.48-1.46.11-2.13-1.86-3.46-4.42-6.57-7.48-9.32-21.04.33-42.52,4.1-60.06,9.49,3.39-.09,6.75-.27,10.13-.27Z"/><path class="cls-4" d="m188.42,478.64c-7.61-2.88-36.19-9.79-78.65-6.07-48.71,4.26-56.77,35.75-3.5,45.79,24.42,4.6,53.62,6.31,75.06,5.71,51.4-1.42,52.73-28.17,7.1-45.44Z"/><path class="cls-4" d="m451.19,137.9c50.85,89.71,42.46,182.61,49.75,278.25,3.02,39.79,12.74,60,19.71-1.93,4.15-36.93,7.14-82.87,5.04-116.69-3.4-54.55-12.64-140.46-68.05-166.08-4.13-1.91-8.93,2.07-6.45,6.46h0Z"/><path class="cls-6" d="m164.73,568.65c102.57,4.91,205.43,6.68,308.11,6.88.74,0,1.43-.07,2.07-.21,26.53,1.46,53.25.64,79.15-.99,1.19-.09,2.24-.37,3.19-.78,3.55-.95,6.68-3.71,7.11-8.31,8.03-87.5,2.13-177.1-1.93-264.69-3.37-72.65-6.97-149.26-66.95-200.1-25.57-21.68-59.47-32.78-93.93-38.52-10.85-51.56-105.67-57.13-116.31-3.79-41.16,4.5-82.31,16.47-115.14,39.82-37.94,26.99-57.05,71.95-67.8,115.65-16.58,67.35-19.61,139.77-22.58,208.89-32.72,7.67-57.09,24.72-58.92,57.26-4.58,81.53,84.71,86.08,143.94,88.91Zm352.03-414.9c31.48,52.99,26.78,126.32,29.16,185.71,2.9,71.92,6.68,145.17.89,217.1-28.81,1.65-58.86,2.26-88.37-.61,4.15-132.95,11.91-276.05-33.57-403.51-11.22-31.45-28.09-58.61-52.61-76.13,57.49,5.36,113.81,25.77,144.51,77.44Zm-135.7-94.64c-14.71-1.63-29.25-2.49-43-2.93-10.72-.35-21.7-.26-32.78.33,13.14-25.65,62.14-22.8,75.77,2.61ZM115.93,237.78c8.17-50.53,28.21-99.14,71.02-129.58,35.99-25.6,85.34-33.21,131.53-33.87.43.11.86.23,1.33.29,54.67,6.49,79.15,54.37,94.08,102.33,37.47,120.36,30.37,252.39,26.44,376.76-24.39-3.68-48.14-10.11-70.16-20.81-45.49-22.09-67.87-77.66-116.14-95.87-29.17-11.01-99.94-24.92-155.96-17.81,2.83-60.82,8.13-121.28,17.86-181.44Zm59.51,201.22c26.64,1.75,54.2,6.8,78.65,17.86,22.13,9.99,40.3,33.22,57.03,50.1,22.19,22.39,42.36,38.47,69.35,49.54-5.22-.07-10.45-.14-15.67-.23-32.59-10.28-58.47-39.47-82.83-62.36-25.02-23.49-49.06-35.68-83.34-41.41-41.17-6.88-113.83-12.8-155.52,13.15,20.01-34.89,102.08-28.66,132.33-26.66Zm-136.72,41.29c46.25-41.41,164.92-26.82,210.61-1.75,35.34,19.39,59.09,57.26,92.82,77.34-39.42-.78-78.84-1.82-118.24-3.1-55.15-1.79-181.56,12.78-185.25-67.57-.08-1.7-.05-3.34.06-4.93Z"/><path class="cls-6" d="m291.4,305.51c17.57-7.83,37.33-9.92,56.03-6.88,0-.01,0-.04.01-.05.62.31,1.23.58,1.75.77,2.58.95,7.06.98,8.95-1.36.16-.2.18-.57-.1-.7-1.29-.58-2.72-.66-4.08-1.12-1.73-.58-3.36-1.55-4.89-2.52-.12-.08-.3-.21-.48-.35.06-.46.06-.94.1-1.41,1.37.51,2.82.81,3.93.94,2.78.35,6.97-.72,8.35-3.4.12-.23.03-.6-.26-.64-1.32-.23-2.62-.04-3.94-.12-2.03-.12-4.3-.78-6.16-1.59-.4-.18-1.1-.5-1.88-.81,0-.08-.01-.18-.02-.27,4.72.84,11.09-1.76,11.78-6.17.05-.35-.18-.59-.54-.53-1.71.27-3.2,1.14-4.93,1.34-2.23.27-4.32.4-6.56.04-.17-.03-.38-.04-.61-.05-.22-.91-.37-1.81-.66-2.73-2.33-7.24-7.37-14.47-17.39-18.39-13.54-5.31-31.38-1.53-39.03,13.93-3.38,6.81-4.15,12.63-3.66,19.68.31,4.59,1.9,8.74,4.29,12.38Z"/><path class="cls-6" d="m173.8,250.21c3.79-7.23,11.76-9.45,19.44-8.6,6.27.7,6.21-9.11,0-9.79-10.94-1.21-22.64,3.4-27.9,13.44-2.93,5.59,5.53,10.55,8.46,4.95Z"/><path class="cls-6" d="m318.82,241.61c7.68-.85,15.67,1.37,19.45,8.6,2.93,5.6,11.38.64,8.46-4.95-5.26-10.05-16.96-14.66-27.9-13.44-6.21.69-6.27,10.49,0,9.79Z"/><path class="cls-6" d="m279.84,339.46c.88-6.18-8.56-8.84-9.44-2.6-2.33,16.36-26.4,16.35-28.73,0-.88-6.24-10.32-3.58-9.44,2.6,3.64,25.72,43.96,25.72,47.61,0Z"/><path class="cls-6" d="m163.37,291.96c.05.43.04.89.1,1.32-1.31,1.09-2.98,1.85-4.51,2.53-1.61.71-3.36.77-4.93,1.48-.28.13-.25.49-.09.7,1.78,2.21,5.71,2.2,8.22,1.58.86-.21,1.75-.53,2.6-.94,18.68-3.02,38.38-.93,55.93,6.89,2.38-3.64,3.97-7.79,4.29-12.38.49-7.05-.28-12.87-3.65-19.68-7.65-15.47-25.5-19.24-39.04-13.93-10.03,3.92-15.06,11.15-17.39,18.39-.29.92-.44,1.83-.66,2.73-.23,0-.45.02-.62.05-1.98.31-3.98.35-5.97.04-1.91-.31-3.64-1.13-5.52-1.42-.35-.06-.59.19-.54.53.69,4.41,7.05,7.01,11.77,6.17,0,.08-.01.16-.02.23-.44.15-.83.31-1.09.43-1.88.97-3.83,1.43-5.89,1.84-1.68.33-3.33,0-5,.29-.29.04-.38.4-.26.64,1.89,3.67,8.03,4.3,12.28,2.51Z"/><path class="cls-9" d="m165.95,308.98c21.24,1.25,15.52,26.12-3.33,22.53-17.56-3.34-16.31-23.69,3.33-22.53Zm180.16,0c-21.24,1.25-15.51,26.12,3.34,22.53,17.56-3.34,16.3-23.69-3.34-22.53Z"/><path class="cls-7" d="m198.65,273.92c-3.06-9.31-12.51-11.65-18.69-7.85-5.65,3.48-9.18,10.51-4.75,19.22,3.27,6.41,12.59,7.62,18.12,3.39,4.66-3.54,7.15-9.23,5.32-14.77Z"/><path class="cls-7" d="m215.28,284.35c-1.73-5.26-7.06-6.58-10.55-4.43-3.19,1.97-5.19,5.94-2.69,10.85,1.85,3.63,7.11,4.3,10.24,1.92,2.62-2,4.03-5.21,2.99-8.34Z"/><path class="cls-7" d="m321.88,273.92c-3.07-9.31-12.51-11.65-18.69-7.85-5.65,3.48-9.19,10.51-4.74,19.22,3.26,6.41,12.58,7.62,18.11,3.39,4.67-3.54,7.15-9.23,5.33-14.77Z"/><path class="cls-7" d="m338.52,284.35c-1.73-5.26-7.06-6.58-10.55-4.43-3.19,1.97-5.18,5.94-2.68,10.85,1.85,3.63,7.11,4.3,10.23,1.92,2.63-2,4.03-5.21,3-8.34Z"/></g></g></g></svg>