<?xml version="1.0" encoding="UTF-8"?><svg xmlns="http://www.w3.org/2000/svg" viewBox="0 0 665.26 670.61"><defs><style>.cls-1{mix-blend-mode:multiply;}.cls-1,.cls-2,.cls-3,.cls-4,.cls-5,.cls-6,.cls-7,.cls-8,.cls-9,.cls-10,.cls-11,.cls-12,.cls-13{stroke-width:0px;}.cls-1,.cls-4{fill:#86e4c7;}.cls-14{isolation:isolate;}.cls-2{fill:#39b78a;}.cls-3{fill:#b7f2da;}.cls-5{fill:#ff821d;}.cls-6{fill:#660650;}.cls-7{fill:#fff;}.cls-8{fill:#fef49c;}.cls-9{fill:#fffad2;}.cls-10{fill:#f26200;}.cls-11{fill:#fdce1a;}.cls-12{fill:#f6b279;}.cls-13{fill:#ff5671;}</style></defs><g class="cls-14"><g id="Layer_2"><g id="Layer_5_copy_4"><path class="cls-1" d="m342.41,670.61c-53.84-.06-109.5-.1-164.91-3.4-42.32-2.51-90.78-14.59-90.07-86.31.71-70.54,6.28-142.04,12.1-211.68-.37.01-.74.01-1.11.01-3.3,0-6.51-.46-9.56-1.36-28.28-8.4-48.22-34.23-57.6-48.89-28.92-45.24,15.37-86.75,41.82-111.56,5.78-5.41,11.24-10.53,15.31-14.91,47.7-51.37,107.05-115.3,185.91-139.12,21.63-6.54,43.69-9.86,65.54-9.86,34.46,0,69.43,8.27,104.33,24.65,1.7-13,6.56-25.18,18.08-32.8,17.87-11.82,40.77-13.58,52.84-13.58,15.71,0,30.88,2.79,42.74,7.86,29.23,12.5,27.06,46.03,25.91,64.04-.24,3.59-.48,7-.45,9.98.06,7.36.24,14.79.44,22.25.41,16.32.84,33.11-.09,49.9,26.29,27.78,49.36,55.91,66.85,77.76,8.1,10.11,24.96,31.16,6.32,60.31-13.2,20.64-31.58,45.28-56.88,52.79-5.09,1.51-9.73,2.23-14.2,2.23,0,0-.64,0-.97-.01,1.97,27.29,3.98,57.16,6.22,92.5.74,11.65,1.85,23.44,3.03,35.92,2.94,31.36,5.99,63.78,3.07,95.4-6.52,70.5-62.6,73.2-96.09,74.8-56.14,2.7-111.28,3.05-153.04,3.05h-5.54Z"/><path class="cls-7" d="m320.59,648.79c-53.84-.06-109.5-.1-164.91-3.39-42.31-2.51-90.78-14.59-90.07-86.31.71-70.54,6.28-142.05,12.1-211.68-.37.01-.74.01-1.11.01-3.3,0-6.51-.45-9.56-1.36-28.28-8.39-48.22-34.24-57.6-48.89-28.92-45.24,15.37-86.75,41.82-111.56,5.78-5.41,11.24-10.53,15.31-14.91C114.27,119.34,173.62,55.41,252.48,31.59c21.63-6.54,43.69-9.86,65.54-9.86,34.46,0,69.43,8.27,104.33,24.64,1.7-13,6.56-25.18,18.08-32.8C458.31,1.76,481.21,0,493.28,0c15.71,0,30.88,2.79,42.74,7.86,29.23,12.5,27.06,46.03,25.91,64.04-.24,3.59-.48,7-.45,9.98.06,7.36.24,14.79.44,22.25.41,16.32.84,33.11-.09,49.9,26.29,27.78,49.36,55.91,66.85,77.76,8.1,10.11,24.96,31.16,6.32,60.31-13.2,20.63-31.58,45.28-56.88,52.79-5.08,1.51-9.73,2.23-14.2,2.23,0,0-.64,0-.97-.01,1.97,27.29,3.98,57.16,6.22,92.5.74,11.65,1.85,23.44,3.03,35.92,2.94,31.36,5.99,63.78,3.07,95.4-6.52,70.5-62.6,73.2-96.09,74.8-56.14,2.7-111.28,3.05-153.04,3.05h-5.54Z"/><path class="cls-8" d="m523.53,146.63c-.53,0-1.05-.2-1.43-.58-20.31-19.62-40.64-36.6-60.43-50.48-.51-.35-.82-.93-.87-1.56-.13-2.08-.37-4.91-.64-8.18-2.19-25.95-2.49-39.66,1.93-42.58,4.86-3.2,25.37-5.7,39.77-5.7,15.16,0,22.53,2.42,22.56,7.39.07,11.92.44,23.95.8,36.02.62,20.94,1.26,42.58.37,63.69-.04.81-.54,1.53-1.29,1.83-.26.1-.51.15-.77.15Z"/><path class="cls-4" d="m316.52,612.05c-49.08,0-92.7-.7-133.38-2.14-18.24-.64-33.3-1.49-47.36-2.68-35.6-3-34.08-37.97-32.97-63.51l.09-1.92c3.15-73.66,8.38-153.65,16.42-251.75.03-.53.23-1.48.61-1.85l10.2-9.97c5.94-5.84,11.89-11.67,17.91-17.43,4.65-4.44,9.39-9.03,14.22-13.72,46.42-45.04,99.03-96.1,160.3-96.1,18.35,0,36.65,4.77,54.4,14.18,15.85,8.4,30.35,19.57,44.38,30.38l.87.67c23.84,19.32,46.35,40.94,68.12,61.84l11.56,11.09c4.01,3.82,7.95,7.71,11.89,11.6l7.5,7.36c.41.38.62.92.62,1.48,6.7,82.42,12.14,165.42,16.16,247.16.75,15.41,1.53,31.35-1.56,47.46-4.83,25-38.92,25.17-61.48,25.28-3.68.01-7.06.03-9.93.16-49.52,2.15-98.54,2.37-144.49,2.42h-4.09Z"/><path class="cls-5" d="m578.88,299.04c.36.45.51,1.02.43,1.58-.07.56-.38,1.07-.85,1.4-3.72,2.63-7.32,3.91-10.97,3.91-8.71,0-15.89-7.46-23.49-15.35-1.76-1.82-3.55-3.69-5.43-5.52-15.35-15.06-30.82-29.8-43.92-42.24l-4.74-4.5c-18.45-17.53-37.53-35.65-57.54-51.87-.01,0-.88-.57-.88-.58-.14-.09-.5-.41-.61-.53-31.62-24.39-68.64-50.1-111.72-50.1-10.09,0-20.36,1.42-30.53,4.21-48.28,13.25-89.82,53.21-126.48,88.46-5.28,5.09-10.48,10.09-15.58,14.89-15.27,14.4-30.14,28.81-43.92,42.24-2.05,1.97-3.95,3.96-5.8,5.85-7.67,7.91-14.29,14.74-22.74,14.74-3.25,0-6.52-1-9.97-3.06-.53-.32-.9-.86-.98-1.47-.1-.61.09-1.23.51-1.69,28.85-31.84,60.06-62.05,87.59-88.69l6.39-6.21c38.69-37.56,78.69-76.4,132.07-91.3,8.86-2.47,17.98-3.73,27.1-3.73,39.9,0,74.79,22.68,109.96,47.95,59.55,42.76,110.72,90.4,152.1,141.57Zm15.45-51.2c-15.99-18.69-32.98-37.63-51.95-57.9-42.58-45.52-95.6-102.17-163.15-122.84-18.54-5.67-37.5-8.54-56.35-8.54-58.05,0-118.11,27.63-173.68,79.89-33.1,31.14-66.58,66.92-102.34,109.4-18.01,21.4-8.54,32,9.74,48.88.38.35.88.55,1.41.55.03,0,.06,0,.09,0,.55-.02,1.07-.27,1.43-.67,39.05-43.25,81.34-83.49,113.82-113.72,39.38-36.65,79.09-70.13,131.9-77.31,4.43-.6,8.96-.9,13.47-.9,41.15,0,78.47,24.93,110.23,48.29,63.41,46.66,113.61,93.32,153.47,142.64.37.46.91.74,1.51.77h.1c.55,0,1.08-.22,1.46-.62l.94-.94c17.12-17.44,25.71-26.19,7.91-46.97Z"/><path class="cls-2" d="m536.5,584.19c3.1-16.11,2.32-32.05,1.56-47.46-2.7-55.03-6.11-110.64-10.06-166.24-2.61,66.38-6.21,111.25-12.32,158.51-2.88,22.26-2.7,41.53-27.32,50.67-26.89,9.97-59.56,6.95-87.76,6.88-38.79-.09-77.63,4.59-116.41,5.92-21.65.75-43.18-.43-64.8-1.45-24.15-1.14-55.99,2.46-78.57-7.12-35.99-15.28-25.26-82-23.83-111.42,2.02-41.8,2.98-84.4-2.16-126.08-5.57,73.22-9.43,136.35-11.96,195.38l-.09,1.92c-1.11,25.54-2.63,60.51,32.97,63.51,14.06,1.19,29.12,2.04,47.36,2.68,40.68,1.45,84.3,2.14,133.38,2.14h4.09c45.95-.04,94.97-.27,144.49-2.42,2.87-.13,6.25-.14,9.93-.16,22.56-.11,56.65-.28,61.48-25.28Z"/><path class="cls-3" d="m470.85,452.64c-3.48-74.15,10-140.73-41.22-196.37-69.83-75.86-119.33-73.5-197.57-12.12-70.97,55.65-71.46,143.89-60.26,237.64,10.4,86.99,74.65,76.59,111.38,80.41,27.19,2.83,55.55,1.48,81.35-.09,75.34-4.56,109.84-34.59,106.32-109.47Z"/><path class="cls-10" d="m527.44,217.4c-51.86-47.05-106.66-98.82-173.91-122.44-62.57-21.97-120.03,18.15-166.93,54.63-49.23,38.29-134.26,143.21-130,147.14.38.35.88.55,1.41.55.03,0,.06,0,.09,0,.55-.02,1.07-.27,1.43-.67,39.05-43.25,81.34-83.49,113.82-113.72,39.38-36.65,79.09-70.13,131.9-77.31,4.43-.6,8.96-.9,13.47-.9,41.15,0,78.47,24.93,110.23,48.29,63.41,46.66,113.61,93.32,153.47,142.64.37.46.91.74,1.51.77h.1c.55,0,1.08-.22,1.46-.62l.94-.94c2.76-2.82-34.9-55.58-58.98-77.41Z"/><path class="cls-11" d="m571.94,305.23c2.15-.62,4.3-1.65,6.51-3.2.47-.33.78-.84.85-1.4.09-.57-.07-1.14-.43-1.58-41.38-51.17-92.56-98.81-152.1-141.57-35.17-25.26-70.06-47.95-109.96-47.95-9.12,0-18.24,1.26-27.1,3.73-53.38,14.9-93.38,53.74-132.07,91.3l-6.39,6.21c-27.53,26.64-58.74,56.85-87.59,88.69-.43.46-.61,1.08-.51,1.69.09.61.45,1.15.98,1.47,1.41.84,2.77,1.38,4.12,1.88,32.49-27.41,60.47-61.39,90.75-90.55,43.78-42.19,115.17-111.08,181.36-93.98,59.36,15.33,112.47,68.2,156.68,108.02,22.02,19.83,41.82,42.01,62.03,63.61,4.2,4.5,8.54,9.06,12.87,13.66Z"/><path class="cls-12" d="m460.17,85.84c.27,3.27.51,6.1.64,8.18.04.63.36,1.21.87,1.56,19.79,13.88,40.11,30.86,60.43,50.48.38.38.91.58,1.43.58.26,0,.51-.05.77-.15.75-.3,1.25-1.02,1.29-1.83.6-13.94.48-28.1.19-42.15-11.46,3.96-25.13.36-37.63-6.14-14.25-7.42-22.4-19.19-29.39-32.05.2,5.94.68,13,1.41,21.52Z"/><path class="cls-9" d="m503.62,50.43c-5.62-1.16-11.02-.97-15.97,1.68-4.62,2.47-6.78,8.35-5.41,13.27,3.15,11.31,15.61,27.82,28.34,16.78,1.9-1.65,8.27-28.59-6.96-31.73Z"/><path class="cls-6" d="m612.58,244.68c-21.61-27-45.65-55.81-71.95-82.99,2.29-26.24.43-53.37.23-79.66-.13-17.27,6.79-46.78-12.95-55.21-20.77-8.88-56.83-8.79-76.11,3.96-12.16,8.05-10,32.27-8.18,50.5-55.4-33.93-117.4-50.43-185.18-29.95-72.07,21.77-127.06,79.88-176.75,133.41-24.03,25.87-79.19,63.3-54.87,101.33,10.48,16.38,26.92,34.55,46.09,40.23,4.94,1.46,11.28-.33,14.9-3.93,4.56-4.55,9.23-8.96,13.82-13.47-6.95,83.13-14.57,167.09-15.41,250.4-.5,50,25.47,62.83,70.68,65.51,54.46,3.24,109.18,3.31,163.71,3.35,52.51.04,105.1-.5,157.57-3.03,42.56-2.05,72.12-8.11,76.56-56.09,3.85-41.71-3.51-86.53-6.15-128.12-2.8-44.09-5.75-88.18-9.19-132.23,4.64,4.58,9.38,9.08,13.99,13.69,5.28,5.26,12.33,4.69,18.86,2.76,19.22-5.7,35.17-28.17,45.37-44.13,9.6-15.01,4.96-23.84-5.04-36.33ZM463.24,44.98c6.92-4.57,59.08-9.3,59.13-.01.2,32.84,2.57,66.57,1.16,99.61-19.13-18.48-39.39-35.75-60.67-50.67-.7-11.44-4.77-45.52.37-48.92Zm72.77,491.86c.78,15.81,1.49,31.26-1.53,46.96-5.26,27.29-49.4,22.9-69.46,23.78-48.1,2.09-96.28,2.37-144.4,2.42-45.81.04-91.62-.51-137.4-2.14-15.77-.55-31.53-1.35-47.26-2.67-34.49-2.91-32.07-38.03-30.99-63.3,3.59-83.93,9.55-167.95,16.42-251.67.01-.18-.01-.35-.01-.53,9.38-9.12,18.64-18.35,28.1-27.39,60.64-57.9,136.72-142.94,226.53-95.31,16.02,8.5,30.61,19.82,44.96,30.87,27.87,22.59,53.59,48.03,79.52,72.78,6.53,6.24,12.9,12.64,19.38,18.95,0,.21-.03.4-.01.63,6.73,82.09,12.14,164.37,16.18,246.63Zm4.01-253.24c-14.52-14.23-29.2-28.27-43.95-42.27-20.31-19.27-40.64-38.84-62.41-56.47-.35-.28-.72-.49-1.08-.72-.26-.23-.47-.48-.75-.7-43.1-33.16-88.04-61.24-143.75-45.95-55.75,15.31-102.16,65.42-142.93,103.84-14.79,13.94-29.39,28.08-43.95,42.27-13.32,12.98-21.65,25.81-36.01,17.24,27.86-30.74,57.71-59.76,87.5-88.59,40.47-39.17,81.78-81.42,137.58-97,50.94-14.21,96.04,15.7,135.31,43.91,56.09,40.29,108.21,87.42,151.69,141.19-14.65,10.32-24.32-4.05-37.26-16.75Zm44.01,10.72c-44.26-54.76-97.24-101.36-153.85-143.01-35.94-26.44-78.25-54.15-125.2-47.77-53.69,7.29-94.7,42.18-133.03,77.84-39.19,36.48-78.03,74.07-113.93,113.84-19.15-17.67-25.97-26.56-9.57-46.04,31.97-37.98,66.01-75.21,102.19-109.23,62.73-59.01,142.07-97.16,228-70.87,65.92,20.16,116.48,73.34,162.26,122.27,17.68,18.91,35.04,38.15,51.89,57.83,16.86,19.7,8.78,27.27-8.75,45.13Z"/><path class="cls-6" d="m209.39,367.79c-14.89,5.82-22.36,16.56-25.81,27.3-1.73,5.41-2.47,10.72-2.51,15.84-1.61.04-3.22-.03-4.83-.28-2.84-.45-5.4-1.68-8.2-2.12-.51-.09-.88.28-.8.8.88,5.61,7.94,9.28,14.36,9.45.06.4.09.81.16,1.21-2.39,1.04-4.84,1.7-7.41,2.22-2.5.5-4.96,0-7.44.43-.44.07-.57.61-.38.95,2.67,5.2,11.11,6.32,17.36,4.12.21.61.47,1.18.72,1.78-1.92,1.49-4.23,2.61-6.41,3.57-2.39,1.04-4.99,1.14-7.33,2.2-.43.18-.37.72-.13,1.02,2.64,3.28,8.48,3.25,12.2,2.36,1.73-.41,3.57-1.16,5.21-2.17,9.43,14.86,27.17,23.61,47.37,19.76,19.18-3.65,35.87-18.54,37.26-38.51.72-10.46-.43-19.11-5.44-29.22-11.36-22.96-37.84-28.55-57.95-20.68Z"/><path class="cls-6" d="m198.52,351.47c5.62-10.74,17.47-14.03,28.88-12.77,9.3,1.04,9.2-13.52,0-14.55-16.25-1.8-33.62,5.04-41.43,19.97-4.35,8.3,8.21,15.65,12.56,7.34Z"/><path class="cls-6" d="m413.82,338.7c11.41-1.26,23.25,2.03,28.88,12.77,4.35,8.31,16.9.95,12.56-7.34-7.81-14.93-25.19-21.76-41.44-19.97-9.22,1.02-9.32,15.58,0,14.55Z"/><path class="cls-6" d="m341.92,480.1c-3.44,24.29-39.19,24.28-42.63,0-1.31-9.26-15.31-5.31-14.02,3.86,5.4,38.2,65.26,38.18,70.68,0,1.29-9.18-12.71-13.12-14.03-3.86Z"/><path class="cls-6" d="m468.45,422.45c-2.9-.17-6.12-1.11-8.82-2.26.07-.5.2-.95.24-1.45,6.35-.27,13.24-3.89,14.11-9.42.07-.51-.28-.88-.81-.8-2.53.4-4.73,1.69-7.32,1.99-1.92.24-3.79.34-5.65.34-.17-7.59-1.7-14.56-5.58-22.39-11.36-22.96-37.84-28.55-57.95-20.68-14.89,5.82-22.36,16.56-25.81,27.3-11.51,35.84,16.49,67.87,51.95,61.11,12.44-2.37,23.76-9.52,30.61-19.67,1.33.75,2.68,1.36,3.78,1.76,3.85,1.41,10.48,1.45,13.3-2.03.24-.3.28-.84-.13-1.02-1.93-.87-4.06-.99-6.07-1.66-2.57-.87-4.99-2.3-7.26-3.75h-.01c.3-.71.55-1.44.81-2.17,1.6.48,3.2.81,4.47.97,4.12.51,10.35-1.07,12.4-5.04.17-.34.04-.88-.4-.95-1.95-.34-3.88-.06-5.85-.17Z"/><path class="cls-7" d="m237.23,395.3c-4.56-13.84-18.58-17.3-27.76-11.65-8.38,5.16-13.62,15.61-7.05,28.52,4.86,9.52,18.68,11.32,26.9,5.04,6.92-5.26,10.61-13.69,7.9-21.92Z"/><path class="cls-7" d="m253.98,426.01c-2.57-7.8-10.5-9.76-15.67-6.58-4.74,2.93-7.7,8.82-3.98,16.11,2.74,5.38,10.54,6.39,15.18,2.86,3.91-2.97,5.99-7.74,4.46-12.39Z"/><path class="cls-7" d="m424.5,395.3c-4.56-13.84-18.58-17.3-27.76-11.65-8.38,5.16-13.62,15.61-7.05,28.52,4.86,9.52,18.68,11.32,26.9,5.04,6.92-5.26,10.61-13.69,7.9-21.92Z"/><path class="cls-7" d="m441.25,426.01c-2.57-7.8-10.5-9.76-15.67-6.58-4.74,2.93-7.7,8.82-3.98,16.11,2.74,5.38,10.54,6.39,15.18,2.86,3.91-2.97,5.99-7.74,4.46-12.39Z"/><path class="cls-13" d="m186.87,467.79c31.53,1.86,23.03,38.79-4.96,33.47-26.07-4.96-24.2-35.18,4.96-33.47Zm267.47,0c-31.53,1.86-23.04,38.79,4.94,33.47,26.07-4.96,24.2-35.18-4.94-33.47Z"/></g></g></g></svg>