<?xml version="1.0" encoding="UTF-8"?><svg xmlns="http://www.w3.org/2000/svg" viewBox="0 0 640.27 703.08"><defs><style>.cls-1{fill:#86e4c7;mix-blend-mode:multiply;}.cls-1,.cls-2,.cls-3,.cls-4,.cls-5,.cls-6,.cls-7,.cls-8,.cls-9,.cls-10{stroke-width:0px;}.cls-11{isolation:isolate;}.cls-2{fill:#f2f2f2;}.cls-3{fill:#d8d8d8;}.cls-4{fill:#ff821d;}.cls-5{fill:#660650;}.cls-6{fill:#fff;}.cls-7{fill:#fef49c;}.cls-8{fill:#fffad2;}.cls-9{fill:#ec008b;}.cls-10{fill:#f6b279;}</style></defs><g class="cls-11"><g id="Layer_2"><g id="Layer_5_copy_4"><path class="cls-1" d="m333.54,703.08c-26.4,0-48.35-13.57-57.54-34.27-26.09-9.12-45-24.57-56.29-46.02-14.32-27.21-16.02-76.22.04-107.32-11.55-13.69-33.87-23.41-55.58-32.86-15.91-6.93-32.35-14.09-45.7-23.33-21.75-15.05-44.04-32.46-59.73-57.73-33.07-53.26-44.87-120.5-31.56-179.87C43.91,147.06,94.29,83.65,161.97,52.06c53.77-25.1,106.41-30.25,168.88-30.25h4.34c59.08.18,127.14,3.65,187.39,42.68,62.34,40.41,101.8,98.25,114.11,167.26,11.1,62.3-4.1,132.01-38.74,177.6-16.66,21.93-37.77,40.4-64.52,56.5-11.29,6.79-24.44,12.42-37.16,17.87-19.84,8.5-40.21,17.23-51.95,29.48,18.61,33.17,16.29,88.88-2.26,116.44-11.85,17.6-29.69,31.07-52.02,39.38-8.94,20.58-30.49,34.06-56.49,34.06h0Z"/><path class="cls-6" d="m311.72,681.27c-26.4,0-48.35-13.56-57.54-34.27-26.09-9.12-45-24.57-56.29-46.02-14.32-27.21-16.02-76.22.04-107.32-11.55-13.69-33.87-23.41-55.58-32.86-15.91-6.93-32.35-14.09-45.7-23.33-21.75-15.05-44.04-32.46-59.73-57.73C3.86,326.49-7.94,259.25,5.36,199.87,22.09,125.25,72.48,61.83,140.15,30.25,193.92,5.14,246.56,0,309.03,0h4.34c59.08.18,127.14,3.65,187.39,42.68,62.34,40.41,101.8,98.25,114.11,167.26,11.1,62.3-4.1,132.01-38.74,177.6-16.66,21.93-37.77,40.4-64.52,56.5-11.29,6.79-24.44,12.42-37.16,17.87-19.84,8.5-40.21,17.23-51.95,29.48,18.62,33.17,16.29,88.88-2.26,116.44-11.85,17.6-29.69,31.07-52.02,39.38-8.93,20.58-30.49,34.06-56.49,34.06h0Z"/><path class="cls-3" d="m227.1,524.2c-.8-.47-1.19-1.41-.96-2.3,1.43-5.46,3.44-10.18,5.97-14.02.39-.59,1.04-.93,1.72-.93.29,0,.59.06.87.2,16.58,7.77,37.66,11.71,62.67,11.71,35.9,0,71.25-8.22,89.12-13.12.19-.05.36-.07.55-.07.64,0,1.26.3,1.66.83,2.69,3.61,4.84,8.26,6.38,13.8.26.94-.18,1.94-1.05,2.39-23.38,11.91-56.83,19.02-89.45,19.02-30.61,0-58.12-6.21-77.47-17.49Zm168.12,29.6c-.3,0-.62.07-.9.21-24.4,11.89-57.18,18.7-89.95,18.7-30.15,0-57.57-6-77.23-16.89-.31-.17-.65-.26-1-.26-.4,0-.8.12-1.14.35-.64.43-.99,1.17-.91,1.94.7,6.38,1.86,12.34,3.47,17.72.15.51.5.95.97,1.21,19.25,10.77,46.29,16.71,76.14,16.71,32.19,0,65.31-6.96,88.61-18.62.54-.27.93-.76,1.08-1.35,1.35-5.46,2.33-11.33,2.92-17.46.07-.75-.26-1.47-.88-1.89-.35-.25-.76-.37-1.17-.37Zm1.73-23.96c-.09-.66-.49-1.23-1.07-1.54-.31-.16-.64-.25-.97-.25-.3,0-.61.07-.89.21-24.35,11.79-57.01,18.54-89.61,18.54-30.04,0-57.4-5.96-77.05-16.78-.31-.17-.65-.26-.99-.26-.32,0-.64.07-.93.22-.61.31-1.02.89-1.11,1.57-.64,4.83-.94,9.89-.88,15.04.01.7.37,1.34.96,1.72,19.58,12.41,48.15,19.24,80.43,19.24,34.09,0,68.47-7.63,91.97-20.4.65-.35,1.07-1.04,1.07-1.79.07-5.37-.24-10.6-.91-15.53Zm-65.54,102.99c-.08,0-.16,0-.24.01-5.75.68-11.53,1.02-17.21,1.02-2.07,0-4.12-.04-6.15-.13-5.32-.24-10.73-.7-16.1-1.36-.08-.01-.17-.02-.26-.02-.74,0-1.42.39-1.79,1.04-.41.72-.35,1.62.16,2.28,4.44,5.75,13.05,9.33,22.47,9.33s16.92-3.34,20.81-8.93c.47-.67.5-1.54.08-2.24-.38-.62-1.05-1-1.77-1Zm57.07-50.09c-.27,0-.55.06-.8.17-23.55,9.99-53.98,15.73-83.47,15.73-25.92,0-49.51-4.32-68.21-12.49-.27-.12-.55-.17-.82-.17-.58,0-1.15.25-1.55.71-.59.67-.68,1.66-.21,2.43,1.77,2.91,3.49,5.12,5.27,6.78,22.47,20.82,53.48,23.92,69.97,23.92,2.16,0,4.32-.05,6.45-.15,27.2-1.28,62.14-7.8,74.18-31.58.28-.55.54-1.16.8-1.77l.29-.67c.34-.77.17-1.68-.42-2.28-.4-.4-.93-.61-1.47-.61Z"/><path class="cls-7" d="m296.72,504.9c-22.9,0-41.88-3.57-56.41-10.62-.51-.25-.89-.69-1.06-1.22-6.36-19.61-18.21-33.63-38.45-45.47-12.95-7.58-26.81-13.66-40.21-19.55-17.6-7.73-35.8-15.71-52.5-27.28-43.73-30.26-68.96-82.89-71.04-148.17-2.23-69.88,35.11-136.66,99.88-178.64,52.5-34.02,111.85-37.04,168.14-37.22h4.41c63.01,0,112.09,5.24,162,31.37,65.03,34.04,106.09,99.55,109.82,175.24,2.84,57.67-19.6,114.35-58.57,147.93-29.85,25.72-66.33,40.54-101.6,54.88l-1.61.65c-18.53,7.54-32.74,23.61-40.02,45.26-.22.66-.76,1.16-1.44,1.34-16.47,4.29-48.95,11.5-81.34,11.5Z"/><path class="cls-10" d="m548.14,138.3c12.75,29.98,20.91,62,21.24,93.59,1.11,106.85-80.53,172.21-176.99,195.04-100.09,23.68-248.12-6.52-308.56-95.79-30.27-44.71-35.36-101.04-26.61-152.95,1.98-11.77,5.21-22.69,9.29-33.08-20.15,32.62-30.66,69.58-29.45,107.49,2.08,65.29,27.32,117.91,71.04,148.17,16.7,11.57,34.9,19.55,52.5,27.28,13.4,5.88,27.25,11.96,40.21,19.55,20.23,11.84,32.09,25.86,38.45,45.47.17.53.55.97,1.06,1.22,14.53,7.05,33.51,10.62,56.41,10.62,32.39,0,64.87-7.2,81.34-11.5.67-.18,1.21-.68,1.44-1.34,7.28-21.65,21.49-37.72,40.02-45.26l1.61-.65c35.27-14.33,71.75-29.16,101.6-54.88,38.97-33.58,61.41-90.26,58.57-147.93-1.9-38.62-13.58-74.56-33.15-105.05Z"/><path class="cls-8" d="m513.75,169.41c-7.87-25.78-25.63-45.04-47.68-59.33-69.36-44.94-189.91-57.3-289.23-2.23-109.25,60.56-82.34,183.05-2.14,215.92,86.49,35.44,218.32,23.98,274.37-5.14,53.03-27.54,83.1-88.86,64.68-149.22Z"/><path class="cls-2" d="m387.04,505.65c-.18,0-.36.02-.55.07-17.88,4.9-53.22,13.12-89.12,13.12-25.01,0-46.09-3.94-62.67-11.71-.28-.13-.58-.2-.87-.2-.67,0-1.33.33-1.72.93-1.22,1.84-2.3,3.92-3.27,6.15,27.67,20.36,78.54,19.27,106.3,15.42,16.6-2.3,38.05-6.97,57.8-15.03-1.23-2.97-2.6-5.71-4.25-7.93-.4-.53-1.02-.83-1.66-.83Z"/><path class="cls-2" d="m396.96,529.84c-.09-.66-.49-1.23-1.07-1.54-.31-.16-.64-.25-.97-.25-.3,0-.61.07-.89.21-24.35,11.79-57.01,18.54-89.61,18.54-30.04,0-57.4-5.96-77.05-16.78-.31-.17-.65-.26-.99-.26-.32,0-.64.07-.93.22-.61.31-1.02.89-1.11,1.57-.22,1.67-.35,3.4-.49,5.12,33.2,24.08,82.38,20.82,122.11,15.67,16.61-2.15,34.69-6.34,51.79-13.06-.13-3.23-.36-6.4-.77-9.44Z"/><path class="cls-2" d="m397.28,556.06c.07-.75-.26-1.47-.88-1.89-.35-.25-.76-.37-1.17-.37-.3,0-.62.07-.9.21-24.4,11.89-57.18,18.7-89.95,18.7-30.15,0-57.57-6-77.23-16.89-.31-.17-.65-.26-1-.26-.4,0-.8.12-1.14.35-.64.43-.99,1.17-.91,1.94.19,1.75.5,3.4.77,5.09,33.21,25,101.85,19.3,133.43,13.03,9.13-1.81,23.33-6.75,38.21-13.95.28-1.97.59-3.92.78-5.95Z"/><path class="cls-2" d="m389.28,588.08c.28-.55.54-1.16.8-1.77l.29-.67c.34-.77.17-1.68-.42-2.28-.4-.4-.93-.61-1.47-.61-.27,0-.55.06-.8.17-23.55,9.99-53.98,15.73-83.47,15.73-25.92,0-49.51-4.32-68.21-12.49-.27-.12-.55-.17-.82-.17-.58,0-1.15.25-1.55.71-.59.67-.68,1.66-.21,2.43.71,1.17,1.41,2.15,2.12,3.1,34.14,17.75,77.06,16.18,116.42,10.16,9.77-1.49,20.77-3.62,32.07-6.49,2.05-2.37,3.83-4.96,5.27-7.8Z"/><path class="cls-5" d="m489.54,59.99c-53.67-34.78-114.49-39.18-176.24-39.36-58.27-.18-110.46,3.11-164.44,28.31-63.27,29.53-108.26,87.96-123.39,155.45-12.43,55.44-.83,116.52,28.96,164.49,13.49,21.73,33.2,37.3,53.95,51.65,34.02,23.55,96.6,34.11,113.96,73.55-19.5,21.74-18.77,73.42-6.21,97.31,11.35,21.57,31.92,33.16,54.48,39.09,6.35,39.6,74.79,40.72,81,.46,20.63-5.76,39.52-16.78,51.51-34.61,16.26-24.17,16.09-83.95-5.98-104.52,17.51-35.33,71.31-45.88,103.82-65.43,22.7-13.65,42.71-30.22,58.74-51.3,33.2-43.69,44.34-108.32,34.86-161.51-11.73-65.74-49.36-117.5-105.03-153.58Zm-102.5,447.73c2.66,3.57,4.64,8.05,6.04,13.12-43.67,22.24-121.13,27.13-164.95,1.58,1.35-5.18,3.27-9.73,5.7-13.41,43.68,20.48,109.03,10.82,153.21-1.29Zm-160.9,49.91c46,25.49,123.19,20.6,169.08-1.76-.58,6.05-1.57,11.9-2.87,17.16-43.34,21.69-119.01,26.48-162.82,1.95-1.6-5.36-2.73-11.26-3.4-17.35Zm169.67-12.28c-44.01,23.92-126.17,29.2-170.31,1.23-.06-5.03.23-10,.86-14.74,45.92,25.3,122.68,20.49,168.55-1.71.67,4.89.96,10.03.9,15.22Zm-104.34,89.07c5.46.68,10.92,1.14,16.26,1.37,7.73.34,15.72.04,23.69-.9-7.72,11.09-31.47,10.51-39.95-.48Zm23.54-16.82c-26.16,1.24-55.31-5.05-74.92-23.22-1.81-1.68-3.42-3.87-4.91-6.33,44.22,19.31,109.96,15.16,153.31-3.24-.35.79-.68,1.63-1.04,2.34-12.17,24.05-48.85,29.34-72.44,30.45Zm206.37-227.88c-30.04,25.88-66.44,40.47-102.63,55.18-20.5,8.34-34.37,26.19-41.2,46.51-39.36,10.26-99.11,19.07-136.34,1.02-6.82-21.03-19.92-35.23-39.37-46.61-30.02-17.57-63.31-26.48-92.58-46.74-48.08-33.28-68.34-89.89-70.15-146.55-2.35-73.71,38.52-137.68,98.95-176.84,51.18-33.17,108.36-36.7,167.02-36.88,58.81-.18,111.81,3.06,165.44,31.13,65.61,34.34,105.12,100.54,108.72,173.52,2.63,53.35-16.9,110.97-57.86,146.26Z"/><path class="cls-5" d="m197.99,210.77c-14.89,5.82-22.36,16.56-25.81,27.29-1.74,5.42-2.48,10.72-2.52,15.85-1.61.04-3.21-.04-4.82-.29-2.84-.45-5.4-1.68-8.2-2.12-.52-.09-.88.28-.8.8.88,5.6,7.95,9.27,14.36,9.43.06.4.09.82.16,1.21-2.39,1.03-4.84,1.7-7.42,2.22-2.5.5-4.95,0-7.44.43-.44.07-.57.61-.39.96,2.67,5.19,11.12,6.32,17.36,4.12.22.6.48,1.18.72,1.76-1.9,1.5-4.22,2.61-6.41,3.57-2.39,1.04-4.98,1.15-7.32,2.2-.43.19-.37.73-.14,1.03,2.65,3.28,8.48,3.26,12.21,2.36,1.74-.42,3.56-1.16,5.22-2.17,9.44,14.85,27.18,23.6,47.37,19.76,19.18-3.65,35.87-18.54,37.25-38.51.73-10.45-.43-19.1-5.43-29.22-11.36-22.95-37.85-28.55-57.95-20.68Z"/><path class="cls-5" d="m187.12,194.44c5.62-10.74,17.47-14.03,28.87-12.76,9.31,1.03,9.21-13.53,0-14.55-16.25-1.8-33.61,5.04-41.43,19.96-4.35,8.3,8.21,15.65,12.56,7.34Z"/><path class="cls-5" d="m402.42,181.68c11.4-1.26,23.25,2.03,28.87,12.76,4.35,8.31,16.9.96,12.56-7.34-7.81-14.93-25.18-21.76-41.43-19.96-9.22,1.02-9.32,15.58,0,14.55Z"/><path class="cls-5" d="m337.53,306.83h-56.65c-1.78,0-3.12.64-4.23,1.49-1.79,1.13-3.11,2.99-3.05,5.78.48,21.59,10.94,43.84,34.77,45.77,24.91,2.02,35.99-25.48,36.44-45.77.08-3.96-3.37-7.27-7.27-7.27Z"/><path class="cls-5" d="m457.05,265.43c-2.91-.18-6.13-1.11-8.82-2.27.07-.49.2-.95.24-1.45,6.35-.26,13.23-3.88,14.11-9.4.08-.52-.28-.89-.8-.8-2.53.4-4.74,1.69-7.32,2-1.92.23-3.79.34-5.65.33-.18-7.59-1.71-14.56-5.58-22.38-11.36-22.95-37.85-28.55-57.95-20.68-14.89,5.82-22.36,16.56-25.81,27.29-11.51,35.84,16.49,67.87,51.95,61.11,12.44-2.37,23.76-9.52,30.6-19.67,1.35.76,2.68,1.36,3.79,1.77,3.84,1.4,10.49,1.44,13.3-2.04.24-.29.28-.84-.14-1.03-1.92-.87-4.05-.98-6.07-1.66-2.56-.86-4.99-2.29-7.26-3.74,0,0,0,0-.01,0,.31-.71.55-1.44.81-2.17,1.61.48,3.2.8,4.48.96,4.12.52,10.36-1.07,12.39-5.04.18-.34.05-.88-.39-.96-1.95-.33-3.88-.05-5.85-.17Z"/><path class="cls-6" d="m225.82,238.27c-4.55-13.82-18.57-17.29-27.75-11.64-8.38,5.16-13.62,15.61-7.05,28.53,4.86,9.52,18.68,11.31,26.9,5.04,6.92-5.26,10.61-13.7,7.89-21.93Z"/><path class="cls-6" d="m242.57,268.99c-2.57-7.81-10.49-9.77-15.66-6.58-4.74,2.92-7.7,8.81-3.98,16.1,2.74,5.38,10.55,6.39,15.19,2.85,3.9-2.98,5.99-7.74,4.45-12.38Z"/><path class="cls-6" d="m413.09,238.27c-4.55-13.82-18.57-17.29-27.75-11.64-8.38,5.16-13.62,15.61-7.04,28.53,4.86,9.52,18.68,11.31,26.9,5.04,6.92-5.26,10.61-13.7,7.89-21.93Z"/><path class="cls-6" d="m429.84,268.99c-2.57-7.81-10.49-9.77-15.66-6.58-4.74,2.92-7.7,8.81-3.98,16.1,2.74,5.38,10.55,6.39,15.19,2.85,3.9-2.98,5.99-7.74,4.45-12.38Z"/><path class="cls-9" d="m309.25,334.31c-.7-.06-1.39-.09-2.06-.09-7.66,0-13.48,3.77-17.78,9.29,4.56,5.56,10.9,9.5,19.45,10.19.7.06,1.39.08,2.07.08,7.65,0,13.48-3.77,17.77-9.29-4.56-5.56-10.89-9.5-19.45-10.19Z"/><path class="cls-4" d="m175.47,310.77c31.53,1.86,23.03,38.79-4.96,33.46-26.07-4.96-24.2-35.18,4.96-33.46Zm267.46,0c-31.53,1.86-23.03,38.79,4.96,33.46,26.06-4.96,24.2-35.18-4.96-33.46Z"/></g></g></g></svg>