<?xml version="1.0" encoding="UTF-8"?><svg xmlns="http://www.w3.org/2000/svg" viewBox="0 0 676.46 553.56"><defs><style>.cls-1{fill:#86e4c7;mix-blend-mode:multiply;}.cls-1,.cls-2,.cls-3,.cls-4,.cls-5,.cls-6,.cls-7,.cls-8,.cls-9,.cls-10{stroke-width:0px;}.cls-11{isolation:isolate;}.cls-2{fill:#e23f58;}.cls-3{fill:#acff1d;}.cls-4{fill:#660650;}.cls-5{fill:#fff;}.cls-6{fill:#fef49c;}.cls-7{fill:#ec008b;}.cls-8{fill:#ff9a83;}.cls-9{fill:#f6b279;}.cls-10{fill:#ff5671;}</style></defs><g class="cls-11"><g id="Layer_2"><g id="Layer_5_copy_4"><path class="cls-1" d="m348.75,553.56c-27,0-52.61-4.28-74.06-12.34-.16-.06-.32-.13-.48-.19-1.4-.5-2.78-1.12-4.12-1.83-59.89-31.95-105.36-90.81-141.9-138.1-35.33-45.71-78.68-107.07-102.05-177.81-5.79-9.63-5.85-22.35.38-31.65,26.76-40.05,47.56-87.24,65.41-148.49,3.51-12.02,13.64-20.23,25.98-21.14,1.11-.12,2.24-.18,3.4-.18,1.69,0,3.42.14,5.22.45,67.49,12.07,139.13,18.2,212.92,18.2s152.13-6.15,232.23-18.28c1.53-.23,3-.33,4.43-.33.87,0,1.73.04,2.58.11,12.75.55,23.47,8.93,27.05,21.19,17.02,58.36,36.7,103.88,61.88,142.95,7.9,7.47,10.83,18.52,7.49,29.45-22.6,73.75-67.75,137.9-104.57,185.55-36.54,47.29-82.02,106.15-141.9,138.1-2.73,1.46-5.6,2.48-8.55,3.05-20.9,7.41-45.49,11.32-71.31,11.32h-.01Z"/><path class="cls-5" d="m326.93,531.74c-27,0-52.61-4.28-74.06-12.34-.16-.06-.32-.13-.48-.19-1.4-.5-2.78-1.12-4.12-1.83-59.89-31.95-105.36-90.81-141.9-138.1-35.33-45.71-78.68-107.07-102.05-177.81-5.79-9.63-5.85-22.35.38-31.65C31.47,129.77,52.26,82.57,70.12,21.33,73.63,9.3,83.76,1.1,96.1.18c1.11-.12,2.25-.18,3.4-.18,1.69,0,3.42.13,5.22.45,67.49,12.07,139.13,18.2,212.92,18.2S469.76,12.5,549.86.37c1.53-.23,3-.33,4.43-.33.87,0,1.73.04,2.58.11,12.75.55,23.47,8.93,27.05,21.19,17.02,58.36,36.71,103.88,61.88,142.95,7.9,7.47,10.83,18.52,7.49,29.45-22.6,73.75-67.76,137.9-104.57,185.55-36.54,47.29-82.02,106.15-141.9,138.1-2.73,1.46-5.6,2.48-8.55,3.05-20.9,7.41-45.49,11.32-71.31,11.32h-.01Z"/><path class="cls-6" d="m284.32,487.47c.06.66-.21,1.31-.71,1.74-.37.33-.85.5-1.34.5-.16,0-.32-.01-.48-.06-3.91-.92-7.61-2.01-11.27-3.19-.8-.26-1.36-.97-1.43-1.8,0,0-.24-3.69-.33-4.64-14.12-125.97-100.97-239.51-226.66-296.26-.55-.25-.96-.72-1.13-1.29-.17-.57-.08-1.19.23-1.7l1.14-1.79c1-1.58,2.01-3.15,2.98-4.74.38-.62,1.06-.99,1.76-.99.22,0,.43.03.65.1,125.07,41.4,224.56,173.51,236.58,314.13ZM552.3,43.58l-1.41-4.62c-.26-.88-1.07-1.46-1.97-1.46-.1,0-.2,0-.3.02-79.69,11.67-157.42,17.58-231.06,17.58s-144.62-5.85-212.14-17.39c-.11-.02-.23-.03-.35-.03-.89,0-1.71.58-1.97,1.46l-1.56,5.11c-.34,1.09.27,2.24,1.35,2.58,65.85,20.72,139.45,23.37,196.22,23.37,13.07,0,26.03-.15,38.81-.36,68.11-1.12,145.32-2.39,213.03-23.69,1.09-.34,1.69-1.49,1.36-2.58Zm60.53,137.19l-1.21-1.9c-.97-1.5-1.92-3-2.84-4.52-.38-.62-1.07-.99-1.76-.99-.22,0-.44.04-.65.11-124.83,41.5-224.17,173.52-236.21,313.91-.06.66.21,1.31.71,1.74.38.33.85.5,1.35.5.16,0,.31-.01.47-.06,3.79-.9,7.39-1.98,10.94-3.13.8-.25,1.36-.97,1.43-1.8l.18-2.43c.27-3.56.53-7.12.98-10.72.03-.29.1-.55.28-1.48,0-.02.03-.85.03-.86,17.32-121.06,103.69-230.41,225.41-285.39.54-.25.95-.72,1.12-1.29.17-.57.08-1.19-.23-1.69Z"/><path class="cls-10" d="m253.96,474.14c.11.8-.26,1.58-.94,2.02-.34.21-.72.31-1.1.31s-.78-.11-1.12-.33c-43.94-28.56-79.44-73.49-110.76-113.12-47.02-59.51-77.48-110.01-95.87-158.92-.3-.79-.08-1.68.54-2.25.39-.35.89-.53,1.39-.53.31,0,.62.07.91.21,113.01,55.8,192.31,160.26,206.95,272.62Zm356.61-272.9c-.39-.35-.89-.53-1.39-.53-.31,0-.61.06-.9.21-113.39,55.47-191.17,156.77-208.06,271.02-.07.57-.27,3-.27,3-.09.79.29,1.56.97,1.97.33.21.71.31,1.09.31s.77-.11,1.11-.33c43.69-27.95,79.25-71.6,111.93-113.9,34.82-45.06,73.47-99.24,96.07-159.5.3-.79.08-1.68-.54-2.25Zm-7.63-31.85c.58-.2,1.05-.65,1.26-1.23.22-.58.16-1.23-.14-1.76-19.1-32.88-35.17-70.23-49.13-114.15-.28-.87-1.09-1.44-1.96-1.44-.21,0-.42.03-.62.09-68.69,21.72-145.23,23.75-224.15,24.01l-14.8.02c-66.68,0-143.55-1.8-211.94-23.35-.21-.06-.41-.09-.62-.09-.87,0-1.68.55-1.96,1.43-13.91,43.58-29.87,80.66-48.83,113.34-.3.54-.36,1.18-.14,1.76.21.58.68,1.03,1.26,1.23,126.83,43.08,227.05,177.85,238.29,320.45.07.94.77,1.7,1.69,1.87,11.45,2.03,23.49,3.06,35.8,3.06s24.75-1.07,36.38-3.15c.92-.17,1.61-.94,1.69-1.87,11.27-142.37,111.33-277.05,237.92-320.24Z"/><path class="cls-2" d="m520.71,258.85c-65.09,56.43-108.42,131.4-120.5,213.09-.07.57-.27,3-.27,3-.09.79.29,1.56.97,1.97.33.21.71.31,1.09.31s.77-.11,1.11-.33c10.3-6.59,20.12-14.12,29.59-22.23,4.08-19.94,8.92-39.72,14.8-59.4,12.65-42.25,33.02-81.52,58.56-117.33,4.67-6.54,9.61-12.85,14.65-19.08Z"/><path class="cls-2" d="m137.15,262.51c41.47,57.97,67.96,122.56,84.68,191.54,9.26,8.03,18.86,15.53,28.96,22.09.34.23.73.33,1.12.33s.76-.11,1.1-.31c.68-.43,1.05-1.21.94-2.02-10.33-79.28-52.96-154.54-116.8-211.63Z"/><path class="cls-8" d="m483.61,91.03c-87.73,40.76-218.74,35.61-317.8,6.26-39.53-11.71-69.1,51.34-32.02,70.8,85.27,44.76,137.3,105.58,172.54,236.58,8.73,32.43,37.49,37.63,44.55,1.82,10.88-55.26,71.12-189.84,158.34-238.8,41.49-23.31,17.37-96.62-25.61-76.65Z"/><path class="cls-9" d="m47.74,173.34c-.21-.07-.43-.1-.65-.1-.7,0-1.38.36-1.76.99-.97,1.59-1.98,3.17-2.98,4.74l-1.14,1.79c-.32.5-.41,1.13-.23,1.7.17.58.58,1.04,1.13,1.29,15.89,7.17,31.15,15.26,45.73,24.16,35.76,13.97,67.61,36.95,95.76,62.64,14.59,13.32,27.61,27.94,39.45,43.45-43.13-65.74-105.19-117.46-175.3-140.67Z"/><path class="cls-9" d="m567.74,207.01c14.13-8.56,28.88-16.34,44.2-23.26.54-.25.95-.72,1.12-1.29.17-.57.08-1.19-.23-1.69l-1.21-1.9c-.97-1.5-1.92-3-2.84-4.52-.38-.62-1.07-.99-1.76-.99-.22,0-.44.04-.65.11-64.62,21.48-122.37,67.26-164.76,125.87,37.4-37.2,80.33-68.91,126.13-92.33Z"/><path class="cls-4" d="m630.23,178.15c-30.54-46.62-50.53-97.66-66.1-151.05-1.31-4.49-4.89-6.38-8.52-6.37-.85-.09-1.73-.12-2.66.02-149.34,22.61-302.76,26.67-451.85,0-1.12-.2-2.14-.16-3.12-.03-3.47.14-6.81,2.08-8.07,6.38-15.91,54.58-36.36,106.73-68.08,154.19-2.02,3.03-1.47,8.06,1.14,10.86,20.46,63.69,59.16,122.03,99.71,174.52,37.36,48.34,80.28,103.17,135.29,132.51.65.35,1.3.61,1.94.8.09.04.14.08.23.12,38.86,14.63,94.03,14.69,133.08.22,1.25-.08,2.56-.43,3.89-1.14,55.01-29.35,97.94-84.17,135.29-132.51,41.5-53.71,81.12-113.54,101.17-178.98,1.32-4.31-.46-7.66-3.34-9.53Zm-245.75,290.7c-.05.38-.03.72-.04,1.09-.11.43-.23.85-.28,1.33-.55,4.39-.82,8.8-1.16,13.2-3.51,1.13-7.05,2.2-10.78,3.09,11.45-133.52,106.43-269.45,234.8-312.13,1.32,2.17,2.71,4.3,4.06,6.44-115.68,52.26-208.34,159.39-226.6,286.98ZM548.91,39.55c.47,1.55.94,3.1,1.42,4.64-67.33,21.18-142.68,22.45-212.44,23.6-76.82,1.26-160.21.42-234.38-22.92.53-1.7,1.04-3.42,1.56-5.13,146.8,25.09,296.81,21.34,443.84-.19Zm-278.1,440.28c-14.83-132.29-108.39-244.01-227.86-297.95,1.38-2.19,2.81-4.37,4.15-6.57,128.57,42.56,223.74,178.66,235.17,312.34-3.85-.91-7.51-1.99-11.12-3.15-.12-1.55-.2-3.12-.34-4.67Zm-129.16-118.1c-37.52-47.49-73.96-100.94-95.55-158.37,105.86,52.27,190.3,152,205.82,271.04-43.56-28.31-78.87-72.95-110.26-112.68Zm149.86,127.83c-10.84-137.6-107.61-277.39-239.68-322.24,20.84-35.92,36.37-74.13,49.01-113.75,72.19,22.74,152.61,23.66,227.36,23.42,73.28-.24,153.93-1.71,224.77-24.1,12.68,39.92,28.31,78.39,49.3,114.56-131.86,44.99-228.43,184.59-239.3,322.03-22.93,4.13-48.49,4.17-71.46.09Zm221.9-127.83c-31.06,40.2-67.45,85.28-111.42,113.42.11-.99.13-1.98.26-2.97,17.57-118.85,100.7-217.45,206.92-269.42-21.68,57.78-58.44,110.66-95.76,158.96Z"/><path class="cls-4" d="m232.49,128.37c4.36-8.32,13.56-10.88,22.41-9.9,7.23.8,7.15-10.49,0-11.29-12.61-1.41-26.09,3.91-32.15,15.48-3.38,6.45,6.36,12.15,9.74,5.7Z"/><path class="cls-4" d="m399.58,118.47c8.85-.98,18.05,1.58,22.41,9.9,3.38,6.45,13.12.75,9.74-5.7-6.06-11.58-19.54-16.89-32.15-15.48-7.15.8-7.23,12.09,0,11.29Z"/><path class="cls-4" d="m278.64,169.96c-15.09-10.55-36.09-20.01-53.28-20.65-.32,0-.51.42-.27.64,7.27,6.31,16.56,10.58,25.2,14.74,4.65,2.24,9.11,4.75,13.55,7.32-2.66.06-5.31.18-7.91.32-8.55.46-16.39,1.35-23.55,6.29-.39.27-.31.82.13.97,6.8,2.43,12.98,2.13,20.13,1.68,4.69-.3,9.47-.2,14.22-.23-3.68,2.23-7.34,4.51-11.11,6.55-8.3,4.52-17.88,8.42-24.78,14.98-.24.23-.06.64.26.64,14.94.38,32.98-8.61,46.41-17.81,6.02-4.12,7.19-11.13,1.01-15.45Z"/><path class="cls-4" d="m376.85,185.41c13.43,9.2,31.48,18.18,46.41,17.81.32,0,.5-.41.26-.64-6.9-6.56-16.47-10.45-24.77-14.98-3.77-2.04-7.43-4.32-11.12-6.55,4.75.03,9.53-.07,14.22.23,7.14.45,13.32.75,20.13-1.68.44-.14.51-.7.12-.97-7.16-4.94-14.99-5.83-23.54-6.29-2.6-.14-5.26-.26-7.91-.32,4.43-2.56,8.91-5.08,13.54-7.32,8.64-4.17,17.93-8.43,25.2-14.74.25-.22.05-.65-.26-.64-17.19.64-38.2,10.1-53.29,20.65-6.18,4.32-5.01,11.33,1.01,15.45Z"/><path class="cls-4" d="m360.83,223.64c-14.08,2.41-53.07,2.94-67.17,0-.91-.19-1.09,1.14-.44,1.58,5.48,3.64,12.22,6.14,19.4,7.54,1,7.92,5.42,15.31,14.28,16.02,9.25.74,13.91-8.15,14.97-16.02,7.17-1.4,13.92-3.9,19.4-7.54.65-.44.47-1.74-.44-1.58Z"/><path class="cls-3" d="m223.44,218.66c24.47,1.43,17.88,30.09-3.83,25.96-20.23-3.84-18.78-27.29,3.83-25.96Zm207.59,0c-24.47,1.43-17.88,30.09,3.84,25.96,20.23-3.84,18.78-27.29-3.84-25.96Z"/><path class="cls-7" d="m328.34,234.07c-.23,2.27-.53,4.51-.99,6.68-.03.11-.18.11-.21,0-.47-2.17-.77-4.4-.99-6.67-2.86,0-5.71-.11-8.54-.44.81,4.14,3.09,9.89,9.67,10.42l.68.03c5,0,7.9-5.38,8.92-10.59-2.82.36-5.68.54-8.54.58Z"/></g></g></g></svg>