<?xml version="1.0" encoding="UTF-8"?><svg id="Layer_2" xmlns="http://www.w3.org/2000/svg" viewBox="0 0 133.92 164.33"><defs><style>.cls-1,.cls-2,.cls-3,.cls-4,.cls-5,.cls-6,.cls-7,.cls-8{stroke:#3f3115;stroke-linecap:round;stroke-miterlimit:10;}.cls-1,.cls-3,.cls-5,.cls-6{stroke-width:3.34px;}.cls-1,.cls-7{fill:#b6fbf3;}.cls-2,.cls-6{fill:none;}.cls-2,.cls-7,.cls-8{stroke-width:3px;}.cls-3{fill:#fff;}.cls-4{stroke-width:2.73px;}.cls-4,.cls-8,.cls-9{fill:#e695b1;}.cls-10{opacity:.2;}.cls-10,.cls-11{fill:#3f3115;}.cls-10,.cls-11,.cls-9{stroke-width:0px;}.cls-5{fill:#f7e36f;}.cls-11{opacity:.1;}</style></defs><g id="OBJECTS"><path class="cls-8" d="m97.13,40.35c3.1,2.37,7.61,1.09,8.98-2.57,2.27-6.05,4.24-13.95-.42-14.99-4.29-.96-9.22,2.53-12.73,5.8-2.64,2.46-2.45,6.7.41,8.89l3.75,2.87Z"/><line class="cls-3" x1="101.63" y1="29.84" x2="95.52" y2="37.04"/><path class="cls-8" d="m16.67,42.6c-3.1,2.37-7.61,1.09-8.98-2.57-2.27-6.05-4.24-13.95.42-14.99,4.29-.96,9.22,2.53,12.73,5.8,2.64,2.46,2.45,6.7-.41,8.89l-3.75,2.87Z"/><line class="cls-3" x1="12.17" y1="32.09" x2="18.28" y2="39.3"/><path class="cls-10" d="m16.38,159.78c0,2.51,18.68,4.55,41.72,4.55s41.72-2.04,41.72-4.55-18.68-4.55-41.72-4.55-41.72,2.04-41.72,4.55Z"/><path class="cls-3" d="m106.21,107.36c0,40.94-12.33,36.6-46.77,36.6s-50.53,4.34-50.53-36.6S-7.17,18.04,57.4,18.04c60.29,0,48.81,48.38,48.81,89.32Z"/><path class="cls-7" d="m24.99,22.15c-2.48,2.04-4.99,4.93-3.55,8.25.46,1.07,1.31,1.94,2.31,2.53,1.54.92,3.21,1.23,4.92,1.3.6.02.78.85.23,1.11-2.14,1.02-3.89,2.58-4.19,5.59-.16,1.63.2,3.27.84,4.77,2.13,5.01,6.54,8.74,11.49,10.92,4.63,2.03,9.73,2.8,14.78,3,8.91.36,18.22-1.09,25.57-6.14,7.35-5.05,12.28-14.25,10.44-22.97-1.53-7.29-7.49-13.13-14.41-15.9-4.28-1.71-8.91-2.38-13.5-2.37-4.28,0-7.86,1.17-11.91,1.89-4.16.75-8.01.16-12.17,1.69-3.95,1.44-7.6,3.66-10.84,6.32Z"/><path class="cls-11" d="m69.72,20.28s5.73,19.87-11.28,20.58c-17.01.71-18.07-16.4-13.18-20.58s24.46,0,24.46,0Z"/><path class="cls-9" d="m33.2,117.05c2.37-2.37,2.37-6.21,0-8.58-2.37-2.37-7.6-3.76-9.97-1.39-2.37,2.37-.98,7.6,1.39,9.97,2.37,2.37,6.21,2.37,8.58,0Z"/><path class="cls-9" d="m79.06,117.05c-2.37-2.37-2.37-6.21,0-8.58s7.6-3.76,9.97-1.39c2.37,2.37.98,7.6-1.39,9.97-2.37,2.37-6.21,2.37-8.58,0Z"/><path class="cls-3" d="m41.67,144.1s.96,5.67.29,14.95"/><path class="cls-3" d="m69.2,144.59s1.57,6.73-.16,14.25"/><path class="cls-6" d="m7.59,116.78s-7.43,5.79-5.65,14.48"/><path class="cls-6" d="m106.19,121.88s6.89,6.42,15.19,3.29"/><path class="cls-11" d="m59.44,128.3c-32.25,0-48.41,3.8-50.34-29.33-.13,2.82-.2,5.62-.2,8.39,0,40.94,16.09,36.6,50.53,36.6s46.77,4.34,46.77-36.6c0-2.61-.06-5.25-.18-7.91-1.61,32.61-14.5,28.85-46.59,28.85Z"/><path class="cls-9" d="m90.84,36.36c-.44.47-.34,1.21-.13,1.82.67,1.92,2.12,3.44,3.45,4.97,1.33,1.53,2.63,3.25,2.86,5.27.09.82.14,1.87.91,2.17.54.21,1.17-.13,1.46-.63.3-.5.33-1.1.32-1.68-.04-2.91-1.03-5.79-2.74-8.15-.78-1.07-4.54-5.49-6.15-3.77Z"/><path class="cls-5" d="m49.78,23.64l6.14-20.99c.38-1.29,2.19-1.31,2.6-.04l6.74,20.69c1.44,4.41-.87,9.31-5.29,10.68-1.32.41-2.71.57-4.08.28-.27-.06-.54-.13-.79-.21-4.31-1.33-6.58-6.09-5.32-10.42Z"/><path class="cls-4" d="m52.7,20.43c2.21,1.27,6.9,3.56,11.26,3.1.7-.07,1.3.45,1.3,1.15v3.86c0,.07,0,.13-.02.2-.15.82-1.48,6.32-9.36,5.52-8.51-.86-6.11-10.63-6.11-10.63l1.22-2.49c.2-.74,1.04-1.09,1.7-.72Z"/><line class="cls-6" x1="122.88" y1="108.66" x2="119.26" y2="138.85"/><path class="cls-5" d="m125.51,95l1.28,3.26c.17.43.53.74.98.85l3.41.79c1.12.26,1.46,1.69.57,2.43l-2.7,2.22c-.35.29-.54.74-.5,1.19l.3,3.48c.1,1.15-1.16,1.91-2.13,1.29l-2.95-1.88c-.39-.25-.87-.29-1.29-.11l-3.22,1.36c-1.06.45-2.17-.51-1.88-1.63l.88-3.38c.12-.44,0-.91-.29-1.26l-2.29-2.64c-.75-.87-.18-2.23.97-2.3l3.49-.21c.46-.03.87-.28,1.11-.67l1.81-2.99c.59-.99,2.06-.86,2.48.21Z"/><path class="cls-1" d="m54.15,12.65s5.32,4.36,8.69,3.24l-4.9-13.18c-.15-.4-.7-.43-.89-.04-1.1,2.24-3.57,7.66-2.9,9.99Z"/><path class="cls-6" d="m49.78,23.64l6.14-20.99c.38-1.29,2.19-1.31,2.6-.04l6.74,20.69c1.44,4.41-.87,9.31-5.29,10.68-1.32.41-2.71.57-4.08.28-.27-.06-.54-.13-.79-.21-4.31-1.33-6.58-6.09-5.32-10.42Z"/><path class="cls-2" d="m25.47,105.86s-2.07-9.13,6.2-9.35c6.4-.17,6.2,9.35,6.2,9.35"/><path class="cls-2" d="m74.45,105.86s-2.07-9.13,6.2-9.35c6.4-.17,6.2,9.35,6.2,9.35"/><path class="cls-2" d="m46.82,97.76s8.25,7.16,19.57,0"/></g></svg>