<?xml version="1.0" encoding="UTF-8"?><svg id="Layer_2" xmlns="http://www.w3.org/2000/svg" viewBox="0 0 120.01 138.11"><defs><style>.cls-1{fill:#e27fb6;}.cls-1,.cls-2,.cls-3,.cls-4,.cls-5,.cls-6{stroke:#3f3115;stroke-linecap:round;stroke-miterlimit:10;}.cls-1,.cls-2,.cls-4,.cls-5{stroke-width:3.34px;}.cls-2{fill:#b6fbf3;}.cls-3,.cls-5{fill:none;}.cls-3,.cls-6{stroke-width:3px;}.cls-4,.cls-7{fill:#fff;}.cls-8{opacity:.2;}.cls-8,.cls-9,.cls-10{fill:#3f3115;}.cls-8,.cls-9,.cls-10,.cls-7,.cls-11{stroke-width:0px;}.cls-9{opacity:.1;}.cls-6,.cls-11{fill:#e695b1;}</style></defs><g id="OBJECTS"><path class="cls-6" d="m11.3,23.75S.96,3.39,8.64,1.66C16.31-.06,26.02,12.47,26.02,12.47l-14.72,11.28Z"/><line class="cls-4" x1="12.71" y1="8.71" x2="18.82" y2="15.91"/><path class="cls-6" d="m96.32,23.75s10.34-20.36,2.66-22.08c-7.67-1.72-17.38,10.81-17.38,10.81l14.72,11.28Z"/><line class="cls-4" x1="94.92" y1="8.71" x2="88.81" y2="15.91"/><path class="cls-8" d="m11.71,133.57c0,2.51,18.68,4.55,41.72,4.55s41.72-2.04,41.72-4.55-18.68-4.55-41.72-4.55-41.72,2.04-41.72,4.55Z"/><path class="cls-2" d="m101.55,81.14c0,40.94-12.33,36.6-46.77,36.6S4.24,122.08,4.24,81.14.34,8.71,52.74,8.71c57.23,0,48.81,31.49,48.81,72.43Z"/><path class="cls-11" d="m28.54,90.84c2.37-2.37,2.37-6.21,0-8.58-2.37-2.37-7.6-3.76-9.97-1.39-2.37,2.37-.98,7.6,1.39,9.97,2.37,2.37,6.21,2.37,8.58,0Z"/><path class="cls-11" d="m74.4,90.84c-2.37-2.37-2.37-6.21,0-8.58,2.37-2.37,7.6-3.76,9.97-1.39,2.37,2.37.98,7.6-1.39,9.97-2.37,2.37-6.21,2.37-8.58,0Z"/><path class="cls-4" d="m46.83,117.55s.81,6.63-.09,15.89"/><path class="cls-4" d="m64.54,118.37s1.57,6.73-.16,14.25"/><path class="cls-5" d="m4.18,92.05s-5.16,7.88-.67,15.53"/><path class="cls-9" d="m54.78,102.08c-32.25,0-48.41,3.8-50.34-29.33-.13,2.82-.2,5.62-.2,8.39,0,40.94,16.09,36.6,50.53,36.6s46.77,4.34,46.77-36.6c0-2.61-.06-5.25-.18-7.91-1.61,32.61-14.5,28.85-46.59,28.85Z"/><path class="cls-7" d="m76.22,17.46c-.19.61.21,1.24.66,1.7,1.42,1.45,3.38,2.2,5.24,3.02s3.77,1.82,4.84,3.54c.44.7.92,1.63,1.75,1.57.58-.04,1-.62,1.05-1.2.05-.58-.17-1.14-.43-1.66-1.28-2.61-3.4-4.8-5.95-6.2-1.16-.64-6.45-3.03-7.17-.78Z"/><path class="cls-10" d="m27.79,69.67l1.35,2.73c.24.49.71.83,1.25.91l3.01.44c1.37.2,1.91,1.88.92,2.84l-2.18,2.12c-.39.38-.57.93-.48,1.47l.51,3c.23,1.36-1.19,2.4-2.42,1.76l-2.69-1.41c-.49-.26-1.06-.26-1.55,0l-2.69,1.41c-1.22.64-2.65-.4-2.42-1.76l.51-3c.09-.54-.09-1.09-.48-1.47l-2.18-2.12c-.99-.96-.44-2.64.92-2.84l3.01-.44c.54-.08,1.01-.42,1.25-.91l1.35-2.73c.61-1.24,2.38-1.24,2.99,0Z"/><path class="cls-10" d="m78.26,69.67l1.35,2.73c.24.49.71.83,1.25.91l3.01.44c1.37.2,1.91,1.88.92,2.84l-2.18,2.12c-.39.38-.57.93-.48,1.47l.51,3c.23,1.36-1.19,2.4-2.42,1.76l-2.69-1.41c-.49-.26-1.06-.26-1.55,0l-2.69,1.41c-1.22.64-2.65-.4-2.42-1.76l.51-3c.09-.54-.09-1.09-.48-1.47l-2.18-2.12c-.99-.96-.44-2.64.92-2.84l3.01-.44c.54-.08,1.01-.42,1.25-.91l1.35-2.73c.61-1.24,2.38-1.24,2.99,0Z"/><path class="cls-3" d="m46.95,75.35s4.6-3.94,7.34-2.52c1.92,1-.08,3.5-1.46,4.91-.41.42-.2,1.13.37,1.28,1.58.41,3.79,1.41,2.84,3.68-1.42,3.4-7.89-.55-7.89-.55"/><path class="cls-1" d="m15.72,118.56l-9.84-9.84c-2.02-2.02-2.02-5.29,0-7.31,2.02-2.02,5.29-2.02,7.31,0l2.53,2.53,2.61-2.61c2.02-2.02,5.29-2.02,7.31,0,2.02,2.02,2.02,5.29,0,7.31l-9.92,9.92Z"/><path class="cls-5" d="m101.82,83.18s17.06-1.43,16.5-17.32"/></g></svg>