<?xml version="1.0" encoding="UTF-8"?><svg id="Layer_2" xmlns="http://www.w3.org/2000/svg" viewBox="0 0 130.36 159.25"><defs><style>.cls-1{fill:#e7bde5;}.cls-1,.cls-2,.cls-3,.cls-4{stroke-width:3.34px;}.cls-1,.cls-2,.cls-3,.cls-4,.cls-5,.cls-6{stroke:#3f3115;stroke-linecap:round;stroke-miterlimit:10;}.cls-2,.cls-6,.cls-7{fill:#fff;}.cls-8{opacity:.2;}.cls-8,.cls-9,.cls-10{fill:#3f3115;}.cls-8,.cls-9,.cls-10,.cls-7,.cls-11{stroke-width:0px;}.cls-3{fill:#f7e36f;}.cls-4{fill:none;}.cls-9{opacity:.1;}.cls-5{fill:#b6fbf3;}.cls-5,.cls-6{stroke-width:3px;}.cls-11{fill:#e695b1;}</style></defs><g id="OBJECTS"><path class="cls-5" d="m23.68,42.58S25.2,5.82,38.99,1.81c13.78-4.01,19.73,32.49,19.73,32.49l-35.03,8.28Z"/><line class="cls-5" x1="40.2" y1="13.34" x2="41.2" y2="34.59"/><path class="cls-5" d="m105.36,42.58s-1.52-36.76-15.3-40.77c-13.78-4.01-19.73,32.49-19.73,32.49l35.03,8.28Z"/><line class="cls-5" x1="88.84" y1="13.34" x2="87.85" y2="34.59"/><path class="cls-8" d="m23.68,154.7c0,2.51,18.68,4.55,41.72,4.55s41.72-2.04,41.72-4.55-18.68-4.55-41.72-4.55-41.72,2.04-41.72,4.55Z"/><path class="cls-3" d="m113.52,102.28c0,40.94-12.33,36.6-46.77,36.6s-50.53,4.34-50.53-36.6S.13,34.22,64.71,34.22c60.29,0,48.81,27.12,48.81,68.06Z"/><path class="cls-11" d="m40.51,111.97c2.37-2.37,2.37-6.21,0-8.58-2.37-2.37-7.6-3.76-9.97-1.39s-.98,7.6,1.39,9.97c2.37,2.37,6.21,2.37,8.58,0Z"/><path class="cls-11" d="m86.37,111.97c-2.37-2.37-2.37-6.21,0-8.58,2.37-2.37,7.6-3.76,9.97-1.39,2.37,2.37.98,7.6-1.39,9.97-2.37,2.37-6.21,2.37-8.58,0Z"/><circle class="cls-10" cx="38.99" cy="98.16" r="6.73"/><circle class="cls-10" cx="87.85" cy="98.16" r="6.73"/><path class="cls-1" d="m15.55,99.58c-.05-.94-.85-1.65-1.79-1.6-1.85.1-4.7.11-5.82-.6-1.72-1.1-1.88-4.54-3.76-4.7-1.88-.16-1.88,8.3.31,9.55,1.56.89,6.64,1.23,9.42,1.35,1,.04,1.81-.79,1.76-1.78l-.12-2.22Z"/><path class="cls-1" d="m113.65,99.58c.05-.94.85-1.65,1.79-1.6,1.85.1,4.7.11,5.82-.6,1.72-1.1,1.88-4.54,3.76-4.7s1.88,8.3-.31,9.55c-1.56.89-6.64,1.23-9.42,1.35-1,.04-1.81-.79-1.76-1.78l.12-2.22Z"/><path class="cls-2" d="m53.67,139.51s-7.95,7.13,3.86,7.13"/><path class="cls-2" d="m76.51,139.51s1.57,6.73-.16,14.25"/><path class="cls-4" d="m16.86,116.8s-6.89,6.42-15.19,3.29"/><path class="cls-4" d="m113.49,116.8s6.89,6.42,15.19,3.29"/><path class="cls-9" d="m66.75,123.22c-32.25,0-48.41,3.8-50.34-29.33-.13,2.82-.2,5.62-.2,8.39,0,40.94,16.09,36.6,50.53,36.6s46.77,4.34,46.77-36.6c0-2.61-.06-5.25-.18-7.91-1.61,32.61-14.5,28.85-46.59,28.85Z"/><path class="cls-7" d="m92.4,44.76c-.19.61.21,1.24.66,1.7,1.42,1.45,3.38,2.2,5.24,3.02,1.86.82,3.77,1.82,4.84,3.54.44.71.92,1.63,1.75,1.57.58-.04,1-.62,1.05-1.2s-.17-1.14-.43-1.66c-1.28-2.61-3.4-4.8-5.95-6.2-1.16-.64-6.45-3.03-7.17-.78Z"/><path class="cls-6" d="m55.87,89.73h17.09c1.3,0,2.38,1.02,2.45,2.32.28,5.77-.1,20.3-10.99,20.3s-11.27-14.53-10.99-20.3c.06-1.3,1.14-2.32,2.45-2.32Z"/></g></svg>