<?xml version="1.0" encoding="UTF-8"?><svg id="Layer_2" xmlns="http://www.w3.org/2000/svg" viewBox="0 0 110.41 160.42"><defs><style>.cls-1{fill:#d2bbfc;}.cls-1,.cls-2,.cls-3,.cls-4,.cls-5,.cls-6,.cls-7,.cls-8,.cls-9{stroke:#3f3115;stroke-linecap:round;stroke-miterlimit:10;}.cls-1,.cls-3,.cls-4,.cls-5{stroke-width:3.34px;}.cls-2,.cls-5{fill:none;}.cls-2,.cls-9{stroke-width:3px;}.cls-3,.cls-7,.cls-8{fill:#efdeb9;}.cls-4,.cls-10{fill:#fff;}.cls-11{opacity:.72;}.cls-11,.cls-12,.cls-13,.cls-14{fill:#3f3115;}.cls-11,.cls-12,.cls-13,.cls-14,.cls-10,.cls-15{stroke-width:0px;}.cls-12{opacity:.2;}.cls-13{opacity:.1;}.cls-6{fill:#d4b172;}.cls-6,.cls-7{stroke-width:3.13px;}.cls-8{stroke-width:2.98px;}.cls-9,.cls-15{fill:#e695b1;}</style></defs><g id="OBJECTS"><path class="cls-12" d="m9.14,155.87c0,2.51,18.68,4.55,41.72,4.55s41.72-2.04,41.72-4.55-18.68-4.55-41.72-4.55-41.72,2.04-41.72,4.55Z"/><path class="cls-1" d="m98.98,103.45c0,40.94-12.33,36.6-46.77,36.6S1.67,144.39,1.67,103.45,7.6,29.31,50.17,29.31s48.81,33.19,48.81,74.13Z"/><path class="cls-15" d="m25.97,113.14c2.37-2.37,2.37-6.21,0-8.58-2.37-2.37-7.6-3.76-9.97-1.39-2.37,2.37-.98,7.6,1.39,9.97,2.37,2.37,6.21,2.37,8.58,0Z"/><path class="cls-15" d="m71.83,113.14c-2.37-2.37-2.37-6.21,0-8.58,2.37-2.37,7.6-3.76,9.97-1.39,2.37,2.37.98,7.6-1.39,9.97-2.37,2.37-6.21,2.37-8.58,0Z"/><path class="cls-4" d="m39.13,140.68s-1.57,6.73.16,14.25"/><path class="cls-4" d="m61.97,140.68s1.57,6.73-.16,14.25"/><path class="cls-4" d="m98.96,117.97s5.5,8.74-.96,14.81"/><path class="cls-13" d="m52.21,124.39c-32.25,0-48.41,3.8-50.34-29.33-.13,2.82-.2,5.62-.2,8.39,0,40.94,16.09,36.6,50.53,36.6s46.77,4.34,46.77-36.6c0-2.61-.06-5.25-.18-7.91-1.61,32.61-14.5,28.85-46.59,28.85Z"/><path class="cls-10" d="m69.03,41.29c-.19.61.21,1.24.66,1.7,1.42,1.45,3.38,2.2,5.24,3.02,1.86.82,3.77,1.82,4.84,3.54.44.7.92,1.63,1.75,1.57.58-.04,1-.62,1.05-1.2.05-.58-.17-1.14-.43-1.66-1.28-2.62-3.4-4.8-5.95-6.2-1.17-.64-6.45-3.03-7.17-.78Z"/><path class="cls-9" d="m14.52,43.57s-5.9-16.19-6.07-25.46C8.28,8.83,11.32-.11,21.27,1.75c9.95,1.86,14.33,29.18,14.33,29.18,0,0-9.44,3.04-21.08,12.65Z"/><line class="cls-9" x1="19.07" y1="14.73" x2="25.48" y2="34.97"/><path class="cls-13" d="m25.52,30.59c2.24-2.16,3.97-4.96,6.74-6.37.77-.39,1.83-.61,2.39.05.24.29.32.67.39,1.04.21,1.11.43,2.22.64,3.32.06.31.11.64-.02.92-.18.36-.61.5-1,.6-1.75.47-3.52.88-5.17,1.63-5.2,2.39-8.5,7.92-13.81,10.06-.57.23-1.31.39-1.74-.05-.2-.2-.29-.49-.36-.77-.3-1.07-1.62-3.76-1.04-4.84.61-1.13,3.04-.78,4.21-1.02,3.28-.67,6.36-2.26,8.78-4.58Z"/><path class="cls-9" d="m87.85,43.57s5.9-16.19,6.07-25.46c.17-9.28-2.87-18.21-12.82-16.36-9.95,1.86-14.33,29.18-14.33,29.18,0,0,9.44,3.04,21.08,12.65Z"/><line class="cls-9" x1="83.29" y1="14.73" x2="76.88" y2="34.97"/><path class="cls-13" d="m76.85,30.59c-2.24-2.16-3.97-4.96-6.74-6.37-.77-.39-1.83-.61-2.39.05-.24.29-.32.67-.39,1.04-.21,1.11-.43,2.22-.64,3.32-.06.31-.11.64.02.92.18.36.61.5,1,.6,1.75.47,3.52.88,5.17,1.63,5.2,2.39,8.5,7.92,13.81,10.06.57.23,1.31.39,1.74-.05.2-.2.29-.49.36-.77.3-1.07,1.62-3.76,1.04-4.84-.61-1.13-3.04-.78-4.21-1.02-3.28-.67-6.36-2.26-8.78-4.58Z"/><rect class="cls-7" x="55.56" y="124.85" width="45.52" height="6.91"/><path class="cls-3" d="m17.39,128.57c0,9.13,7.4,16.53,16.53,16.53s22.26-7.4,22.26-16.53-13.13-16.53-22.26-16.53-16.53,7.4-16.53,16.53Z"/><rect class="cls-6" x="24.13" y="121.99" width="5.06" height="13.49" rx="2.53" ry="2.53"/><rect class="cls-8" x="95.47" y="122.46" width="13.45" height="11.71" rx="2.06" ry="2.06"/><path class="cls-5" d="m79.95,127.89s-2.02,9.28,14,6.41"/><circle class="cls-11" cx="38.05" cy="128.48" r="5.31"/><path class="cls-14" d="m49.68,106.14h0c-5.45,0-9.87-4.42-9.87-9.87v-1.58c0-.76.61-1.37,1.37-1.37h17c.75,0,1.37.61,1.37,1.37v1.58c0,5.45-4.42,9.87-9.87,9.87Z"/><path class="cls-2" d="m17.39,91.97l10.63,5.67c1.29.69,1.22,2.55-.11,3.15l-11.54,2.31"/><path class="cls-2" d="m80.65,92.64l-10.63,5.67c-1.29.69-1.22,2.55.11,3.15l11.54,2.31"/><path class="cls-15" d="m44.37,101.87c0,1.65,2.11,2.98,4.72,2.98s4.72-1.34,4.72-2.98-2.11-2.98-4.72-2.98-4.72,1.34-4.72,2.98Z"/><path class="cls-5" d="m1.7,109.68s10.46,16.86,32.04,17.88"/></g></svg>