<?xml version="1.0" encoding="UTF-8"?><svg id="Layer_2" xmlns="http://www.w3.org/2000/svg" viewBox="0 0 140.72 139.24"><defs><style>.cls-1{fill:#e27fb6;}.cls-1,.cls-2,.cls-3,.cls-4,.cls-5,.cls-6{stroke:#3f3115;stroke-linecap:round;stroke-miterlimit:10;}.cls-1,.cls-3,.cls-4{stroke-width:3.34px;}.cls-2,.cls-4{fill:none;}.cls-2,.cls-5,.cls-6{stroke-width:3px;}.cls-3,.cls-6{fill:#fff;}.cls-7{opacity:.2;}.cls-7,.cls-8,.cls-9{fill:#3f3115;}.cls-7,.cls-8,.cls-9,.cls-10{stroke-width:0px;}.cls-8{opacity:.1;}.cls-5,.cls-10{fill:#e695b1;}</style></defs><g id="OBJECTS"><path class="cls-7" d="m38.89,134.7c0,2.51,18.68,4.55,41.72,4.55s41.72-2.04,41.72-4.55-18.68-4.55-41.72-4.55-41.72,2.04-41.72,4.55Z"/><path class="cls-5" d="m60.29,11.13S46.1-2.76,29.8,2.82c-16.3,5.58,5.13,40.3,5.13,40.3,0,0,25.66-7.4,25.36-32Z"/><path class="cls-9" d="m61.09,16.67s-10.94-10.71-23.52-6.4c-12.57,4.31,3.96,31.09,3.96,31.09,0,0,19.79-5.71,19.56-24.68Z"/><path class="cls-8" d="m29.65,33.92S46.71,6.15,57.42,8.86c10.72,2.72-9.66,21.59-9.66,21.59l-12.83,11.62-5.28-8.15Z"/><path class="cls-5" d="m99.95,11.13s14.19-13.89,30.49-8.3c16.3,5.58-5.13,40.3-5.13,40.3,0,0-25.66-7.4-25.36-32Z"/><path class="cls-9" d="m99.16,16.67s10.94-10.71,23.52-6.4c12.57,4.31-3.96,31.09-3.96,31.09,0,0-19.79-5.71-19.56-24.68Z"/><path class="cls-8" d="m130.59,33.92s-17.06-27.77-27.77-25.06c-10.72,2.72,9.66,21.59,9.66,21.59l12.83,11.62,5.28-8.15Z"/><path class="cls-3" d="m128.72,82.27c0,40.94-12.33,36.6-46.77,36.6s-50.53,4.34-50.53-36.6S37.34,8.14,79.91,8.14s48.81,33.19,48.81,74.13Z"/><path class="cls-10" d="m55.71,91.96c2.37-2.37,2.37-6.21,0-8.58-2.37-2.37-7.6-3.76-9.97-1.39-2.37,2.37-.98,7.6,1.39,9.97,2.37,2.37,6.21,2.37,8.58,0Z"/><path class="cls-10" d="m101.58,91.96c-2.37-2.37-2.37-6.21,0-8.58,2.37-2.37,7.6-3.76,9.97-1.39,2.37,2.37.98,7.6-1.39,9.97-2.37,2.37-6.21,2.37-8.58,0Z"/><path class="cls-3" d="m68.87,119.5s6.83,8.67,8.55,16.19"/><path class="cls-3" d="m91.71,119.5s4.42,6.09-4.93,6.83"/><path class="cls-3" d="m128.7,96.79s5.5,8.74-.96,14.81"/><path class="cls-8" d="m81.95,103.21c-32.25,0-48.41,3.8-50.34-29.33-.13,2.82-.2,5.62-.2,8.39,0,40.94,16.09,36.6,50.53,36.6s46.77,4.34,46.77-36.6c0-2.61-.06-5.25-.18-7.91-1.61,32.61-14.5,28.85-46.59,28.85Z"/><path class="cls-10" d="m98.77,20.12c-.19.61.21,1.24.66,1.7,1.42,1.45,3.38,2.2,5.24,3.02s3.77,1.82,4.84,3.54c.44.7.92,1.63,1.75,1.57.58-.04,1-.62,1.05-1.2.05-.58-.17-1.14-.43-1.66-1.28-2.62-3.4-4.8-5.95-6.2-1.16-.64-6.45-3.03-7.17-.78Z"/><path class="cls-6" d="m72.17,72.29h13.65c.61,0,1.1.49,1.1,1.1v3.8c0,4.37-3.55,7.92-7.92,7.92h0c-4.37,0-7.92-3.55-7.92-7.92v-3.8c0-.61.49-1.1,1.1-1.1Z"/><circle class="cls-9" cx="104.74" cy="75.35" r="9.74"/><path class="cls-6" d="m47.37,69.57l11.62,3.97c1.14.39,1.17,1.51.06,1.93l-13.25,4.98"/><path class="cls-2" d="m31.46,89.62s-19.02,0-18.42-24.15"/><path class="cls-1" d="m127.61,120.47l-9.84-9.84c-2.02-2.02-2.02-5.29,0-7.31,2.02-2.02,5.29-2.02,7.31,0l2.53,2.53,2.61-2.61c2.02-2.02,5.29-2.02,7.31,0,2.02,2.02,2.02,5.29,0,7.31l-9.92,9.92Z"/><path class="cls-4" d="m128.52,113.16s5.43,3.92,7.85-.15"/><path class="cls-1" d="m13.03,70.71l-9.84-9.84c-2.02-2.02-2.02-5.29,0-7.31,2.02-2.02,5.29-2.02,7.31,0l2.53,2.53,2.61-2.61c2.02-2.02,5.29-2.02,7.31,0,2.02,2.02,2.02,5.29,0,7.31l-9.92,9.92Z"/></g></svg>