<?xml version="1.0" encoding="UTF-8"?><svg id="Layer_2" xmlns="http://www.w3.org/2000/svg" viewBox="0 0 130.36 147.96"><defs><style>.cls-1{fill:#baff9d;}.cls-1,.cls-2,.cls-3,.cls-4,.cls-5,.cls-6{stroke:#3f3115;stroke-linecap:round;stroke-miterlimit:10;}.cls-1,.cls-3,.cls-4,.cls-6{stroke-width:3.34px;}.cls-2{stroke-width:3px;}.cls-2,.cls-6{fill:none;}.cls-3{fill:#e7bde5;}.cls-4,.cls-7{fill:#fff;}.cls-5{stroke-width:2.73px;}.cls-5,.cls-8{fill:#e695b1;}.cls-9{opacity:.2;}.cls-9,.cls-10,.cls-11{fill:#3f3115;}.cls-9,.cls-10,.cls-11,.cls-7,.cls-8{stroke-width:0px;}.cls-10{opacity:.1;}</style></defs><g id="OBJECTS"><path class="cls-9" d="m23.68,143.41c0,2.51,18.68,4.55,41.72,4.55s41.72-2.04,41.72-4.55-18.68-4.55-41.72-4.55-41.72,2.04-41.72,4.55Z"/><path class="cls-1" d="m113.52,90.99c0,40.94-12.33,36.6-46.77,36.6s-50.53,4.34-50.53-36.6S30.27,1.67,64.71,1.67s48.81,48.38,48.81,89.32Z"/><path class="cls-2" d="m52.57,84.99s.78,5.48,5.64,5.64c2.7.09,3.99-1.76,4.61-3.41.27-.72,1.23-.79,1.6-.12.88,1.61,2.35,3.45,4.44,3.54,3.76.16,5.01-5.79,5.01-5.79"/><path class="cls-5" d="m59.79,90.7c-.79.25-1.26,1.06-1.02,1.85.81,2.66,1.86,7.4,5.23,7.91,4.71.71,5.28-9.7,5.28-9.7,0,0-3.14-.14-3.99-1.28-.09-.12-.17-.23-.25-.34-.57-.78-1.68-.91-2.4-.27-.79.71-1.83,1.5-2.84,1.82Z"/><path class="cls-8" d="m40.51,100.68c2.37-2.37,2.37-6.21,0-8.58-2.37-2.37-7.6-3.76-9.97-1.39s-.98,7.6,1.39,9.97c2.37,2.37,6.21,2.37,8.58,0Z"/><path class="cls-8" d="m86.37,100.68c-2.37-2.37-2.37-6.21,0-8.58,2.37-2.37,7.6-3.76,9.97-1.39,2.37,2.37.98,7.6-1.39,9.97s-6.21,2.37-8.58,0Z"/><circle class="cls-11" cx="38.99" cy="86.87" r="6.73"/><circle class="cls-11" cx="87.85" cy="86.87" r="6.73"/><path class="cls-3" d="m15.55,88.29c-.05-.94-.85-1.65-1.79-1.6-1.85.1-4.7.11-5.82-.6-1.72-1.1-1.88-4.54-3.76-4.7-1.88-.16-1.88,8.3.31,9.55,1.56.89,6.64,1.23,9.42,1.35,1,.04,1.81-.79,1.76-1.78l-.12-2.22Z"/><path class="cls-3" d="m113.65,88.29c.05-.94.85-1.65,1.79-1.6,1.85.1,4.7.11,5.82-.6,1.72-1.1,1.88-4.54,3.76-4.7,1.88-.16,1.88,8.3-.31,9.55-1.56.89-6.64,1.23-9.42,1.35-1,.04-1.81-.79-1.76-1.78l.12-2.22Z"/><path class="cls-4" d="m53.67,128.22s-3.1,5.92-9.09,13.03"/><path class="cls-4" d="m76.51,128.22s1.57,6.73-.16,14.25"/><path class="cls-6" d="m16.86,105.51s-6.89,6.42-15.19,3.29"/><path class="cls-6" d="m113.49,105.51s6.89,6.42,15.19,3.29"/><path class="cls-10" d="m66.75,111.93c-32.25,0-48.41,3.8-50.34-29.33-.13,2.82-.2,5.62-.2,8.39,0,40.94,16.09,36.6,50.53,36.6s46.77,4.34,46.77-36.6c0-2.61-.06-5.25-.18-7.91-1.61,32.61-14.5,28.85-46.59,28.85Z"/><path class="cls-7" d="m72.38,9.69c-.19.61.21,1.24.66,1.7,1.42,1.45,3.38,2.2,5.24,3.02,1.86.82,3.77,1.82,4.84,3.54.44.7.92,1.63,1.75,1.57.58-.04,1-.62,1.05-1.2.05-.58-.17-1.14-.43-1.66-1.28-2.62-3.4-4.8-5.95-6.2-1.16-.64-6.45-3.03-7.17-.78Z"/></g></svg>